<?xml version="1.0" standalone="yes"?>
<!-- SVG graphic -->
<svg xmlns='http://www.w3.org/2000/svg' xmlns:xlink='http://www.w3.org/1999/xlink'
 version="1.1">
<rect x="0" y="0" width="6" height="200" stroke="black" stroke-width="1" fill="blue" tooltip="enable"><title>(0,343247)</title></rect><rect x="6" y="191.892" width="6" height="8.10786" stroke="black" stroke-width="1" fill="blue" tooltip="enable"><title>(0.34273,13915)</title></rect><rect x="12" y="195.702" width="6" height="4.29778" stroke="black" stroke-width="1" fill="blue" tooltip="enable"><title>(0.685459,7376)</title></rect><rect x="18" y="197.386" width="6" height="2.61444" stroke="black" stroke-width="1" fill="blue" tooltip="enable"><title>(1.02819,4487)</title></rect><rect x="24" y="198.248" width="6" height="1.75151" stroke="black" stroke-width="1" fill="blue" tooltip="enable"><title>(1.37092,3006)</title></rect><rect x="30" y="198.793" width="6" height="1.20729" stroke="black" stroke-width="1" fill="blue" tooltip="enable"><title>(1.71365,2072)</title></rect><rect x="36" y="199.122" width="6" height="0.878085" stroke="black" stroke-width="1" fill="blue" tooltip="enable"><title>(2.05638,1507)</title></rect><rect x="42" y="199.336" width="6" height="0.664245" stroke="black" stroke-width="1" fill="blue" tooltip="enable"><title>(2.39911,1140)</title></rect><rect x="48" y="199.525" width="6" height="0.475459" stroke="black" stroke-width="1" fill="blue" tooltip="enable"><title>(2.74184,816)</title></rect><rect x="54" y="199.631" width="6" height="0.368831" stroke="black" stroke-width="1" fill="blue" tooltip="enable"><title>(3.08457,633)</title></rect><rect x="60" y="199.752" width="6" height="0.247635" stroke="black" stroke-width="1" fill="blue" tooltip="enable"><title>(3.4273,425)</title></rect><rect x="66" y="199.815" width="6" height="0.185289" stroke="black" stroke-width="1" fill="blue" tooltip="enable"><title>(3.77003,318)</title></rect><rect x="72" y="199.835" width="6" height="0.164896" stroke="black" stroke-width="1" fill="blue" tooltip="enable"><title>(4.11276,283)</title></rect><rect x="78" y="199.896" width="6" height="0.103715" stroke="black" stroke-width="1" fill="blue" tooltip="enable"><title>(4.45548,178)</title></rect><rect x="84" y="199.91" width="6" height="0.0897313" stroke="black" stroke-width="1" fill="blue" tooltip="enable"><title>(4.79821,154)</title></rect><rect x="90" y="199.928" width="6" height="0.0716685" stroke="black" stroke-width="1" fill="blue" tooltip="enable"><title>(5.14094,123)</title></rect><rect x="96" y="199.943" width="6" height="0.0571017" stroke="black" stroke-width="1" fill="blue" tooltip="enable"><title>(5.48367,98)</title></rect><rect x="102" y="199.959" width="6" height="0.040787" stroke="black" stroke-width="1" fill="blue" tooltip="enable"><title>(5.8264,70)</title></rect><rect x="108" y="199.974" width="6" height="0.0262202" stroke="black" stroke-width="1" fill="blue" tooltip="enable"><title>(6.16913,45)</title></rect><rect x="114" y="199.975" width="6" height="0.0250548" stroke="black" stroke-width="1" fill="blue" tooltip="enable"><title>(6.51186,43)</title></rect><rect x="120" y="199.978" width="6" height="0.0221415" stroke="black" stroke-width="1" fill="blue" tooltip="enable"><title>(6.85459,38)</title></rect><rect x="126" y="199.984" width="6" height="0.0163148" stroke="black" stroke-width="1" fill="blue" tooltip="enable"><title>(7.19732,28)</title></rect><rect x="132" y="199.988" width="6" height="0.0122361" stroke="black" stroke-width="1" fill="blue" tooltip="enable"><title>(7.54005,21)</title></rect><rect x="138" y="199.992" width="6" height="0.00757472" stroke="black" stroke-width="1" fill="blue" tooltip="enable"><title>(7.88278,13)</title></rect><rect x="144" y="199.991" width="6" height="0.00874006" stroke="black" stroke-width="1" fill="blue" tooltip="enable"><title>(8.22551,15)</title></rect><rect x="150" y="199.996" width="6" height="0.0040787" stroke="black" stroke-width="1" fill="blue" tooltip="enable"><title>(8.56824,7)</title></rect><rect x="156" y="199.997" width="6" height="0.00349602" stroke="black" stroke-width="1" fill="blue" tooltip="enable"><title>(8.91097,6)</title></rect><rect x="162" y="199.997" width="6" height="0.00291335" stroke="black" stroke-width="1" fill="blue" tooltip="enable"><title>(9.2537,5)</title></rect><rect x="168" y="199.999" width="6" height="0.000582671" stroke="black" stroke-width="1" fill="blue" tooltip="enable"><title>(9.59643,1)</title></rect><rect x="174" y="199.998" width="6" height="0.00174801" stroke="black" stroke-width="1" fill="blue" tooltip="enable"><title>(9.93916,3)</title></rect><rect x="180" y="199.998" width="6" height="0.00174801" stroke="black" stroke-width="1" fill="blue" tooltip="enable"><title>(10.2819,3)</title></rect><rect x="186" y="199.999" width="6" height="0.000582671" stroke="black" stroke-width="1" fill="blue" tooltip="enable"><title>(10.6246,1)</title></rect><rect x="192" y="199.999" width="6" height="0.000582671" stroke="black" stroke-width="1" fill="blue" tooltip="enable"><title>(10.9673,1)</title></rect><rect x="198" y="199.999" width="6" height="0.000582671" stroke="black" stroke-width="1" fill="blue" tooltip="enable"><title>(11.3101,1)</title></rect><rect x="204" y="199.999" width="6" height="0.000582671" stroke="black" stroke-width="1" fill="blue" tooltip="enable"><title>(11.6528,1)</title></rect><rect x="210" y="199.999" width="6" height="0.000582671" stroke="black" stroke-width="1" fill="blue" tooltip="enable"><title>(11.9955,1)</title></rect><rect x="216" y="199.999" width="6" height="0.000582671" stroke="black" stroke-width="1" fill="blue" tooltip="enable"><title>(12.3383,1)</title></rect><rect x="222" y="199.999" width="6" height="0.000582671" stroke="black" stroke-width="1" fill="blue" tooltip="enable"><title>(12.681,1)</title></rect><rect x="228" y="200" width="6" height="0" stroke="black" stroke-width="1" fill="blue" tooltip="enable"><title>(13.0237,0)</title></rect><rect x="234" y="200" width="6" height="0" stroke="black" stroke-width="1" fill="blue" tooltip="enable"><title>(13.3665,0)</title></rect><rect x="240" y="200" width="6" height="0" stroke="black" stroke-width="1" fill="blue" tooltip="enable"><title>(13.7092,0)</title></rect><rect x="246" y="200" width="6" height="0" stroke="black" stroke-width="1" fill="blue" tooltip="enable"><title>(14.0519,0)</title></rect><rect x="252" y="200" width="6" height="0" stroke="black" stroke-width="1" fill="blue" tooltip="enable"><title>(14.3946,0)</title></rect><rect x="258" y="200" width="6" height="0" stroke="black" stroke-width="1" fill="blue" tooltip="enable"><title>(14.7374,0)</title></rect><rect x="264" y="200" width="6" height="0" stroke="black" stroke-width="1" fill="blue" tooltip="enable"><title>(15.0801,0)</title></rect><rect x="270" y="200" width="6" height="0" stroke="black" stroke-width="1" fill="blue" tooltip="enable"><title>(15.4228,0)</title></rect><rect x="276" y="200" width="6" height="0" stroke="black" stroke-width="1" fill="blue" tooltip="enable"><title>(15.7656,0)</title></rect><rect x="282" y="200" width="6" height="0" stroke="black" stroke-width="1" fill="blue" tooltip="enable"><title>(16.1083,0)</title></rect><rect x="288" y="200" width="6" height="0" stroke="black" stroke-width="1" fill="blue" tooltip="enable"><title>(16.451,0)</title></rect><rect x="294" y="200" width="6" height="0" stroke="black" stroke-width="1" fill="blue" tooltip="enable"><title>(16.7938,0)</title></rect><rect x="300" y="200" width="6" height="0" stroke="black" stroke-width="1" fill="blue" tooltip="enable"><title>(17.1365,0)</title></rect><rect x="306" y="200" width="6" height="0" stroke="black" stroke-width="1" fill="blue" tooltip="enable"><title>(17.4792,0)</title></rect><rect x="312" y="200" width="6" height="0" stroke="black" stroke-width="1" fill="blue" tooltip="enable"><title>(17.8219,0)</title></rect><rect x="318" y="200" width="6" height="0" stroke="black" stroke-width="1" fill="blue" tooltip="enable"><title>(18.1647,0)</title></rect><rect x="324" y="200" width="6" height="0" stroke="black" stroke-width="1" fill="blue" tooltip="enable"><title>(18.5074,0)</title></rect><rect x="330" y="200" width="6" height="0" stroke="black" stroke-width="1" fill="blue" tooltip="enable"><title>(18.8501,0)</title></rect><rect x="336" y="200" width="6" height="0" stroke="black" stroke-width="1" fill="blue" tooltip="enable"><title>(19.1929,0)</title></rect><rect x="342" y="199.999" width="6" height="0.00116534" stroke="black" stroke-width="1" fill="blue" tooltip="enable"><title>(19.5356,2)</title></rect><rect x="348" y="199.999" width="6" height="0.000582671" stroke="black" stroke-width="1" fill="blue" tooltip="enable"><title>(19.8783,1)</title></rect><rect x="354" y="200" width="6" height="0" stroke="black" stroke-width="1" fill="blue" tooltip="enable"><title>(20.221,0)</title></rect><rect x="360" y="200" width="6" height="0" stroke="black" stroke-width="1" fill="blue" tooltip="enable"><title>(20.5638,0)</title></rect><rect x="366" y="200" width="6" height="0" stroke="black" stroke-width="1" fill="blue" tooltip="enable"><title>(20.9065,0)</title></rect><rect x="372" y="200" width="6" height="0" stroke="black" stroke-width="1" fill="blue" tooltip="enable"><title>(21.2492,0)</title></rect><rect x="378" y="200" width="6" height="0" stroke="black" stroke-width="1" fill="blue" tooltip="enable"><title>(21.592,0)</title></rect><rect x="384" y="200" width="6" height="0" stroke="black" stroke-width="1" fill="blue" tooltip="enable"><title>(21.9347,0)</title></rect><rect x="390" y="200" width="6" height="0" stroke="black" stroke-width="1" fill="blue" tooltip="enable"><title>(22.2774,0)</title></rect><rect x="396" y="200" width="6" height="0" stroke="black" stroke-width="1" fill="blue" tooltip="enable"><title>(22.6202,0)</title></rect><rect x="402" y="200" width="6" height="0" stroke="black" stroke-width="1" fill="blue" tooltip="enable"><title>(22.9629,0)</title></rect><rect x="408" y="200" width="6" height="0" stroke="black" stroke-width="1" fill="blue" tooltip="enable"><title>(23.3056,0)</title></rect><rect x="414" y="200" width="6" height="0" stroke="black" stroke-width="1" fill="blue" tooltip="enable"><title>(23.6483,0)</title></rect><rect x="420" y="200" width="6" height="0" stroke="black" stroke-width="1" fill="blue" tooltip="enable"><title>(23.9911,0)</title></rect><rect x="426" y="200" width="6" height="0" stroke="black" stroke-width="1" fill="blue" tooltip="enable"><title>(24.3338,0)</title></rect><rect x="432" y="200" width="6" height="0" stroke="black" stroke-width="1" fill="blue" tooltip="enable"><title>(24.6765,0)</title></rect><rect x="438" y="200" width="6" height="0" stroke="black" stroke-width="1" fill="blue" tooltip="enable"><title>(25.0193,0)</title></rect><rect x="444" y="200" width="6" height="0" stroke="black" stroke-width="1" fill="blue" tooltip="enable"><title>(25.362,0)</title></rect><rect x="450" y="200" width="6" height="0" stroke="black" stroke-width="1" fill="blue" tooltip="enable"><title>(25.7047,0)</title></rect><rect x="456" y="200" width="6" height="0" stroke="black" stroke-width="1" fill="blue" tooltip="enable"><title>(26.0474,0)</title></rect><rect x="462" y="200" width="6" height="0" stroke="black" stroke-width="1" fill="blue" tooltip="enable"><title>(26.3902,0)</title></rect><rect x="468" y="199.999" width="6" height="0.000582671" stroke="black" stroke-width="1" fill="blue" tooltip="enable"><title>(26.7329,1)</title></rect><rect x="474" y="200" width="6" height="0" stroke="black" stroke-width="1" fill="blue" tooltip="enable"><title>(27.0756,0)</title></rect><rect x="480" y="200" width="6" height="0" stroke="black" stroke-width="1" fill="blue" tooltip="enable"><title>(27.4184,0)</title></rect><rect x="486" y="200" width="6" height="0" stroke="black" stroke-width="1" fill="blue" tooltip="enable"><title>(27.7611,0)</title></rect><rect x="492" y="200" width="6" height="0" stroke="black" stroke-width="1" fill="blue" tooltip="enable"><title>(28.1038,0)</title></rect><rect x="498" y="200" width="6" height="0" stroke="black" stroke-width="1" fill="blue" tooltip="enable"><title>(28.4466,0)</title></rect><rect x="504" y="200" width="6" height="0" stroke="black" stroke-width="1" fill="blue" tooltip="enable"><title>(28.7893,0)</title></rect><rect x="510" y="200" width="6" height="0" stroke="black" stroke-width="1" fill="blue" tooltip="enable"><title>(29.132,0)</title></rect><rect x="516" y="200" width="6" height="0" stroke="black" stroke-width="1" fill="blue" tooltip="enable"><title>(29.4747,0)</title></rect><rect x="522" y="200" width="6" height="0" stroke="black" stroke-width="1" fill="blue" tooltip="enable"><title>(29.8175,0)</title></rect><rect x="528" y="200" width="6" height="0" stroke="black" stroke-width="1" fill="blue" tooltip="enable"><title>(30.1602,0)</title></rect><rect x="534" y="200" width="6" height="0" stroke="black" stroke-width="1" fill="blue" tooltip="enable"><title>(30.5029,0)</title></rect><rect x="540" y="199.999" width="6" height="0.000582671" stroke="black" stroke-width="1" fill="blue" tooltip="enable"><title>(30.8457,1)</title></rect><rect x="546" y="200" width="6" height="0" stroke="black" stroke-width="1" fill="blue" tooltip="enable"><title>(31.1884,0)</title></rect><rect x="552" y="200" width="6" height="0" stroke="black" stroke-width="1" fill="blue" tooltip="enable"><title>(31.5311,0)</title></rect><rect x="558" y="200" width="6" height="0" stroke="black" stroke-width="1" fill="blue" tooltip="enable"><title>(31.8739,0)</title></rect><rect x="564" y="199.999" width="6" height="0.000582671" stroke="black" stroke-width="1" fill="blue" tooltip="enable"><title>(32.2166,1)</title></rect><rect x="570" y="200" width="6" height="0" stroke="black" stroke-width="1" fill="blue" tooltip="enable"><title>(32.5593,0)</title></rect><rect x="576" y="200" width="6" height="0" stroke="black" stroke-width="1" fill="blue" tooltip="enable"><title>(32.902,0)</title></rect><rect x="582" y="200" width="6" height="0" stroke="black" stroke-width="1" fill="blue" tooltip="enable"><title>(33.2448,0)</title></rect><rect x="588" y="200" width="6" height="0" stroke="black" stroke-width="1" fill="blue" tooltip="enable"><title>(33.5875,0)</title></rect><rect x="594" y="199.999" width="6" height="0.000582671" stroke="black" stroke-width="1" fill="blue" tooltip="enable"><title>(33.9302,1)</title></rect><text x="30" y="240" font-size="20" fill="black">0</text>
<text x="600" y="240" font-size="20" fill="black">34.273</text>
<polyline points="0,220,600,220" stroke="black" stroke-width="1" fill="none"/>
<text x="720" y="20" font-size="20" fill="black">343247</text>
<text x="720" y="200" font-size="20" fill="black">0</text>
<polyline points="660,0,660,200" stroke="black" stroke-width="1" fill="none"/>
</svg>