<?xml version="1.0" standalone="yes"?>
<!-- SVG graphic -->
<svg xmlns='http://www.w3.org/2000/svg' xmlns:xlink='http://www.w3.org/1999/xlink'
 version="1.1">
<rect x="0" y="0" width="6" height="200" stroke="black" stroke-width="1" fill="blue" tooltip="enable"><title>(0,148536)</title></rect><rect x="6" y="163.016" width="6" height="36.9836" stroke="black" stroke-width="1" fill="blue" tooltip="enable"><title>(0.205796,27467)</title></rect><rect x="12" y="180.311" width="6" height="19.6895" stroke="black" stroke-width="1" fill="blue" tooltip="enable"><title>(0.411591,14623)</title></rect><rect x="18" y="188.676" width="6" height="11.3239" stroke="black" stroke-width="1" fill="blue" tooltip="enable"><title>(0.617387,8410)</title></rect><rect x="24" y="192.834" width="6" height="7.16594" stroke="black" stroke-width="1" fill="blue" tooltip="enable"><title>(0.823182,5322)</title></rect><rect x="30" y="195.246" width="6" height="4.7544" stroke="black" stroke-width="1" fill="blue" tooltip="enable"><title>(1.02898,3531)</title></rect><rect x="36" y="196.602" width="6" height="3.3985" stroke="black" stroke-width="1" fill="blue" tooltip="enable"><title>(1.23477,2524)</title></rect><rect x="42" y="197.555" width="6" height="2.4452" stroke="black" stroke-width="1" fill="blue" tooltip="enable"><title>(1.44057,1816)</title></rect><rect x="48" y="198.075" width="6" height="1.92546" stroke="black" stroke-width="1" fill="blue" tooltip="enable"><title>(1.64636,1430)</title></rect><rect x="54" y="198.484" width="6" height="1.51613" stroke="black" stroke-width="1" fill="blue" tooltip="enable"><title>(1.85216,1126)</title></rect><rect x="60" y="198.815" width="6" height="1.1849" stroke="black" stroke-width="1" fill="blue" tooltip="enable"><title>(2.05796,880)</title></rect><rect x="66" y="198.969" width="6" height="1.0314" stroke="black" stroke-width="1" fill="blue" tooltip="enable"><title>(2.26375,766)</title></rect><rect x="72" y="199.179" width="6" height="0.82135" stroke="black" stroke-width="1" fill="blue" tooltip="enable"><title>(2.46955,610)</title></rect><rect x="78" y="199.374" width="6" height="0.626111" stroke="black" stroke-width="1" fill="blue" tooltip="enable"><title>(2.67534,465)</title></rect><rect x="84" y="199.417" width="6" height="0.583024" stroke="black" stroke-width="1" fill="blue" tooltip="enable"><title>(2.88114,433)</title></rect><rect x="90" y="199.527" width="6" height="0.472613" stroke="black" stroke-width="1" fill="blue" tooltip="enable"><title>(3.08693,351)</title></rect><rect x="96" y="199.608" width="6" height="0.391824" stroke="black" stroke-width="1" fill="blue" tooltip="enable"><title>(3.29273,291)</title></rect><rect x="102" y="199.659" width="6" height="0.340658" stroke="black" stroke-width="1" fill="blue" tooltip="enable"><title>(3.49853,253)</title></rect><rect x="108" y="199.704" width="6" height="0.296225" stroke="black" stroke-width="1" fill="blue" tooltip="enable"><title>(3.70432,220)</title></rect><rect x="114" y="199.779" width="6" height="0.220822" stroke="black" stroke-width="1" fill="blue" tooltip="enable"><title>(3.91012,164)</title></rect><rect x="120" y="199.786" width="6" height="0.21409" stroke="black" stroke-width="1" fill="blue" tooltip="enable"><title>(4.11591,159)</title></rect><rect x="126" y="199.852" width="6" height="0.148112" stroke="black" stroke-width="1" fill="blue" tooltip="enable"><title>(4.32171,110)</title></rect><rect x="132" y="199.842" width="6" height="0.157538" stroke="black" stroke-width="1" fill="blue" tooltip="enable"><title>(4.5275,117)</title></rect><rect x="138" y="199.877" width="6" height="0.122529" stroke="black" stroke-width="1" fill="blue" tooltip="enable"><title>(4.7333,91)</title></rect><rect x="144" y="199.906" width="6" height="0.0942532" stroke="black" stroke-width="1" fill="blue" tooltip="enable"><title>(4.93909,70)</title></rect><rect x="150" y="199.914" width="6" height="0.0861744" stroke="black" stroke-width="1" fill="blue" tooltip="enable"><title>(5.14489,64)</title></rect><rect x="156" y="199.945" width="6" height="0.0552055" stroke="black" stroke-width="1" fill="blue" tooltip="enable"><title>(5.35069,41)</title></rect><rect x="162" y="199.923" width="6" height="0.0767491" stroke="black" stroke-width="1" fill="blue" tooltip="enable"><title>(5.55648,57)</title></rect><rect x="168" y="199.939" width="6" height="0.0605914" stroke="black" stroke-width="1" fill="blue" tooltip="enable"><title>(5.76228,45)</title></rect><rect x="174" y="199.956" width="6" height="0.0444337" stroke="black" stroke-width="1" fill="blue" tooltip="enable"><title>(5.96807,33)</title></rect><rect x="180" y="199.945" width="6" height="0.0552055" stroke="black" stroke-width="1" fill="blue" tooltip="enable"><title>(6.17387,41)</title></rect><rect x="186" y="199.957" width="6" height="0.0430872" stroke="black" stroke-width="1" fill="blue" tooltip="enable"><title>(6.37966,32)</title></rect><rect x="192" y="199.973" width="6" height="0.0269295" stroke="black" stroke-width="1" fill="blue" tooltip="enable"><title>(6.58546,20)</title></rect><rect x="198" y="199.969" width="6" height="0.0309689" stroke="black" stroke-width="1" fill="blue" tooltip="enable"><title>(6.79125,23)</title></rect><rect x="204" y="199.978" width="6" height="0.0215436" stroke="black" stroke-width="1" fill="blue" tooltip="enable"><title>(6.99705,16)</title></rect><rect x="210" y="199.978" width="6" height="0.0215436" stroke="black" stroke-width="1" fill="blue" tooltip="enable"><title>(7.20285,16)</title></rect><rect x="216" y="199.978" width="6" height="0.0215436" stroke="black" stroke-width="1" fill="blue" tooltip="enable"><title>(7.40864,16)</title></rect><rect x="222" y="199.985" width="6" height="0.0148112" stroke="black" stroke-width="1" fill="blue" tooltip="enable"><title>(7.61444,11)</title></rect><rect x="228" y="199.982" width="6" height="0.0175042" stroke="black" stroke-width="1" fill="blue" tooltip="enable"><title>(7.82023,13)</title></rect><rect x="234" y="199.991" width="6" height="0.00942533" stroke="black" stroke-width="1" fill="blue" tooltip="enable"><title>(8.02603,7)</title></rect><rect x="240" y="199.989" width="6" height="0.0107718" stroke="black" stroke-width="1" fill="blue" tooltip="enable"><title>(8.23182,8)</title></rect><rect x="246" y="199.985" width="6" height="0.0148112" stroke="black" stroke-width="1" fill="blue" tooltip="enable"><title>(8.43762,11)</title></rect><rect x="252" y="199.989" width="6" height="0.0107718" stroke="black" stroke-width="1" fill="blue" tooltip="enable"><title>(8.64341,8)</title></rect><rect x="258" y="199.995" width="6" height="0.0053859" stroke="black" stroke-width="1" fill="blue" tooltip="enable"><title>(8.84921,4)</title></rect><rect x="264" y="199.991" width="6" height="0.00942533" stroke="black" stroke-width="1" fill="blue" tooltip="enable"><title>(9.05501,7)</title></rect><rect x="270" y="199.992" width="6" height="0.00807885" stroke="black" stroke-width="1" fill="blue" tooltip="enable"><title>(9.2608,6)</title></rect><rect x="276" y="199.997" width="6" height="0.00269295" stroke="black" stroke-width="1" fill="blue" tooltip="enable"><title>(9.4666,2)</title></rect><rect x="282" y="199.997" width="6" height="0.00269295" stroke="black" stroke-width="1" fill="blue" tooltip="enable"><title>(9.67239,2)</title></rect><rect x="288" y="199.996" width="6" height="0.00403942" stroke="black" stroke-width="1" fill="blue" tooltip="enable"><title>(9.87819,3)</title></rect><rect x="294" y="199.996" width="6" height="0.00403942" stroke="black" stroke-width="1" fill="blue" tooltip="enable"><title>(10.084,3)</title></rect><rect x="300" y="199.999" width="6" height="0.00134647" stroke="black" stroke-width="1" fill="blue" tooltip="enable"><title>(10.2898,1)</title></rect><rect x="306" y="199.997" width="6" height="0.00269295" stroke="black" stroke-width="1" fill="blue" tooltip="enable"><title>(10.4956,2)</title></rect><rect x="312" y="200" width="6" height="0" stroke="black" stroke-width="1" fill="blue" tooltip="enable"><title>(10.7014,0)</title></rect><rect x="318" y="200" width="6" height="0" stroke="black" stroke-width="1" fill="blue" tooltip="enable"><title>(10.9072,0)</title></rect><rect x="324" y="200" width="6" height="0" stroke="black" stroke-width="1" fill="blue" tooltip="enable"><title>(11.113,0)</title></rect><rect x="330" y="199.999" width="6" height="0.00134647" stroke="black" stroke-width="1" fill="blue" tooltip="enable"><title>(11.3188,1)</title></rect><rect x="336" y="199.997" width="6" height="0.00269295" stroke="black" stroke-width="1" fill="blue" tooltip="enable"><title>(11.5246,2)</title></rect><rect x="342" y="200" width="6" height="0" stroke="black" stroke-width="1" fill="blue" tooltip="enable"><title>(11.7303,0)</title></rect><rect x="348" y="200" width="6" height="0" stroke="black" stroke-width="1" fill="blue" tooltip="enable"><title>(11.9361,0)</title></rect><rect x="354" y="200" width="6" height="0" stroke="black" stroke-width="1" fill="blue" tooltip="enable"><title>(12.1419,0)</title></rect><rect x="360" y="200" width="6" height="0" stroke="black" stroke-width="1" fill="blue" tooltip="enable"><title>(12.3477,0)</title></rect><rect x="366" y="200" width="6" height="0" stroke="black" stroke-width="1" fill="blue" tooltip="enable"><title>(12.5535,0)</title></rect><rect x="372" y="200" width="6" height="0" stroke="black" stroke-width="1" fill="blue" tooltip="enable"><title>(12.7593,0)</title></rect><rect x="378" y="200" width="6" height="0" stroke="black" stroke-width="1" fill="blue" tooltip="enable"><title>(12.9651,0)</title></rect><rect x="384" y="199.999" width="6" height="0.00134647" stroke="black" stroke-width="1" fill="blue" tooltip="enable"><title>(13.1709,1)</title></rect><rect x="390" y="200" width="6" height="0" stroke="black" stroke-width="1" fill="blue" tooltip="enable"><title>(13.3767,0)</title></rect><rect x="396" y="200" width="6" height="0" stroke="black" stroke-width="1" fill="blue" tooltip="enable"><title>(13.5825,0)</title></rect><rect x="402" y="200" width="6" height="0" stroke="black" stroke-width="1" fill="blue" tooltip="enable"><title>(13.7883,0)</title></rect><rect x="408" y="200" width="6" height="0" stroke="black" stroke-width="1" fill="blue" tooltip="enable"><title>(13.9941,0)</title></rect><rect x="414" y="200" width="6" height="0" stroke="black" stroke-width="1" fill="blue" tooltip="enable"><title>(14.1999,0)</title></rect><rect x="420" y="200" width="6" height="0" stroke="black" stroke-width="1" fill="blue" tooltip="enable"><title>(14.4057,0)</title></rect><rect x="426" y="200" width="6" height="0" stroke="black" stroke-width="1" fill="blue" tooltip="enable"><title>(14.6115,0)</title></rect><rect x="432" y="199.999" width="6" height="0.00134647" stroke="black" stroke-width="1" fill="blue" tooltip="enable"><title>(14.8173,1)</title></rect><rect x="438" y="200" width="6" height="0" stroke="black" stroke-width="1" fill="blue" tooltip="enable"><title>(15.0231,0)</title></rect><rect x="444" y="200" width="6" height="0" stroke="black" stroke-width="1" fill="blue" tooltip="enable"><title>(15.2289,0)</title></rect><rect x="450" y="200" width="6" height="0" stroke="black" stroke-width="1" fill="blue" tooltip="enable"><title>(15.4347,0)</title></rect><rect x="456" y="200" width="6" height="0" stroke="black" stroke-width="1" fill="blue" tooltip="enable"><title>(15.6405,0)</title></rect><rect x="462" y="200" width="6" height="0" stroke="black" stroke-width="1" fill="blue" tooltip="enable"><title>(15.8463,0)</title></rect><rect x="468" y="200" width="6" height="0" stroke="black" stroke-width="1" fill="blue" tooltip="enable"><title>(16.0521,0)</title></rect><rect x="474" y="200" width="6" height="0" stroke="black" stroke-width="1" fill="blue" tooltip="enable"><title>(16.2579,0)</title></rect><rect x="480" y="200" width="6" height="0" stroke="black" stroke-width="1" fill="blue" tooltip="enable"><title>(16.4636,0)</title></rect><rect x="486" y="200" width="6" height="0" stroke="black" stroke-width="1" fill="blue" tooltip="enable"><title>(16.6694,0)</title></rect><rect x="492" y="200" width="6" height="0" stroke="black" stroke-width="1" fill="blue" tooltip="enable"><title>(16.8752,0)</title></rect><rect x="498" y="200" width="6" height="0" stroke="black" stroke-width="1" fill="blue" tooltip="enable"><title>(17.081,0)</title></rect><rect x="504" y="200" width="6" height="0" stroke="black" stroke-width="1" fill="blue" tooltip="enable"><title>(17.2868,0)</title></rect><rect x="510" y="200" width="6" height="0" stroke="black" stroke-width="1" fill="blue" tooltip="enable"><title>(17.4926,0)</title></rect><rect x="516" y="200" width="6" height="0" stroke="black" stroke-width="1" fill="blue" tooltip="enable"><title>(17.6984,0)</title></rect><rect x="522" y="199.999" width="6" height="0.00134647" stroke="black" stroke-width="1" fill="blue" tooltip="enable"><title>(17.9042,1)</title></rect><rect x="528" y="199.999" width="6" height="0.00134647" stroke="black" stroke-width="1" fill="blue" tooltip="enable"><title>(18.11,1)</title></rect><rect x="534" y="200" width="6" height="0" stroke="black" stroke-width="1" fill="blue" tooltip="enable"><title>(18.3158,0)</title></rect><rect x="540" y="200" width="6" height="0" stroke="black" stroke-width="1" fill="blue" tooltip="enable"><title>(18.5216,0)</title></rect><rect x="546" y="199.999" width="6" height="0.00134647" stroke="black" stroke-width="1" fill="blue" tooltip="enable"><title>(18.7274,1)</title></rect><rect x="552" y="200" width="6" height="0" stroke="black" stroke-width="1" fill="blue" tooltip="enable"><title>(18.9332,0)</title></rect><rect x="558" y="200" width="6" height="0" stroke="black" stroke-width="1" fill="blue" tooltip="enable"><title>(19.139,0)</title></rect><rect x="564" y="200" width="6" height="0" stroke="black" stroke-width="1" fill="blue" tooltip="enable"><title>(19.3448,0)</title></rect><rect x="570" y="200" width="6" height="0" stroke="black" stroke-width="1" fill="blue" tooltip="enable"><title>(19.5506,0)</title></rect><rect x="576" y="200" width="6" height="0" stroke="black" stroke-width="1" fill="blue" tooltip="enable"><title>(19.7564,0)</title></rect><rect x="582" y="200" width="6" height="0" stroke="black" stroke-width="1" fill="blue" tooltip="enable"><title>(19.9622,0)</title></rect><rect x="588" y="200" width="6" height="0" stroke="black" stroke-width="1" fill="blue" tooltip="enable"><title>(20.168,0)</title></rect><rect x="594" y="199.999" width="6" height="0.00134647" stroke="black" stroke-width="1" fill="blue" tooltip="enable"><title>(20.3738,1)</title></rect><text x="30" y="240" font-size="20" fill="black">0</text>
<text x="600" y="240" font-size="20" fill="black">20.5796</text>
<polyline points="0,220,600,220" stroke="black" stroke-width="1" fill="none"/>
<text x="720" y="20" font-size="20" fill="black">148536</text>
<text x="720" y="200" font-size="20" fill="black">0</text>
<polyline points="660,0,660,200" stroke="black" stroke-width="1" fill="none"/>
</svg>