<?xml version="1.0" standalone="yes"?>
<!-- SVG graphic -->
<svg xmlns='http://www.w3.org/2000/svg' xmlns:xlink='http://www.w3.org/1999/xlink'
 version="1.1">
<rect x="0" y="0" width="6" height="200" stroke="black" stroke-width="1" fill="blue" tooltip="enable"><title>(0,4583)</title></rect><rect x="6" y="31.4641" width="6" height="168.536" stroke="black" stroke-width="1" fill="blue" tooltip="enable"><title>(0.200096,3862)</title></rect><rect x="12" y="50.6219" width="6" height="149.378" stroke="black" stroke-width="1" fill="blue" tooltip="enable"><title>(0.400191,3423)</title></rect><rect x="18" y="72.5726" width="6" height="127.427" stroke="black" stroke-width="1" fill="blue" tooltip="enable"><title>(0.600287,2920)</title></rect><rect x="24" y="91.4248" width="6" height="108.575" stroke="black" stroke-width="1" fill="blue" tooltip="enable"><title>(0.800382,2488)</title></rect><rect x="30" y="106.83" width="6" height="93.1704" stroke="black" stroke-width="1" fill="blue" tooltip="enable"><title>(1.00048,2135)</title></rect><rect x="36" y="115.688" width="6" height="84.3116" stroke="black" stroke-width="1" fill="blue" tooltip="enable"><title>(1.20057,1932)</title></rect><rect x="42" y="128.082" width="6" height="71.918" stroke="black" stroke-width="1" fill="blue" tooltip="enable"><title>(1.40067,1648)</title></rect><rect x="48" y="137.203" width="6" height="62.7973" stroke="black" stroke-width="1" fill="blue" tooltip="enable"><title>(1.60076,1439)</title></rect><rect x="54" y="145.101" width="6" height="54.8985" stroke="black" stroke-width="1" fill="blue" tooltip="enable"><title>(1.80086,1258)</title></rect><rect x="60" y="153.524" width="6" height="46.4761" stroke="black" stroke-width="1" fill="blue" tooltip="enable"><title>(2.00096,1065)</title></rect><rect x="66" y="162.426" width="6" height="37.5736" stroke="black" stroke-width="1" fill="blue" tooltip="enable"><title>(2.20105,861)</title></rect><rect x="72" y="164.259" width="6" height="35.7408" stroke="black" stroke-width="1" fill="blue" tooltip="enable"><title>(2.40115,819)</title></rect><rect x="78" y="170.107" width="6" height="29.8931" stroke="black" stroke-width="1" fill="blue" tooltip="enable"><title>(2.60124,685)</title></rect><rect x="84" y="175.824" width="6" height="24.1763" stroke="black" stroke-width="1" fill="blue" tooltip="enable"><title>(2.80134,554)</title></rect><rect x="90" y="179.359" width="6" height="20.6415" stroke="black" stroke-width="1" fill="blue" tooltip="enable"><title>(3.00143,473)</title></rect><rect x="96" y="181.54" width="6" height="18.4595" stroke="black" stroke-width="1" fill="blue" tooltip="enable"><title>(3.20153,423)</title></rect><rect x="102" y="185.25" width="6" height="14.7502" stroke="black" stroke-width="1" fill="blue" tooltip="enable"><title>(3.40162,338)</title></rect><rect x="108" y="184.944" width="6" height="15.0556" stroke="black" stroke-width="1" fill="blue" tooltip="enable"><title>(3.60172,345)</title></rect><rect x="114" y="186.995" width="6" height="13.0046" stroke="black" stroke-width="1" fill="blue" tooltip="enable"><title>(3.80182,298)</title></rect><rect x="120" y="189.352" width="6" height="10.648" stroke="black" stroke-width="1" fill="blue" tooltip="enable"><title>(4.00191,244)</title></rect><rect x="126" y="190.05" width="6" height="9.94981" stroke="black" stroke-width="1" fill="blue" tooltip="enable"><title>(4.20201,228)</title></rect><rect x="132" y="192.581" width="6" height="7.41872" stroke="black" stroke-width="1" fill="blue" tooltip="enable"><title>(4.4021,170)</title></rect><rect x="138" y="192.93" width="6" height="7.0696" stroke="black" stroke-width="1" fill="blue" tooltip="enable"><title>(4.6022,162)</title></rect><rect x="144" y="193.76" width="6" height="6.24045" stroke="black" stroke-width="1" fill="blue" tooltip="enable"><title>(4.80229,143)</title></rect><rect x="150" y="194.458" width="6" height="5.54222" stroke="black" stroke-width="1" fill="blue" tooltip="enable"><title>(5.00239,127)</title></rect><rect x="156" y="195.069" width="6" height="4.93127" stroke="black" stroke-width="1" fill="blue" tooltip="enable"><title>(5.20248,113)</title></rect><rect x="162" y="196.247" width="6" height="3.753" stroke="black" stroke-width="1" fill="blue" tooltip="enable"><title>(5.40258,86)</title></rect><rect x="168" y="196.552" width="6" height="3.44752" stroke="black" stroke-width="1" fill="blue" tooltip="enable"><title>(5.60267,79)</title></rect><rect x="174" y="197.207" width="6" height="2.79293" stroke="black" stroke-width="1" fill="blue" tooltip="enable"><title>(5.80277,64)</title></rect><rect x="180" y="197.6" width="6" height="2.40017" stroke="black" stroke-width="1" fill="blue" tooltip="enable"><title>(6.00287,55)</title></rect><rect x="186" y="197.556" width="6" height="2.44381" stroke="black" stroke-width="1" fill="blue" tooltip="enable"><title>(6.20296,56)</title></rect><rect x="192" y="197.6" width="6" height="2.40017" stroke="black" stroke-width="1" fill="blue" tooltip="enable"><title>(6.40306,55)</title></rect><rect x="198" y="198.124" width="6" height="1.8765" stroke="black" stroke-width="1" fill="blue" tooltip="enable"><title>(6.60315,43)</title></rect><rect x="204" y="198.647" width="6" height="1.35283" stroke="black" stroke-width="1" fill="blue" tooltip="enable"><title>(6.80325,31)</title></rect><rect x="210" y="198.429" width="6" height="1.57102" stroke="black" stroke-width="1" fill="blue" tooltip="enable"><title>(7.00334,36)</title></rect><rect x="216" y="199.258" width="6" height="0.741872" stroke="black" stroke-width="1" fill="blue" tooltip="enable"><title>(7.20344,17)</title></rect><rect x="222" y="199.127" width="6" height="0.872791" stroke="black" stroke-width="1" fill="blue" tooltip="enable"><title>(7.40353,20)</title></rect><rect x="228" y="199.084" width="6" height="0.91643" stroke="black" stroke-width="1" fill="blue" tooltip="enable"><title>(7.60363,21)</title></rect><rect x="234" y="199.52" width="6" height="0.480035" stroke="black" stroke-width="1" fill="blue" tooltip="enable"><title>(7.80373,11)</title></rect><rect x="240" y="199.651" width="6" height="0.349116" stroke="black" stroke-width="1" fill="blue" tooltip="enable"><title>(8.00382,8)</title></rect><rect x="246" y="199.651" width="6" height="0.349116" stroke="black" stroke-width="1" fill="blue" tooltip="enable"><title>(8.20392,8)</title></rect><rect x="252" y="199.738" width="6" height="0.261837" stroke="black" stroke-width="1" fill="blue" tooltip="enable"><title>(8.40401,6)</title></rect><rect x="258" y="199.825" width="6" height="0.174558" stroke="black" stroke-width="1" fill="blue" tooltip="enable"><title>(8.60411,4)</title></rect><rect x="264" y="199.825" width="6" height="0.174558" stroke="black" stroke-width="1" fill="blue" tooltip="enable"><title>(8.8042,4)</title></rect><rect x="270" y="199.869" width="6" height="0.130919" stroke="black" stroke-width="1" fill="blue" tooltip="enable"><title>(9.0043,3)</title></rect><rect x="276" y="199.913" width="6" height="0.0872791" stroke="black" stroke-width="1" fill="blue" tooltip="enable"><title>(9.2044,2)</title></rect><rect x="282" y="199.825" width="6" height="0.174558" stroke="black" stroke-width="1" fill="blue" tooltip="enable"><title>(9.40449,4)</title></rect><rect x="288" y="199.956" width="6" height="0.0436395" stroke="black" stroke-width="1" fill="blue" tooltip="enable"><title>(9.60459,1)</title></rect><rect x="294" y="200" width="6" height="0" stroke="black" stroke-width="1" fill="blue" tooltip="enable"><title>(9.80468,0)</title></rect><rect x="300" y="199.869" width="6" height="0.130919" stroke="black" stroke-width="1" fill="blue" tooltip="enable"><title>(10.0048,3)</title></rect><rect x="306" y="199.782" width="6" height="0.218198" stroke="black" stroke-width="1" fill="blue" tooltip="enable"><title>(10.2049,5)</title></rect><rect x="312" y="199.825" width="6" height="0.174558" stroke="black" stroke-width="1" fill="blue" tooltip="enable"><title>(10.405,4)</title></rect><rect x="318" y="199.956" width="6" height="0.0436395" stroke="black" stroke-width="1" fill="blue" tooltip="enable"><title>(10.6051,1)</title></rect><rect x="324" y="199.956" width="6" height="0.0436395" stroke="black" stroke-width="1" fill="blue" tooltip="enable"><title>(10.8052,1)</title></rect><rect x="330" y="199.782" width="6" height="0.218198" stroke="black" stroke-width="1" fill="blue" tooltip="enable"><title>(11.0053,5)</title></rect><rect x="336" y="199.913" width="6" height="0.0872791" stroke="black" stroke-width="1" fill="blue" tooltip="enable"><title>(11.2053,2)</title></rect><rect x="342" y="200" width="6" height="0" stroke="black" stroke-width="1" fill="blue" tooltip="enable"><title>(11.4054,0)</title></rect><rect x="348" y="200" width="6" height="0" stroke="black" stroke-width="1" fill="blue" tooltip="enable"><title>(11.6055,0)</title></rect><rect x="354" y="200" width="6" height="0" stroke="black" stroke-width="1" fill="blue" tooltip="enable"><title>(11.8056,0)</title></rect><rect x="360" y="199.913" width="6" height="0.0872791" stroke="black" stroke-width="1" fill="blue" tooltip="enable"><title>(12.0057,2)</title></rect><rect x="366" y="200" width="6" height="0" stroke="black" stroke-width="1" fill="blue" tooltip="enable"><title>(12.2058,0)</title></rect><rect x="372" y="199.956" width="6" height="0.0436395" stroke="black" stroke-width="1" fill="blue" tooltip="enable"><title>(12.4059,1)</title></rect><rect x="378" y="200" width="6" height="0" stroke="black" stroke-width="1" fill="blue" tooltip="enable"><title>(12.606,0)</title></rect><rect x="384" y="200" width="6" height="0" stroke="black" stroke-width="1" fill="blue" tooltip="enable"><title>(12.8061,0)</title></rect><rect x="390" y="200" width="6" height="0" stroke="black" stroke-width="1" fill="blue" tooltip="enable"><title>(13.0062,0)</title></rect><rect x="396" y="200" width="6" height="0" stroke="black" stroke-width="1" fill="blue" tooltip="enable"><title>(13.2063,0)</title></rect><rect x="402" y="200" width="6" height="0" stroke="black" stroke-width="1" fill="blue" tooltip="enable"><title>(13.4064,0)</title></rect><rect x="408" y="200" width="6" height="0" stroke="black" stroke-width="1" fill="blue" tooltip="enable"><title>(13.6065,0)</title></rect><rect x="414" y="200" width="6" height="0" stroke="black" stroke-width="1" fill="blue" tooltip="enable"><title>(13.8066,0)</title></rect><rect x="420" y="200" width="6" height="0" stroke="black" stroke-width="1" fill="blue" tooltip="enable"><title>(14.0067,0)</title></rect><rect x="426" y="199.956" width="6" height="0.0436395" stroke="black" stroke-width="1" fill="blue" tooltip="enable"><title>(14.2068,1)</title></rect><rect x="432" y="200" width="6" height="0" stroke="black" stroke-width="1" fill="blue" tooltip="enable"><title>(14.4069,0)</title></rect><rect x="438" y="200" width="6" height="0" stroke="black" stroke-width="1" fill="blue" tooltip="enable"><title>(14.607,0)</title></rect><rect x="444" y="199.956" width="6" height="0.0436395" stroke="black" stroke-width="1" fill="blue" tooltip="enable"><title>(14.8071,1)</title></rect><rect x="450" y="200" width="6" height="0" stroke="black" stroke-width="1" fill="blue" tooltip="enable"><title>(15.0072,0)</title></rect><rect x="456" y="200" width="6" height="0" stroke="black" stroke-width="1" fill="blue" tooltip="enable"><title>(15.2073,0)</title></rect><rect x="462" y="200" width="6" height="0" stroke="black" stroke-width="1" fill="blue" tooltip="enable"><title>(15.4074,0)</title></rect><rect x="468" y="200" width="6" height="0" stroke="black" stroke-width="1" fill="blue" tooltip="enable"><title>(15.6075,0)</title></rect><rect x="474" y="199.956" width="6" height="0.0436395" stroke="black" stroke-width="1" fill="blue" tooltip="enable"><title>(15.8075,1)</title></rect><rect x="480" y="200" width="6" height="0" stroke="black" stroke-width="1" fill="blue" tooltip="enable"><title>(16.0076,0)</title></rect><rect x="486" y="200" width="6" height="0" stroke="black" stroke-width="1" fill="blue" tooltip="enable"><title>(16.2077,0)</title></rect><rect x="492" y="200" width="6" height="0" stroke="black" stroke-width="1" fill="blue" tooltip="enable"><title>(16.4078,0)</title></rect><rect x="498" y="200" width="6" height="0" stroke="black" stroke-width="1" fill="blue" tooltip="enable"><title>(16.6079,0)</title></rect><rect x="504" y="200" width="6" height="0" stroke="black" stroke-width="1" fill="blue" tooltip="enable"><title>(16.808,0)</title></rect><rect x="510" y="199.956" width="6" height="0.0436395" stroke="black" stroke-width="1" fill="blue" tooltip="enable"><title>(17.0081,1)</title></rect><rect x="516" y="200" width="6" height="0" stroke="black" stroke-width="1" fill="blue" tooltip="enable"><title>(17.2082,0)</title></rect><rect x="522" y="199.956" width="6" height="0.0436395" stroke="black" stroke-width="1" fill="blue" tooltip="enable"><title>(17.4083,1)</title></rect><rect x="528" y="200" width="6" height="0" stroke="black" stroke-width="1" fill="blue" tooltip="enable"><title>(17.6084,0)</title></rect><rect x="534" y="200" width="6" height="0" stroke="black" stroke-width="1" fill="blue" tooltip="enable"><title>(17.8085,0)</title></rect><rect x="540" y="200" width="6" height="0" stroke="black" stroke-width="1" fill="blue" tooltip="enable"><title>(18.0086,0)</title></rect><rect x="546" y="200" width="6" height="0" stroke="black" stroke-width="1" fill="blue" tooltip="enable"><title>(18.2087,0)</title></rect><rect x="552" y="200" width="6" height="0" stroke="black" stroke-width="1" fill="blue" tooltip="enable"><title>(18.4088,0)</title></rect><rect x="558" y="200" width="6" height="0" stroke="black" stroke-width="1" fill="blue" tooltip="enable"><title>(18.6089,0)</title></rect><rect x="564" y="200" width="6" height="0" stroke="black" stroke-width="1" fill="blue" tooltip="enable"><title>(18.809,0)</title></rect><rect x="570" y="200" width="6" height="0" stroke="black" stroke-width="1" fill="blue" tooltip="enable"><title>(19.0091,0)</title></rect><rect x="576" y="200" width="6" height="0" stroke="black" stroke-width="1" fill="blue" tooltip="enable"><title>(19.2092,0)</title></rect><rect x="582" y="200" width="6" height="0" stroke="black" stroke-width="1" fill="blue" tooltip="enable"><title>(19.4093,0)</title></rect><rect x="588" y="200" width="6" height="0" stroke="black" stroke-width="1" fill="blue" tooltip="enable"><title>(19.6094,0)</title></rect><rect x="594" y="199.956" width="6" height="0.0436395" stroke="black" stroke-width="1" fill="blue" tooltip="enable"><title>(19.8095,1)</title></rect><text x="30" y="240" font-size="20" fill="black">0</text>
<text x="600" y="240" font-size="20" fill="black">20.0096</text>
<polyline points="0,220,600,220" stroke="black" stroke-width="1" fill="none"/>
<text x="720" y="20" font-size="20" fill="black">4583</text>
<text x="720" y="200" font-size="20" fill="black">0</text>
<polyline points="660,0,660,200" stroke="black" stroke-width="1" fill="none"/>
</svg>