<?xml version="1.0" standalone="yes"?>
<!-- SVG graphic -->
<svg xmlns='http://www.w3.org/2000/svg' xmlns:xlink='http://www.w3.org/1999/xlink'
 version="1.1">
<rect x="0" y="0" width="6" height="200" stroke="black" stroke-width="1" fill="blue" tooltip="enable"><title>(0,57864)</title></rect><rect x="6" y="128.826" width="6" height="71.1738" stroke="black" stroke-width="1" fill="blue" tooltip="enable"><title>(0.255658,20592)</title></rect><rect x="12" y="169.02" width="6" height="30.9795" stroke="black" stroke-width="1" fill="blue" tooltip="enable"><title>(0.511315,8963)</title></rect><rect x="18" y="185.172" width="6" height="14.8279" stroke="black" stroke-width="1" fill="blue" tooltip="enable"><title>(0.766973,4290)</title></rect><rect x="24" y="192.061" width="6" height="7.93931" stroke="black" stroke-width="1" fill="blue" tooltip="enable"><title>(1.02263,2297)</title></rect><rect x="30" y="195.393" width="6" height="4.60736" stroke="black" stroke-width="1" fill="blue" tooltip="enable"><title>(1.27829,1333)</title></rect><rect x="36" y="196.703" width="6" height="3.29739" stroke="black" stroke-width="1" fill="blue" tooltip="enable"><title>(1.53395,954)</title></rect><rect x="42" y="197.726" width="6" height="2.2743" stroke="black" stroke-width="1" fill="blue" tooltip="enable"><title>(1.7896,658)</title></rect><rect x="48" y="198.479" width="6" height="1.52081" stroke="black" stroke-width="1" fill="blue" tooltip="enable"><title>(2.04526,440)</title></rect><rect x="54" y="198.683" width="6" height="1.31688" stroke="black" stroke-width="1" fill="blue" tooltip="enable"><title>(2.30092,381)</title></rect><rect x="60" y="198.98" width="6" height="1.01963" stroke="black" stroke-width="1" fill="blue" tooltip="enable"><title>(2.55658,295)</title></rect><rect x="66" y="199.119" width="6" height="0.881377" stroke="black" stroke-width="1" fill="blue" tooltip="enable"><title>(2.81223,255)</title></rect><rect x="72" y="199.35" width="6" height="0.6498" stroke="black" stroke-width="1" fill="blue" tooltip="enable"><title>(3.06789,188)</title></rect><rect x="78" y="199.402" width="6" height="0.597954" stroke="black" stroke-width="1" fill="blue" tooltip="enable"><title>(3.32355,173)</title></rect><rect x="84" y="199.571" width="6" height="0.428591" stroke="black" stroke-width="1" fill="blue" tooltip="enable"><title>(3.57921,124)</title></rect><rect x="90" y="199.641" width="6" height="0.359464" stroke="black" stroke-width="1" fill="blue" tooltip="enable"><title>(3.83486,104)</title></rect><rect x="96" y="199.654" width="6" height="0.345638" stroke="black" stroke-width="1" fill="blue" tooltip="enable"><title>(4.09052,100)</title></rect><rect x="102" y="199.827" width="6" height="0.172819" stroke="black" stroke-width="1" fill="blue" tooltip="enable"><title>(4.34618,50)</title></rect><rect x="108" y="199.793" width="6" height="0.207383" stroke="black" stroke-width="1" fill="blue" tooltip="enable"><title>(4.60184,60)</title></rect><rect x="114" y="199.855" width="6" height="0.145168" stroke="black" stroke-width="1" fill="blue" tooltip="enable"><title>(4.85749,42)</title></rect><rect x="120" y="199.865" width="6" height="0.134799" stroke="black" stroke-width="1" fill="blue" tooltip="enable"><title>(5.11315,39)</title></rect><rect x="126" y="199.882" width="6" height="0.117517" stroke="black" stroke-width="1" fill="blue" tooltip="enable"><title>(5.36881,34)</title></rect><rect x="132" y="199.917" width="6" height="0.0829531" stroke="black" stroke-width="1" fill="blue" tooltip="enable"><title>(5.62447,24)</title></rect><rect x="138" y="199.959" width="6" height="0.0414766" stroke="black" stroke-width="1" fill="blue" tooltip="enable"><title>(5.88012,12)</title></rect><rect x="144" y="199.931" width="6" height="0.0691276" stroke="black" stroke-width="1" fill="blue" tooltip="enable"><title>(6.13578,20)</title></rect><rect x="150" y="199.927" width="6" height="0.072584" stroke="black" stroke-width="1" fill="blue" tooltip="enable"><title>(6.39144,21)</title></rect><rect x="156" y="199.952" width="6" height="0.0483893" stroke="black" stroke-width="1" fill="blue" tooltip="enable"><title>(6.6471,14)</title></rect><rect x="162" y="199.962" width="6" height="0.0380202" stroke="black" stroke-width="1" fill="blue" tooltip="enable"><title>(6.90275,11)</title></rect><rect x="168" y="199.976" width="6" height="0.0241947" stroke="black" stroke-width="1" fill="blue" tooltip="enable"><title>(7.15841,7)</title></rect><rect x="174" y="199.976" width="6" height="0.0241947" stroke="black" stroke-width="1" fill="blue" tooltip="enable"><title>(7.41407,7)</title></rect><rect x="180" y="199.983" width="6" height="0.0172819" stroke="black" stroke-width="1" fill="blue" tooltip="enable"><title>(7.66973,5)</title></rect><rect x="186" y="199.986" width="6" height="0.0138255" stroke="black" stroke-width="1" fill="blue" tooltip="enable"><title>(7.92538,4)</title></rect><rect x="192" y="199.983" width="6" height="0.0172819" stroke="black" stroke-width="1" fill="blue" tooltip="enable"><title>(8.18104,5)</title></rect><rect x="198" y="199.986" width="6" height="0.0138255" stroke="black" stroke-width="1" fill="blue" tooltip="enable"><title>(8.4367,4)</title></rect><rect x="204" y="199.986" width="6" height="0.0138255" stroke="black" stroke-width="1" fill="blue" tooltip="enable"><title>(8.69236,4)</title></rect><rect x="210" y="200" width="6" height="0" stroke="black" stroke-width="1" fill="blue" tooltip="enable"><title>(8.94801,0)</title></rect><rect x="216" y="200" width="6" height="0" stroke="black" stroke-width="1" fill="blue" tooltip="enable"><title>(9.20367,0)</title></rect><rect x="222" y="199.997" width="6" height="0.00345638" stroke="black" stroke-width="1" fill="blue" tooltip="enable"><title>(9.45933,1)</title></rect><rect x="228" y="200" width="6" height="0" stroke="black" stroke-width="1" fill="blue" tooltip="enable"><title>(9.71499,0)</title></rect><rect x="234" y="199.993" width="6" height="0.00691276" stroke="black" stroke-width="1" fill="blue" tooltip="enable"><title>(9.97064,2)</title></rect><rect x="240" y="199.993" width="6" height="0.00691276" stroke="black" stroke-width="1" fill="blue" tooltip="enable"><title>(10.2263,2)</title></rect><rect x="246" y="200" width="6" height="0" stroke="black" stroke-width="1" fill="blue" tooltip="enable"><title>(10.482,0)</title></rect><rect x="252" y="199.99" width="6" height="0.0103691" stroke="black" stroke-width="1" fill="blue" tooltip="enable"><title>(10.7376,3)</title></rect><rect x="258" y="200" width="6" height="0" stroke="black" stroke-width="1" fill="blue" tooltip="enable"><title>(10.9933,0)</title></rect><rect x="264" y="199.997" width="6" height="0.00345638" stroke="black" stroke-width="1" fill="blue" tooltip="enable"><title>(11.2489,1)</title></rect><rect x="270" y="199.997" width="6" height="0.00345638" stroke="black" stroke-width="1" fill="blue" tooltip="enable"><title>(11.5046,1)</title></rect><rect x="276" y="199.997" width="6" height="0.00345638" stroke="black" stroke-width="1" fill="blue" tooltip="enable"><title>(11.7602,1)</title></rect><rect x="282" y="200" width="6" height="0" stroke="black" stroke-width="1" fill="blue" tooltip="enable"><title>(12.0159,0)</title></rect><rect x="288" y="199.993" width="6" height="0.00691276" stroke="black" stroke-width="1" fill="blue" tooltip="enable"><title>(12.2716,2)</title></rect><rect x="294" y="200" width="6" height="0" stroke="black" stroke-width="1" fill="blue" tooltip="enable"><title>(12.5272,0)</title></rect><rect x="300" y="199.993" width="6" height="0.00691276" stroke="black" stroke-width="1" fill="blue" tooltip="enable"><title>(12.7829,2)</title></rect><rect x="306" y="200" width="6" height="0" stroke="black" stroke-width="1" fill="blue" tooltip="enable"><title>(13.0385,0)</title></rect><rect x="312" y="200" width="6" height="0" stroke="black" stroke-width="1" fill="blue" tooltip="enable"><title>(13.2942,0)</title></rect><rect x="318" y="200" width="6" height="0" stroke="black" stroke-width="1" fill="blue" tooltip="enable"><title>(13.5498,0)</title></rect><rect x="324" y="200" width="6" height="0" stroke="black" stroke-width="1" fill="blue" tooltip="enable"><title>(13.8055,0)</title></rect><rect x="330" y="199.997" width="6" height="0.00345638" stroke="black" stroke-width="1" fill="blue" tooltip="enable"><title>(14.0612,1)</title></rect><rect x="336" y="200" width="6" height="0" stroke="black" stroke-width="1" fill="blue" tooltip="enable"><title>(14.3168,0)</title></rect><rect x="342" y="200" width="6" height="0" stroke="black" stroke-width="1" fill="blue" tooltip="enable"><title>(14.5725,0)</title></rect><rect x="348" y="200" width="6" height="0" stroke="black" stroke-width="1" fill="blue" tooltip="enable"><title>(14.8281,0)</title></rect><rect x="354" y="200" width="6" height="0" stroke="black" stroke-width="1" fill="blue" tooltip="enable"><title>(15.0838,0)</title></rect><rect x="360" y="200" width="6" height="0" stroke="black" stroke-width="1" fill="blue" tooltip="enable"><title>(15.3395,0)</title></rect><rect x="366" y="200" width="6" height="0" stroke="black" stroke-width="1" fill="blue" tooltip="enable"><title>(15.5951,0)</title></rect><rect x="372" y="200" width="6" height="0" stroke="black" stroke-width="1" fill="blue" tooltip="enable"><title>(15.8508,0)</title></rect><rect x="378" y="200" width="6" height="0" stroke="black" stroke-width="1" fill="blue" tooltip="enable"><title>(16.1064,0)</title></rect><rect x="384" y="200" width="6" height="0" stroke="black" stroke-width="1" fill="blue" tooltip="enable"><title>(16.3621,0)</title></rect><rect x="390" y="200" width="6" height="0" stroke="black" stroke-width="1" fill="blue" tooltip="enable"><title>(16.6177,0)</title></rect><rect x="396" y="200" width="6" height="0" stroke="black" stroke-width="1" fill="blue" tooltip="enable"><title>(16.8734,0)</title></rect><rect x="402" y="200" width="6" height="0" stroke="black" stroke-width="1" fill="blue" tooltip="enable"><title>(17.1291,0)</title></rect><rect x="408" y="200" width="6" height="0" stroke="black" stroke-width="1" fill="blue" tooltip="enable"><title>(17.3847,0)</title></rect><rect x="414" y="200" width="6" height="0" stroke="black" stroke-width="1" fill="blue" tooltip="enable"><title>(17.6404,0)</title></rect><rect x="420" y="200" width="6" height="0" stroke="black" stroke-width="1" fill="blue" tooltip="enable"><title>(17.896,0)</title></rect><rect x="426" y="200" width="6" height="0" stroke="black" stroke-width="1" fill="blue" tooltip="enable"><title>(18.1517,0)</title></rect><rect x="432" y="200" width="6" height="0" stroke="black" stroke-width="1" fill="blue" tooltip="enable"><title>(18.4073,0)</title></rect><rect x="438" y="200" width="6" height="0" stroke="black" stroke-width="1" fill="blue" tooltip="enable"><title>(18.663,0)</title></rect><rect x="444" y="200" width="6" height="0" stroke="black" stroke-width="1" fill="blue" tooltip="enable"><title>(18.9187,0)</title></rect><rect x="450" y="200" width="6" height="0" stroke="black" stroke-width="1" fill="blue" tooltip="enable"><title>(19.1743,0)</title></rect><rect x="456" y="200" width="6" height="0" stroke="black" stroke-width="1" fill="blue" tooltip="enable"><title>(19.43,0)</title></rect><rect x="462" y="200" width="6" height="0" stroke="black" stroke-width="1" fill="blue" tooltip="enable"><title>(19.6856,0)</title></rect><rect x="468" y="200" width="6" height="0" stroke="black" stroke-width="1" fill="blue" tooltip="enable"><title>(19.9413,0)</title></rect><rect x="474" y="200" width="6" height="0" stroke="black" stroke-width="1" fill="blue" tooltip="enable"><title>(20.1969,0)</title></rect><rect x="480" y="200" width="6" height="0" stroke="black" stroke-width="1" fill="blue" tooltip="enable"><title>(20.4526,0)</title></rect><rect x="486" y="200" width="6" height="0" stroke="black" stroke-width="1" fill="blue" tooltip="enable"><title>(20.7083,0)</title></rect><rect x="492" y="200" width="6" height="0" stroke="black" stroke-width="1" fill="blue" tooltip="enable"><title>(20.9639,0)</title></rect><rect x="498" y="200" width="6" height="0" stroke="black" stroke-width="1" fill="blue" tooltip="enable"><title>(21.2196,0)</title></rect><rect x="504" y="200" width="6" height="0" stroke="black" stroke-width="1" fill="blue" tooltip="enable"><title>(21.4752,0)</title></rect><rect x="510" y="200" width="6" height="0" stroke="black" stroke-width="1" fill="blue" tooltip="enable"><title>(21.7309,0)</title></rect><rect x="516" y="200" width="6" height="0" stroke="black" stroke-width="1" fill="blue" tooltip="enable"><title>(21.9866,0)</title></rect><rect x="522" y="200" width="6" height="0" stroke="black" stroke-width="1" fill="blue" tooltip="enable"><title>(22.2422,0)</title></rect><rect x="528" y="200" width="6" height="0" stroke="black" stroke-width="1" fill="blue" tooltip="enable"><title>(22.4979,0)</title></rect><rect x="534" y="200" width="6" height="0" stroke="black" stroke-width="1" fill="blue" tooltip="enable"><title>(22.7535,0)</title></rect><rect x="540" y="200" width="6" height="0" stroke="black" stroke-width="1" fill="blue" tooltip="enable"><title>(23.0092,0)</title></rect><rect x="546" y="200" width="6" height="0" stroke="black" stroke-width="1" fill="blue" tooltip="enable"><title>(23.2648,0)</title></rect><rect x="552" y="199.993" width="6" height="0.00691276" stroke="black" stroke-width="1" fill="blue" tooltip="enable"><title>(23.5205,2)</title></rect><rect x="558" y="200" width="6" height="0" stroke="black" stroke-width="1" fill="blue" tooltip="enable"><title>(23.7762,0)</title></rect><rect x="564" y="200" width="6" height="0" stroke="black" stroke-width="1" fill="blue" tooltip="enable"><title>(24.0318,0)</title></rect><rect x="570" y="200" width="6" height="0" stroke="black" stroke-width="1" fill="blue" tooltip="enable"><title>(24.2875,0)</title></rect><rect x="576" y="200" width="6" height="0" stroke="black" stroke-width="1" fill="blue" tooltip="enable"><title>(24.5431,0)</title></rect><rect x="582" y="200" width="6" height="0" stroke="black" stroke-width="1" fill="blue" tooltip="enable"><title>(24.7988,0)</title></rect><rect x="588" y="199.997" width="6" height="0.00345638" stroke="black" stroke-width="1" fill="blue" tooltip="enable"><title>(25.0544,1)</title></rect><rect x="594" y="199.997" width="6" height="0.00345638" stroke="black" stroke-width="1" fill="blue" tooltip="enable"><title>(25.3101,1)</title></rect><text x="30" y="240" font-size="20" fill="black">0</text>
<text x="600" y="240" font-size="20" fill="black">25.5658</text>
<polyline points="0,220,600,220" stroke="black" stroke-width="1" fill="none"/>
<text x="720" y="20" font-size="20" fill="black">57864</text>
<text x="720" y="200" font-size="20" fill="black">0</text>
<polyline points="660,0,660,200" stroke="black" stroke-width="1" fill="none"/>
</svg>