<?xml version="1.0" standalone="yes"?>
<!-- SVG graphic -->
<svg xmlns='http://www.w3.org/2000/svg' xmlns:xlink='http://www.w3.org/1999/xlink'
 version="1.1">
<rect x="0" y="0" width="6" height="200" stroke="black" stroke-width="1" fill="blue" tooltip="enable"><title>(0,21512)</title></rect><rect x="6" y="117.544" width="6" height="82.4563" stroke="black" stroke-width="1" fill="blue" tooltip="enable"><title>(0.680721,8869)</title></rect><rect x="12" y="152.761" width="6" height="47.2388" stroke="black" stroke-width="1" fill="blue" tooltip="enable"><title>(1.36144,5081)</title></rect><rect x="18" y="170.705" width="6" height="29.2953" stroke="black" stroke-width="1" fill="blue" tooltip="enable"><title>(2.04216,3151)</title></rect><rect x="24" y="181.973" width="6" height="18.0271" stroke="black" stroke-width="1" fill="blue" tooltip="enable"><title>(2.72288,1939)</title></rect><rect x="30" y="189.16" width="6" height="10.8405" stroke="black" stroke-width="1" fill="blue" tooltip="enable"><title>(3.4036,1166)</title></rect><rect x="36" y="193.036" width="6" height="6.96355" stroke="black" stroke-width="1" fill="blue" tooltip="enable"><title>(4.08432,749)</title></rect><rect x="42" y="195.156" width="6" height="4.84381" stroke="black" stroke-width="1" fill="blue" tooltip="enable"><title>(4.76504,521)</title></rect><rect x="48" y="196.709" width="6" height="3.29119" stroke="black" stroke-width="1" fill="blue" tooltip="enable"><title>(5.44576,354)</title></rect><rect x="54" y="197.955" width="6" height="2.04537" stroke="black" stroke-width="1" fill="blue" tooltip="enable"><title>(6.12648,220)</title></rect><rect x="60" y="198.308" width="6" height="1.69208" stroke="black" stroke-width="1" fill="blue" tooltip="enable"><title>(6.80721,182)</title></rect><rect x="66" y="198.931" width="6" height="1.06917" stroke="black" stroke-width="1" fill="blue" tooltip="enable"><title>(7.48793,115)</title></rect><rect x="72" y="199.293" width="6" height="0.706582" stroke="black" stroke-width="1" fill="blue" tooltip="enable"><title>(8.16865,76)</title></rect><rect x="78" y="199.526" width="6" height="0.474154" stroke="black" stroke-width="1" fill="blue" tooltip="enable"><title>(8.84937,51)</title></rect><rect x="84" y="199.563" width="6" height="0.436965" stroke="black" stroke-width="1" fill="blue" tooltip="enable"><title>(9.53009,47)</title></rect><rect x="90" y="199.712" width="6" height="0.288211" stroke="black" stroke-width="1" fill="blue" tooltip="enable"><title>(10.2108,31)</title></rect><rect x="96" y="199.851" width="6" height="0.148754" stroke="black" stroke-width="1" fill="blue" tooltip="enable"><title>(10.8915,16)</title></rect><rect x="102" y="199.888" width="6" height="0.111566" stroke="black" stroke-width="1" fill="blue" tooltip="enable"><title>(11.5722,12)</title></rect><rect x="108" y="199.861" width="6" height="0.139457" stroke="black" stroke-width="1" fill="blue" tooltip="enable"><title>(12.253,15)</title></rect><rect x="114" y="199.861" width="6" height="0.139457" stroke="black" stroke-width="1" fill="blue" tooltip="enable"><title>(12.9337,15)</title></rect><rect x="120" y="199.935" width="6" height="0.06508" stroke="black" stroke-width="1" fill="blue" tooltip="enable"><title>(13.6144,7)</title></rect><rect x="126" y="199.926" width="6" height="0.0743771" stroke="black" stroke-width="1" fill="blue" tooltip="enable"><title>(14.2951,8)</title></rect><rect x="132" y="199.944" width="6" height="0.0557828" stroke="black" stroke-width="1" fill="blue" tooltip="enable"><title>(14.9759,6)</title></rect><rect x="138" y="199.972" width="6" height="0.0278914" stroke="black" stroke-width="1" fill="blue" tooltip="enable"><title>(15.6566,3)</title></rect><rect x="144" y="199.963" width="6" height="0.0371885" stroke="black" stroke-width="1" fill="blue" tooltip="enable"><title>(16.3373,4)</title></rect><rect x="150" y="199.944" width="6" height="0.0557828" stroke="black" stroke-width="1" fill="blue" tooltip="enable"><title>(17.018,6)</title></rect><rect x="156" y="199.972" width="6" height="0.0278914" stroke="black" stroke-width="1" fill="blue" tooltip="enable"><title>(17.6987,3)</title></rect><rect x="162" y="199.991" width="6" height="0.00929714" stroke="black" stroke-width="1" fill="blue" tooltip="enable"><title>(18.3795,1)</title></rect><rect x="168" y="199.972" width="6" height="0.0278914" stroke="black" stroke-width="1" fill="blue" tooltip="enable"><title>(19.0602,3)</title></rect><rect x="174" y="199.981" width="6" height="0.0185943" stroke="black" stroke-width="1" fill="blue" tooltip="enable"><title>(19.7409,2)</title></rect><rect x="180" y="199.991" width="6" height="0.00929714" stroke="black" stroke-width="1" fill="blue" tooltip="enable"><title>(20.4216,1)</title></rect><rect x="186" y="199.981" width="6" height="0.0185943" stroke="black" stroke-width="1" fill="blue" tooltip="enable"><title>(21.1023,2)</title></rect><rect x="192" y="199.991" width="6" height="0.00929714" stroke="black" stroke-width="1" fill="blue" tooltip="enable"><title>(21.7831,1)</title></rect><rect x="198" y="199.981" width="6" height="0.0185943" stroke="black" stroke-width="1" fill="blue" tooltip="enable"><title>(22.4638,2)</title></rect><rect x="204" y="200" width="6" height="0" stroke="black" stroke-width="1" fill="blue" tooltip="enable"><title>(23.1445,0)</title></rect><rect x="210" y="199.991" width="6" height="0.00929714" stroke="black" stroke-width="1" fill="blue" tooltip="enable"><title>(23.8252,1)</title></rect><rect x="216" y="199.963" width="6" height="0.0371885" stroke="black" stroke-width="1" fill="blue" tooltip="enable"><title>(24.5059,4)</title></rect><rect x="222" y="199.981" width="6" height="0.0185943" stroke="black" stroke-width="1" fill="blue" tooltip="enable"><title>(25.1867,2)</title></rect><rect x="228" y="200" width="6" height="0" stroke="black" stroke-width="1" fill="blue" tooltip="enable"><title>(25.8674,0)</title></rect><rect x="234" y="199.981" width="6" height="0.0185943" stroke="black" stroke-width="1" fill="blue" tooltip="enable"><title>(26.5481,2)</title></rect><rect x="240" y="199.991" width="6" height="0.00929714" stroke="black" stroke-width="1" fill="blue" tooltip="enable"><title>(27.2288,1)</title></rect><rect x="246" y="200" width="6" height="0" stroke="black" stroke-width="1" fill="blue" tooltip="enable"><title>(27.9095,0)</title></rect><rect x="252" y="199.991" width="6" height="0.00929714" stroke="black" stroke-width="1" fill="blue" tooltip="enable"><title>(28.5903,1)</title></rect><rect x="258" y="199.981" width="6" height="0.0185943" stroke="black" stroke-width="1" fill="blue" tooltip="enable"><title>(29.271,2)</title></rect><rect x="264" y="200" width="6" height="0" stroke="black" stroke-width="1" fill="blue" tooltip="enable"><title>(29.9517,0)</title></rect><rect x="270" y="200" width="6" height="0" stroke="black" stroke-width="1" fill="blue" tooltip="enable"><title>(30.6324,0)</title></rect><rect x="276" y="200" width="6" height="0" stroke="black" stroke-width="1" fill="blue" tooltip="enable"><title>(31.3131,0)</title></rect><rect x="282" y="199.991" width="6" height="0.00929714" stroke="black" stroke-width="1" fill="blue" tooltip="enable"><title>(31.9939,1)</title></rect><rect x="288" y="200" width="6" height="0" stroke="black" stroke-width="1" fill="blue" tooltip="enable"><title>(32.6746,0)</title></rect><rect x="294" y="200" width="6" height="0" stroke="black" stroke-width="1" fill="blue" tooltip="enable"><title>(33.3553,0)</title></rect><rect x="300" y="199.991" width="6" height="0.00929714" stroke="black" stroke-width="1" fill="blue" tooltip="enable"><title>(34.036,1)</title></rect><rect x="306" y="200" width="6" height="0" stroke="black" stroke-width="1" fill="blue" tooltip="enable"><title>(34.7167,0)</title></rect><rect x="312" y="200" width="6" height="0" stroke="black" stroke-width="1" fill="blue" tooltip="enable"><title>(35.3975,0)</title></rect><rect x="318" y="199.991" width="6" height="0.00929714" stroke="black" stroke-width="1" fill="blue" tooltip="enable"><title>(36.0782,1)</title></rect><rect x="324" y="200" width="6" height="0" stroke="black" stroke-width="1" fill="blue" tooltip="enable"><title>(36.7589,0)</title></rect><rect x="330" y="200" width="6" height="0" stroke="black" stroke-width="1" fill="blue" tooltip="enable"><title>(37.4396,0)</title></rect><rect x="336" y="200" width="6" height="0" stroke="black" stroke-width="1" fill="blue" tooltip="enable"><title>(38.1203,0)</title></rect><rect x="342" y="200" width="6" height="0" stroke="black" stroke-width="1" fill="blue" tooltip="enable"><title>(38.8011,0)</title></rect><rect x="348" y="200" width="6" height="0" stroke="black" stroke-width="1" fill="blue" tooltip="enable"><title>(39.4818,0)</title></rect><rect x="354" y="199.991" width="6" height="0.00929714" stroke="black" stroke-width="1" fill="blue" tooltip="enable"><title>(40.1625,1)</title></rect><rect x="360" y="200" width="6" height="0" stroke="black" stroke-width="1" fill="blue" tooltip="enable"><title>(40.8432,0)</title></rect><rect x="366" y="200" width="6" height="0" stroke="black" stroke-width="1" fill="blue" tooltip="enable"><title>(41.524,0)</title></rect><rect x="372" y="200" width="6" height="0" stroke="black" stroke-width="1" fill="blue" tooltip="enable"><title>(42.2047,0)</title></rect><rect x="378" y="200" width="6" height="0" stroke="black" stroke-width="1" fill="blue" tooltip="enable"><title>(42.8854,0)</title></rect><rect x="384" y="200" width="6" height="0" stroke="black" stroke-width="1" fill="blue" tooltip="enable"><title>(43.5661,0)</title></rect><rect x="390" y="199.991" width="6" height="0.00929714" stroke="black" stroke-width="1" fill="blue" tooltip="enable"><title>(44.2468,1)</title></rect><rect x="396" y="200" width="6" height="0" stroke="black" stroke-width="1" fill="blue" tooltip="enable"><title>(44.9276,0)</title></rect><rect x="402" y="200" width="6" height="0" stroke="black" stroke-width="1" fill="blue" tooltip="enable"><title>(45.6083,0)</title></rect><rect x="408" y="200" width="6" height="0" stroke="black" stroke-width="1" fill="blue" tooltip="enable"><title>(46.289,0)</title></rect><rect x="414" y="200" width="6" height="0" stroke="black" stroke-width="1" fill="blue" tooltip="enable"><title>(46.9697,0)</title></rect><rect x="420" y="200" width="6" height="0" stroke="black" stroke-width="1" fill="blue" tooltip="enable"><title>(47.6504,0)</title></rect><rect x="426" y="200" width="6" height="0" stroke="black" stroke-width="1" fill="blue" tooltip="enable"><title>(48.3312,0)</title></rect><rect x="432" y="200" width="6" height="0" stroke="black" stroke-width="1" fill="blue" tooltip="enable"><title>(49.0119,0)</title></rect><rect x="438" y="200" width="6" height="0" stroke="black" stroke-width="1" fill="blue" tooltip="enable"><title>(49.6926,0)</title></rect><rect x="444" y="200" width="6" height="0" stroke="black" stroke-width="1" fill="blue" tooltip="enable"><title>(50.3733,0)</title></rect><rect x="450" y="200" width="6" height="0" stroke="black" stroke-width="1" fill="blue" tooltip="enable"><title>(51.054,0)</title></rect><rect x="456" y="200" width="6" height="0" stroke="black" stroke-width="1" fill="blue" tooltip="enable"><title>(51.7348,0)</title></rect><rect x="462" y="200" width="6" height="0" stroke="black" stroke-width="1" fill="blue" tooltip="enable"><title>(52.4155,0)</title></rect><rect x="468" y="200" width="6" height="0" stroke="black" stroke-width="1" fill="blue" tooltip="enable"><title>(53.0962,0)</title></rect><rect x="474" y="200" width="6" height="0" stroke="black" stroke-width="1" fill="blue" tooltip="enable"><title>(53.7769,0)</title></rect><rect x="480" y="200" width="6" height="0" stroke="black" stroke-width="1" fill="blue" tooltip="enable"><title>(54.4576,0)</title></rect><rect x="486" y="200" width="6" height="0" stroke="black" stroke-width="1" fill="blue" tooltip="enable"><title>(55.1384,0)</title></rect><rect x="492" y="200" width="6" height="0" stroke="black" stroke-width="1" fill="blue" tooltip="enable"><title>(55.8191,0)</title></rect><rect x="498" y="200" width="6" height="0" stroke="black" stroke-width="1" fill="blue" tooltip="enable"><title>(56.4998,0)</title></rect><rect x="504" y="200" width="6" height="0" stroke="black" stroke-width="1" fill="blue" tooltip="enable"><title>(57.1805,0)</title></rect><rect x="510" y="200" width="6" height="0" stroke="black" stroke-width="1" fill="blue" tooltip="enable"><title>(57.8612,0)</title></rect><rect x="516" y="200" width="6" height="0" stroke="black" stroke-width="1" fill="blue" tooltip="enable"><title>(58.542,0)</title></rect><rect x="522" y="200" width="6" height="0" stroke="black" stroke-width="1" fill="blue" tooltip="enable"><title>(59.2227,0)</title></rect><rect x="528" y="200" width="6" height="0" stroke="black" stroke-width="1" fill="blue" tooltip="enable"><title>(59.9034,0)</title></rect><rect x="534" y="200" width="6" height="0" stroke="black" stroke-width="1" fill="blue" tooltip="enable"><title>(60.5841,0)</title></rect><rect x="540" y="200" width="6" height="0" stroke="black" stroke-width="1" fill="blue" tooltip="enable"><title>(61.2648,0)</title></rect><rect x="546" y="200" width="6" height="0" stroke="black" stroke-width="1" fill="blue" tooltip="enable"><title>(61.9456,0)</title></rect><rect x="552" y="200" width="6" height="0" stroke="black" stroke-width="1" fill="blue" tooltip="enable"><title>(62.6263,0)</title></rect><rect x="558" y="200" width="6" height="0" stroke="black" stroke-width="1" fill="blue" tooltip="enable"><title>(63.307,0)</title></rect><rect x="564" y="200" width="6" height="0" stroke="black" stroke-width="1" fill="blue" tooltip="enable"><title>(63.9877,0)</title></rect><rect x="570" y="200" width="6" height="0" stroke="black" stroke-width="1" fill="blue" tooltip="enable"><title>(64.6684,0)</title></rect><rect x="576" y="200" width="6" height="0" stroke="black" stroke-width="1" fill="blue" tooltip="enable"><title>(65.3492,0)</title></rect><rect x="582" y="200" width="6" height="0" stroke="black" stroke-width="1" fill="blue" tooltip="enable"><title>(66.0299,0)</title></rect><rect x="588" y="200" width="6" height="0" stroke="black" stroke-width="1" fill="blue" tooltip="enable"><title>(66.7106,0)</title></rect><rect x="594" y="199.991" width="6" height="0.00929714" stroke="black" stroke-width="1" fill="blue" tooltip="enable"><title>(67.3913,1)</title></rect><text x="30" y="240" font-size="20" fill="black">0</text>
<text x="600" y="240" font-size="20" fill="black">68.0721</text>
<polyline points="0,220,600,220" stroke="black" stroke-width="1" fill="none"/>
<text x="720" y="20" font-size="20" fill="black">21512</text>
<text x="720" y="200" font-size="20" fill="black">0</text>
<polyline points="660,0,660,200" stroke="black" stroke-width="1" fill="none"/>
</svg>