<?xml version="1.0" standalone="yes"?>
<!-- SVG graphic -->
<svg xmlns='http://www.w3.org/2000/svg' xmlns:xlink='http://www.w3.org/1999/xlink'
 version="1.1">
<rect x="0" y="1.52588e-05" width="6" height="200" stroke="black" stroke-width="1" fill="blue" tooltip="enable"><title>(0,172975)</title></rect><rect x="6" y="163.2" width="6" height="36.7995" stroke="black" stroke-width="1" fill="blue" tooltip="enable"><title>(0.20329,31827)</title></rect><rect x="12" y="180.95" width="6" height="19.0501" stroke="black" stroke-width="1" fill="blue" tooltip="enable"><title>(0.406579,16476)</title></rect><rect x="18" y="189.141" width="6" height="10.8594" stroke="black" stroke-width="1" fill="blue" tooltip="enable"><title>(0.609869,9392)</title></rect><rect x="24" y="193.261" width="6" height="6.73855" stroke="black" stroke-width="1" fill="blue" tooltip="enable"><title>(0.813158,5828)</title></rect><rect x="30" y="195.783" width="6" height="4.21679" stroke="black" stroke-width="1" fill="blue" tooltip="enable"><title>(1.01645,3647)</title></rect><rect x="36" y="196.971" width="6" height="3.02934" stroke="black" stroke-width="1" fill="blue" tooltip="enable"><title>(1.21974,2620)</title></rect><rect x="42" y="197.95" width="6" height="2.05001" stroke="black" stroke-width="1" fill="blue" tooltip="enable"><title>(1.42303,1773)</title></rect><rect x="48" y="198.444" width="6" height="1.55629" stroke="black" stroke-width="1" fill="blue" tooltip="enable"><title>(1.62632,1346)</title></rect><rect x="54" y="198.796" width="6" height="1.20364" stroke="black" stroke-width="1" fill="blue" tooltip="enable"><title>(1.82961,1041)</title></rect><rect x="60" y="199.04" width="6" height="0.959676" stroke="black" stroke-width="1" fill="blue" tooltip="enable"><title>(2.0329,830)</title></rect><rect x="66" y="199.292" width="6" height="0.707617" stroke="black" stroke-width="1" fill="blue" tooltip="enable"><title>(2.23619,612)</title></rect><rect x="72" y="199.348" width="6" height="0.652117" stroke="black" stroke-width="1" fill="blue" tooltip="enable"><title>(2.43948,564)</title></rect><rect x="78" y="199.488" width="6" height="0.512213" stroke="black" stroke-width="1" fill="blue" tooltip="enable"><title>(2.64276,443)</title></rect><rect x="84" y="199.568" width="6" height="0.432432" stroke="black" stroke-width="1" fill="blue" tooltip="enable"><title>(2.84605,374)</title></rect><rect x="90" y="199.632" width="6" height="0.367683" stroke="black" stroke-width="1" fill="blue" tooltip="enable"><title>(3.04934,318)</title></rect><rect x="96" y="199.665" width="6" height="0.335309" stroke="black" stroke-width="1" fill="blue" tooltip="enable"><title>(3.25263,290)</title></rect><rect x="102" y="199.702" width="6" height="0.298309" stroke="black" stroke-width="1" fill="blue" tooltip="enable"><title>(3.45592,258)</title></rect><rect x="108" y="199.802" width="6" height="0.197716" stroke="black" stroke-width="1" fill="blue" tooltip="enable"><title>(3.65921,171)</title></rect><rect x="114" y="199.802" width="6" height="0.197716" stroke="black" stroke-width="1" fill="blue" tooltip="enable"><title>(3.8625,171)</title></rect><rect x="120" y="199.828" width="6" height="0.172279" stroke="black" stroke-width="1" fill="blue" tooltip="enable"><title>(4.06579,149)</title></rect><rect x="126" y="199.859" width="6" height="0.141061" stroke="black" stroke-width="1" fill="blue" tooltip="enable"><title>(4.26908,122)</title></rect><rect x="132" y="199.866" width="6" height="0.134123" stroke="black" stroke-width="1" fill="blue" tooltip="enable"><title>(4.47237,116)</title></rect><rect x="138" y="199.908" width="6" height="0.0924989" stroke="black" stroke-width="1" fill="blue" tooltip="enable"><title>(4.67566,80)</title></rect><rect x="144" y="199.913" width="6" height="0.0867177" stroke="black" stroke-width="1" fill="blue" tooltip="enable"><title>(4.87895,75)</title></rect><rect x="150" y="199.925" width="6" height="0.0751554" stroke="black" stroke-width="1" fill="blue" tooltip="enable"><title>(5.08224,65)</title></rect><rect x="156" y="199.934" width="6" height="0.0659055" stroke="black" stroke-width="1" fill="blue" tooltip="enable"><title>(5.28553,57)</title></rect><rect x="162" y="199.94" width="6" height="0.0601243" stroke="black" stroke-width="1" fill="blue" tooltip="enable"><title>(5.48882,52)</title></rect><rect x="168" y="199.957" width="6" height="0.0427807" stroke="black" stroke-width="1" fill="blue" tooltip="enable"><title>(5.69211,37)</title></rect><rect x="174" y="199.954" width="6" height="0.0462495" stroke="black" stroke-width="1" fill="blue" tooltip="enable"><title>(5.8954,40)</title></rect><rect x="180" y="199.963" width="6" height="0.0369996" stroke="black" stroke-width="1" fill="blue" tooltip="enable"><title>(6.09869,32)</title></rect><rect x="186" y="199.942" width="6" height="0.0578118" stroke="black" stroke-width="1" fill="blue" tooltip="enable"><title>(6.30198,50)</title></rect><rect x="192" y="199.97" width="6" height="0.0300621" stroke="black" stroke-width="1" fill="blue" tooltip="enable"><title>(6.50527,26)</title></rect><rect x="198" y="199.972" width="6" height="0.0277497" stroke="black" stroke-width="1" fill="blue" tooltip="enable"><title>(6.70856,24)</title></rect><rect x="204" y="199.978" width="6" height="0.0219685" stroke="black" stroke-width="1" fill="blue" tooltip="enable"><title>(6.91185,19)</title></rect><rect x="210" y="199.977" width="6" height="0.0231247" stroke="black" stroke-width="1" fill="blue" tooltip="enable"><title>(7.11514,20)</title></rect><rect x="216" y="199.986" width="6" height="0.0138748" stroke="black" stroke-width="1" fill="blue" tooltip="enable"><title>(7.31843,12)</title></rect><rect x="222" y="199.991" width="6" height="0.00924989" stroke="black" stroke-width="1" fill="blue" tooltip="enable"><title>(7.52172,8)</title></rect><rect x="228" y="199.98" width="6" height="0.019656" stroke="black" stroke-width="1" fill="blue" tooltip="enable"><title>(7.725,17)</title></rect><rect x="234" y="199.99" width="6" height="0.0104061" stroke="black" stroke-width="1" fill="blue" tooltip="enable"><title>(7.92829,9)</title></rect><rect x="240" y="199.986" width="6" height="0.0138748" stroke="black" stroke-width="1" fill="blue" tooltip="enable"><title>(8.13158,12)</title></rect><rect x="246" y="199.988" width="6" height="0.0115624" stroke="black" stroke-width="1" fill="blue" tooltip="enable"><title>(8.33487,10)</title></rect><rect x="252" y="199.991" width="6" height="0.00924989" stroke="black" stroke-width="1" fill="blue" tooltip="enable"><title>(8.53816,8)</title></rect><rect x="258" y="199.995" width="6" height="0.00462495" stroke="black" stroke-width="1" fill="blue" tooltip="enable"><title>(8.74145,4)</title></rect><rect x="264" y="199.998" width="6" height="0.00231247" stroke="black" stroke-width="1" fill="blue" tooltip="enable"><title>(8.94474,2)</title></rect><rect x="270" y="199.992" width="6" height="0.00809366" stroke="black" stroke-width="1" fill="blue" tooltip="enable"><title>(9.14803,7)</title></rect><rect x="276" y="200" width="6" height="0" stroke="black" stroke-width="1" fill="blue" tooltip="enable"><title>(9.35132,0)</title></rect><rect x="282" y="200" width="6" height="0" stroke="black" stroke-width="1" fill="blue" tooltip="enable"><title>(9.55461,0)</title></rect><rect x="288" y="199.999" width="6" height="0.00115624" stroke="black" stroke-width="1" fill="blue" tooltip="enable"><title>(9.7579,1)</title></rect><rect x="294" y="199.999" width="6" height="0.00115624" stroke="black" stroke-width="1" fill="blue" tooltip="enable"><title>(9.96119,1)</title></rect><rect x="300" y="200" width="6" height="0" stroke="black" stroke-width="1" fill="blue" tooltip="enable"><title>(10.1645,0)</title></rect><rect x="306" y="199.999" width="6" height="0.00115624" stroke="black" stroke-width="1" fill="blue" tooltip="enable"><title>(10.3678,1)</title></rect><rect x="312" y="199.999" width="6" height="0.00115624" stroke="black" stroke-width="1" fill="blue" tooltip="enable"><title>(10.5711,1)</title></rect><rect x="318" y="200" width="6" height="0" stroke="black" stroke-width="1" fill="blue" tooltip="enable"><title>(10.7743,0)</title></rect><rect x="324" y="200" width="6" height="0" stroke="black" stroke-width="1" fill="blue" tooltip="enable"><title>(10.9776,0)</title></rect><rect x="330" y="200" width="6" height="0" stroke="black" stroke-width="1" fill="blue" tooltip="enable"><title>(11.1809,0)</title></rect><rect x="336" y="200" width="6" height="0" stroke="black" stroke-width="1" fill="blue" tooltip="enable"><title>(11.3842,0)</title></rect><rect x="342" y="200" width="6" height="0" stroke="black" stroke-width="1" fill="blue" tooltip="enable"><title>(11.5875,0)</title></rect><rect x="348" y="200" width="6" height="0" stroke="black" stroke-width="1" fill="blue" tooltip="enable"><title>(11.7908,0)</title></rect><rect x="354" y="200" width="6" height="0" stroke="black" stroke-width="1" fill="blue" tooltip="enable"><title>(11.9941,0)</title></rect><rect x="360" y="199.999" width="6" height="0.00115624" stroke="black" stroke-width="1" fill="blue" tooltip="enable"><title>(12.1974,1)</title></rect><rect x="366" y="200" width="6" height="0" stroke="black" stroke-width="1" fill="blue" tooltip="enable"><title>(12.4007,0)</title></rect><rect x="372" y="199.999" width="6" height="0.00115624" stroke="black" stroke-width="1" fill="blue" tooltip="enable"><title>(12.604,1)</title></rect><rect x="378" y="200" width="6" height="0" stroke="black" stroke-width="1" fill="blue" tooltip="enable"><title>(12.8072,0)</title></rect><rect x="384" y="199.999" width="6" height="0.00115624" stroke="black" stroke-width="1" fill="blue" tooltip="enable"><title>(13.0105,1)</title></rect><rect x="390" y="199.999" width="6" height="0.00115624" stroke="black" stroke-width="1" fill="blue" tooltip="enable"><title>(13.2138,1)</title></rect><rect x="396" y="200" width="6" height="0" stroke="black" stroke-width="1" fill="blue" tooltip="enable"><title>(13.4171,0)</title></rect><rect x="402" y="199.998" width="6" height="0.00231247" stroke="black" stroke-width="1" fill="blue" tooltip="enable"><title>(13.6204,2)</title></rect><rect x="408" y="200" width="6" height="0" stroke="black" stroke-width="1" fill="blue" tooltip="enable"><title>(13.8237,0)</title></rect><rect x="414" y="200" width="6" height="0" stroke="black" stroke-width="1" fill="blue" tooltip="enable"><title>(14.027,0)</title></rect><rect x="420" y="200" width="6" height="0" stroke="black" stroke-width="1" fill="blue" tooltip="enable"><title>(14.2303,0)</title></rect><rect x="426" y="200" width="6" height="0" stroke="black" stroke-width="1" fill="blue" tooltip="enable"><title>(14.4336,0)</title></rect><rect x="432" y="200" width="6" height="0" stroke="black" stroke-width="1" fill="blue" tooltip="enable"><title>(14.6369,0)</title></rect><rect x="438" y="199.999" width="6" height="0.00115624" stroke="black" stroke-width="1" fill="blue" tooltip="enable"><title>(14.8401,1)</title></rect><rect x="444" y="199.999" width="6" height="0.00115624" stroke="black" stroke-width="1" fill="blue" tooltip="enable"><title>(15.0434,1)</title></rect><rect x="450" y="200" width="6" height="0" stroke="black" stroke-width="1" fill="blue" tooltip="enable"><title>(15.2467,0)</title></rect><rect x="456" y="200" width="6" height="0" stroke="black" stroke-width="1" fill="blue" tooltip="enable"><title>(15.45,0)</title></rect><rect x="462" y="200" width="6" height="0" stroke="black" stroke-width="1" fill="blue" tooltip="enable"><title>(15.6533,0)</title></rect><rect x="468" y="200" width="6" height="0" stroke="black" stroke-width="1" fill="blue" tooltip="enable"><title>(15.8566,0)</title></rect><rect x="474" y="200" width="6" height="0" stroke="black" stroke-width="1" fill="blue" tooltip="enable"><title>(16.0599,0)</title></rect><rect x="480" y="200" width="6" height="0" stroke="black" stroke-width="1" fill="blue" tooltip="enable"><title>(16.2632,0)</title></rect><rect x="486" y="200" width="6" height="0" stroke="black" stroke-width="1" fill="blue" tooltip="enable"><title>(16.4665,0)</title></rect><rect x="492" y="200" width="6" height="0" stroke="black" stroke-width="1" fill="blue" tooltip="enable"><title>(16.6697,0)</title></rect><rect x="498" y="200" width="6" height="0" stroke="black" stroke-width="1" fill="blue" tooltip="enable"><title>(16.873,0)</title></rect><rect x="504" y="200" width="6" height="0" stroke="black" stroke-width="1" fill="blue" tooltip="enable"><title>(17.0763,0)</title></rect><rect x="510" y="200" width="6" height="0" stroke="black" stroke-width="1" fill="blue" tooltip="enable"><title>(17.2796,0)</title></rect><rect x="516" y="200" width="6" height="0" stroke="black" stroke-width="1" fill="blue" tooltip="enable"><title>(17.4829,0)</title></rect><rect x="522" y="200" width="6" height="0" stroke="black" stroke-width="1" fill="blue" tooltip="enable"><title>(17.6862,0)</title></rect><rect x="528" y="200" width="6" height="0" stroke="black" stroke-width="1" fill="blue" tooltip="enable"><title>(17.8895,0)</title></rect><rect x="534" y="200" width="6" height="0" stroke="black" stroke-width="1" fill="blue" tooltip="enable"><title>(18.0928,0)</title></rect><rect x="540" y="200" width="6" height="0" stroke="black" stroke-width="1" fill="blue" tooltip="enable"><title>(18.2961,0)</title></rect><rect x="546" y="200" width="6" height="0" stroke="black" stroke-width="1" fill="blue" tooltip="enable"><title>(18.4994,0)</title></rect><rect x="552" y="200" width="6" height="0" stroke="black" stroke-width="1" fill="blue" tooltip="enable"><title>(18.7026,0)</title></rect><rect x="558" y="200" width="6" height="0" stroke="black" stroke-width="1" fill="blue" tooltip="enable"><title>(18.9059,0)</title></rect><rect x="564" y="200" width="6" height="0" stroke="black" stroke-width="1" fill="blue" tooltip="enable"><title>(19.1092,0)</title></rect><rect x="570" y="200" width="6" height="0" stroke="black" stroke-width="1" fill="blue" tooltip="enable"><title>(19.3125,0)</title></rect><rect x="576" y="200" width="6" height="0" stroke="black" stroke-width="1" fill="blue" tooltip="enable"><title>(19.5158,0)</title></rect><rect x="582" y="200" width="6" height="0" stroke="black" stroke-width="1" fill="blue" tooltip="enable"><title>(19.7191,0)</title></rect><rect x="588" y="200" width="6" height="0" stroke="black" stroke-width="1" fill="blue" tooltip="enable"><title>(19.9224,0)</title></rect><rect x="594" y="199.999" width="6" height="0.00115624" stroke="black" stroke-width="1" fill="blue" tooltip="enable"><title>(20.1257,1)</title></rect><text x="30" y="240" font-size="20" fill="black">0</text>
<text x="600" y="240" font-size="20" fill="black">20.329</text>
<polyline points="0,220,600,220" stroke="black" stroke-width="1" fill="none"/>
<text x="720" y="20" font-size="20" fill="black">172975</text>
<text x="720" y="200" font-size="20" fill="black">0</text>
<polyline points="660,0,660,200" stroke="black" stroke-width="1" fill="none"/>
</svg>