<?xml version="1.0" standalone="yes"?>
<!-- SVG graphic -->
<svg xmlns='http://www.w3.org/2000/svg' xmlns:xlink='http://www.w3.org/1999/xlink'
 version="1.1">
<rect x="0" y="0" width="6" height="200" stroke="black" stroke-width="1" fill="blue" tooltip="enable"><title>(0,12705)</title></rect><rect x="6" y="100.338" width="6" height="99.6616" stroke="black" stroke-width="1" fill="blue" tooltip="enable"><title>(0.362143,6331)</title></rect><rect x="12" y="133.113" width="6" height="66.8871" stroke="black" stroke-width="1" fill="blue" tooltip="enable"><title>(0.724287,4249)</title></rect><rect x="18" y="151.562" width="6" height="48.4376" stroke="black" stroke-width="1" fill="blue" tooltip="enable"><title>(1.08643,3077)</title></rect><rect x="24" y="166.407" width="6" height="33.5931" stroke="black" stroke-width="1" fill="blue" tooltip="enable"><title>(1.44857,2134)</title></rect><rect x="30" y="174.64" width="6" height="25.3601" stroke="black" stroke-width="1" fill="blue" tooltip="enable"><title>(1.81072,1611)</title></rect><rect x="36" y="181.629" width="6" height="18.3707" stroke="black" stroke-width="1" fill="blue" tooltip="enable"><title>(2.17286,1167)</title></rect><rect x="42" y="184.132" width="6" height="15.8678" stroke="black" stroke-width="1" fill="blue" tooltip="enable"><title>(2.535,1008)</title></rect><rect x="48" y="186.84" width="6" height="13.1602" stroke="black" stroke-width="1" fill="blue" tooltip="enable"><title>(2.89715,836)</title></rect><rect x="54" y="190.051" width="6" height="9.94884" stroke="black" stroke-width="1" fill="blue" tooltip="enable"><title>(3.25929,632)</title></rect><rect x="60" y="192.145" width="6" height="7.85518" stroke="black" stroke-width="1" fill="blue" tooltip="enable"><title>(3.62143,499)</title></rect><rect x="66" y="194.002" width="6" height="5.99764" stroke="black" stroke-width="1" fill="blue" tooltip="enable"><title>(3.98358,381)</title></rect><rect x="72" y="195.293" width="6" height="4.70681" stroke="black" stroke-width="1" fill="blue" tooltip="enable"><title>(4.34572,299)</title></rect><rect x="78" y="196.175" width="6" height="3.82527" stroke="black" stroke-width="1" fill="blue" tooltip="enable"><title>(4.70786,243)</title></rect><rect x="84" y="197.088" width="6" height="2.91224" stroke="black" stroke-width="1" fill="blue" tooltip="enable"><title>(5.07001,185)</title></rect><rect x="90" y="197.607" width="6" height="2.39276" stroke="black" stroke-width="1" fill="blue" tooltip="enable"><title>(5.43215,152)</title></rect><rect x="96" y="198.142" width="6" height="1.85754" stroke="black" stroke-width="1" fill="blue" tooltip="enable"><title>(5.79429,118)</title></rect><rect x="102" y="198.646" width="6" height="1.3538" stroke="black" stroke-width="1" fill="blue" tooltip="enable"><title>(6.15644,86)</title></rect><rect x="108" y="198.646" width="6" height="1.3538" stroke="black" stroke-width="1" fill="blue" tooltip="enable"><title>(6.51858,86)</title></rect><rect x="114" y="198.882" width="6" height="1.11767" stroke="black" stroke-width="1" fill="blue" tooltip="enable"><title>(6.88072,71)</title></rect><rect x="120" y="199.15" width="6" height="0.850059" stroke="black" stroke-width="1" fill="blue" tooltip="enable"><title>(7.24287,54)</title></rect><rect x="126" y="199.166" width="6" height="0.834317" stroke="black" stroke-width="1" fill="blue" tooltip="enable"><title>(7.60501,53)</title></rect><rect x="132" y="199.543" width="6" height="0.456513" stroke="black" stroke-width="1" fill="blue" tooltip="enable"><title>(7.96715,29)</title></rect><rect x="138" y="199.512" width="6" height="0.487997" stroke="black" stroke-width="1" fill="blue" tooltip="enable"><title>(8.3293,31)</title></rect><rect x="144" y="199.764" width="6" height="0.236128" stroke="black" stroke-width="1" fill="blue" tooltip="enable"><title>(8.69144,15)</title></rect><rect x="150" y="199.669" width="6" height="0.330579" stroke="black" stroke-width="1" fill="blue" tooltip="enable"><title>(9.05358,21)</title></rect><rect x="156" y="199.795" width="6" height="0.204644" stroke="black" stroke-width="1" fill="blue" tooltip="enable"><title>(9.41573,13)</title></rect><rect x="162" y="199.78" width="6" height="0.220386" stroke="black" stroke-width="1" fill="blue" tooltip="enable"><title>(9.77787,14)</title></rect><rect x="168" y="199.732" width="6" height="0.267611" stroke="black" stroke-width="1" fill="blue" tooltip="enable"><title>(10.14,17)</title></rect><rect x="174" y="199.843" width="6" height="0.157418" stroke="black" stroke-width="1" fill="blue" tooltip="enable"><title>(10.5022,10)</title></rect><rect x="180" y="199.906" width="6" height="0.094451" stroke="black" stroke-width="1" fill="blue" tooltip="enable"><title>(10.8643,6)</title></rect><rect x="186" y="199.811" width="6" height="0.188902" stroke="black" stroke-width="1" fill="blue" tooltip="enable"><title>(11.2264,12)</title></rect><rect x="192" y="199.89" width="6" height="0.110193" stroke="black" stroke-width="1" fill="blue" tooltip="enable"><title>(11.5886,7)</title></rect><rect x="198" y="199.906" width="6" height="0.094451" stroke="black" stroke-width="1" fill="blue" tooltip="enable"><title>(11.9507,6)</title></rect><rect x="204" y="199.969" width="6" height="0.0314837" stroke="black" stroke-width="1" fill="blue" tooltip="enable"><title>(12.3129,2)</title></rect><rect x="210" y="199.953" width="6" height="0.0472255" stroke="black" stroke-width="1" fill="blue" tooltip="enable"><title>(12.675,3)</title></rect><rect x="216" y="199.969" width="6" height="0.0314837" stroke="black" stroke-width="1" fill="blue" tooltip="enable"><title>(13.0372,2)</title></rect><rect x="222" y="199.969" width="6" height="0.0314837" stroke="black" stroke-width="1" fill="blue" tooltip="enable"><title>(13.3993,2)</title></rect><rect x="228" y="199.969" width="6" height="0.0314837" stroke="black" stroke-width="1" fill="blue" tooltip="enable"><title>(13.7614,2)</title></rect><rect x="234" y="199.969" width="6" height="0.0314837" stroke="black" stroke-width="1" fill="blue" tooltip="enable"><title>(14.1236,2)</title></rect><rect x="240" y="199.969" width="6" height="0.0314837" stroke="black" stroke-width="1" fill="blue" tooltip="enable"><title>(14.4857,2)</title></rect><rect x="246" y="199.984" width="6" height="0.0157418" stroke="black" stroke-width="1" fill="blue" tooltip="enable"><title>(14.8479,1)</title></rect><rect x="252" y="200" width="6" height="0" stroke="black" stroke-width="1" fill="blue" tooltip="enable"><title>(15.21,0)</title></rect><rect x="258" y="199.953" width="6" height="0.0472255" stroke="black" stroke-width="1" fill="blue" tooltip="enable"><title>(15.5722,3)</title></rect><rect x="264" y="199.984" width="6" height="0.0157418" stroke="black" stroke-width="1" fill="blue" tooltip="enable"><title>(15.9343,1)</title></rect><rect x="270" y="199.969" width="6" height="0.0314837" stroke="black" stroke-width="1" fill="blue" tooltip="enable"><title>(16.2965,2)</title></rect><rect x="276" y="199.984" width="6" height="0.0157418" stroke="black" stroke-width="1" fill="blue" tooltip="enable"><title>(16.6586,1)</title></rect><rect x="282" y="199.969" width="6" height="0.0314837" stroke="black" stroke-width="1" fill="blue" tooltip="enable"><title>(17.0207,2)</title></rect><rect x="288" y="199.969" width="6" height="0.0314837" stroke="black" stroke-width="1" fill="blue" tooltip="enable"><title>(17.3829,2)</title></rect><rect x="294" y="199.984" width="6" height="0.0157418" stroke="black" stroke-width="1" fill="blue" tooltip="enable"><title>(17.745,1)</title></rect><rect x="300" y="199.969" width="6" height="0.0314837" stroke="black" stroke-width="1" fill="blue" tooltip="enable"><title>(18.1072,2)</title></rect><rect x="306" y="199.984" width="6" height="0.0157418" stroke="black" stroke-width="1" fill="blue" tooltip="enable"><title>(18.4693,1)</title></rect><rect x="312" y="200" width="6" height="0" stroke="black" stroke-width="1" fill="blue" tooltip="enable"><title>(18.8315,0)</title></rect><rect x="318" y="199.984" width="6" height="0.0157418" stroke="black" stroke-width="1" fill="blue" tooltip="enable"><title>(19.1936,1)</title></rect><rect x="324" y="200" width="6" height="0" stroke="black" stroke-width="1" fill="blue" tooltip="enable"><title>(19.5557,0)</title></rect><rect x="330" y="199.969" width="6" height="0.0314837" stroke="black" stroke-width="1" fill="blue" tooltip="enable"><title>(19.9179,2)</title></rect><rect x="336" y="200" width="6" height="0" stroke="black" stroke-width="1" fill="blue" tooltip="enable"><title>(20.28,0)</title></rect><rect x="342" y="199.969" width="6" height="0.0314837" stroke="black" stroke-width="1" fill="blue" tooltip="enable"><title>(20.6422,2)</title></rect><rect x="348" y="200" width="6" height="0" stroke="black" stroke-width="1" fill="blue" tooltip="enable"><title>(21.0043,0)</title></rect><rect x="354" y="200" width="6" height="0" stroke="black" stroke-width="1" fill="blue" tooltip="enable"><title>(21.3665,0)</title></rect><rect x="360" y="200" width="6" height="0" stroke="black" stroke-width="1" fill="blue" tooltip="enable"><title>(21.7286,0)</title></rect><rect x="366" y="199.984" width="6" height="0.0157418" stroke="black" stroke-width="1" fill="blue" tooltip="enable"><title>(22.0907,1)</title></rect><rect x="372" y="199.984" width="6" height="0.0157418" stroke="black" stroke-width="1" fill="blue" tooltip="enable"><title>(22.4529,1)</title></rect><rect x="378" y="200" width="6" height="0" stroke="black" stroke-width="1" fill="blue" tooltip="enable"><title>(22.815,0)</title></rect><rect x="384" y="200" width="6" height="0" stroke="black" stroke-width="1" fill="blue" tooltip="enable"><title>(23.1772,0)</title></rect><rect x="390" y="200" width="6" height="0" stroke="black" stroke-width="1" fill="blue" tooltip="enable"><title>(23.5393,0)</title></rect><rect x="396" y="200" width="6" height="0" stroke="black" stroke-width="1" fill="blue" tooltip="enable"><title>(23.9015,0)</title></rect><rect x="402" y="200" width="6" height="0" stroke="black" stroke-width="1" fill="blue" tooltip="enable"><title>(24.2636,0)</title></rect><rect x="408" y="200" width="6" height="0" stroke="black" stroke-width="1" fill="blue" tooltip="enable"><title>(24.6257,0)</title></rect><rect x="414" y="200" width="6" height="0" stroke="black" stroke-width="1" fill="blue" tooltip="enable"><title>(24.9879,0)</title></rect><rect x="420" y="199.969" width="6" height="0.0314837" stroke="black" stroke-width="1" fill="blue" tooltip="enable"><title>(25.35,2)</title></rect><rect x="426" y="200" width="6" height="0" stroke="black" stroke-width="1" fill="blue" tooltip="enable"><title>(25.7122,0)</title></rect><rect x="432" y="200" width="6" height="0" stroke="black" stroke-width="1" fill="blue" tooltip="enable"><title>(26.0743,0)</title></rect><rect x="438" y="200" width="6" height="0" stroke="black" stroke-width="1" fill="blue" tooltip="enable"><title>(26.4365,0)</title></rect><rect x="444" y="200" width="6" height="0" stroke="black" stroke-width="1" fill="blue" tooltip="enable"><title>(26.7986,0)</title></rect><rect x="450" y="200" width="6" height="0" stroke="black" stroke-width="1" fill="blue" tooltip="enable"><title>(27.1608,0)</title></rect><rect x="456" y="200" width="6" height="0" stroke="black" stroke-width="1" fill="blue" tooltip="enable"><title>(27.5229,0)</title></rect><rect x="462" y="200" width="6" height="0" stroke="black" stroke-width="1" fill="blue" tooltip="enable"><title>(27.885,0)</title></rect><rect x="468" y="200" width="6" height="0" stroke="black" stroke-width="1" fill="blue" tooltip="enable"><title>(28.2472,0)</title></rect><rect x="474" y="200" width="6" height="0" stroke="black" stroke-width="1" fill="blue" tooltip="enable"><title>(28.6093,0)</title></rect><rect x="480" y="200" width="6" height="0" stroke="black" stroke-width="1" fill="blue" tooltip="enable"><title>(28.9715,0)</title></rect><rect x="486" y="200" width="6" height="0" stroke="black" stroke-width="1" fill="blue" tooltip="enable"><title>(29.3336,0)</title></rect><rect x="492" y="200" width="6" height="0" stroke="black" stroke-width="1" fill="blue" tooltip="enable"><title>(29.6958,0)</title></rect><rect x="498" y="200" width="6" height="0" stroke="black" stroke-width="1" fill="blue" tooltip="enable"><title>(30.0579,0)</title></rect><rect x="504" y="200" width="6" height="0" stroke="black" stroke-width="1" fill="blue" tooltip="enable"><title>(30.42,0)</title></rect><rect x="510" y="200" width="6" height="0" stroke="black" stroke-width="1" fill="blue" tooltip="enable"><title>(30.7822,0)</title></rect><rect x="516" y="200" width="6" height="0" stroke="black" stroke-width="1" fill="blue" tooltip="enable"><title>(31.1443,0)</title></rect><rect x="522" y="200" width="6" height="0" stroke="black" stroke-width="1" fill="blue" tooltip="enable"><title>(31.5065,0)</title></rect><rect x="528" y="199.984" width="6" height="0.0157418" stroke="black" stroke-width="1" fill="blue" tooltip="enable"><title>(31.8686,1)</title></rect><rect x="534" y="200" width="6" height="0" stroke="black" stroke-width="1" fill="blue" tooltip="enable"><title>(32.2308,0)</title></rect><rect x="540" y="200" width="6" height="0" stroke="black" stroke-width="1" fill="blue" tooltip="enable"><title>(32.5929,0)</title></rect><rect x="546" y="200" width="6" height="0" stroke="black" stroke-width="1" fill="blue" tooltip="enable"><title>(32.955,0)</title></rect><rect x="552" y="200" width="6" height="0" stroke="black" stroke-width="1" fill="blue" tooltip="enable"><title>(33.3172,0)</title></rect><rect x="558" y="200" width="6" height="0" stroke="black" stroke-width="1" fill="blue" tooltip="enable"><title>(33.6793,0)</title></rect><rect x="564" y="200" width="6" height="0" stroke="black" stroke-width="1" fill="blue" tooltip="enable"><title>(34.0415,0)</title></rect><rect x="570" y="200" width="6" height="0" stroke="black" stroke-width="1" fill="blue" tooltip="enable"><title>(34.4036,0)</title></rect><rect x="576" y="200" width="6" height="0" stroke="black" stroke-width="1" fill="blue" tooltip="enable"><title>(34.7658,0)</title></rect><rect x="582" y="200" width="6" height="0" stroke="black" stroke-width="1" fill="blue" tooltip="enable"><title>(35.1279,0)</title></rect><rect x="588" y="200" width="6" height="0" stroke="black" stroke-width="1" fill="blue" tooltip="enable"><title>(35.4901,0)</title></rect><rect x="594" y="199.984" width="6" height="0.0157418" stroke="black" stroke-width="1" fill="blue" tooltip="enable"><title>(35.8522,1)</title></rect><text x="30" y="240" font-size="20" fill="black">0</text>
<text x="600" y="240" font-size="20" fill="black">36.2143</text>
<polyline points="0,220,600,220" stroke="black" stroke-width="1" fill="none"/>
<text x="720" y="20" font-size="20" fill="black">12705</text>
<text x="720" y="200" font-size="20" fill="black">0</text>
<polyline points="660,0,660,200" stroke="black" stroke-width="1" fill="none"/>
</svg>