<?xml version="1.0" standalone="yes"?>
<!-- SVG graphic -->
<svg xmlns='http://www.w3.org/2000/svg' xmlns:xlink='http://www.w3.org/1999/xlink'
 version="1.1">
<rect x="0" y="0" width="6" height="200" stroke="black" stroke-width="1" fill="blue" tooltip="enable"><title>(0,14609)</title></rect><rect x="6" y="102.485" width="6" height="97.5152" stroke="black" stroke-width="1" fill="blue" tooltip="enable"><title>(0.623372,7123)</title></rect><rect x="12" y="139.051" width="6" height="60.9487" stroke="black" stroke-width="1" fill="blue" tooltip="enable"><title>(1.24674,4452)</title></rect><rect x="18" y="161.27" width="6" height="38.7295" stroke="black" stroke-width="1" fill="blue" tooltip="enable"><title>(1.87012,2829)</title></rect><rect x="24" y="174.878" width="6" height="25.1215" stroke="black" stroke-width="1" fill="blue" tooltip="enable"><title>(2.49349,1835)</title></rect><rect x="30" y="184.612" width="6" height="15.3878" stroke="black" stroke-width="1" fill="blue" tooltip="enable"><title>(3.11686,1124)</title></rect><rect x="36" y="191.115" width="6" height="8.88493" stroke="black" stroke-width="1" fill="blue" tooltip="enable"><title>(3.74023,649)</title></rect><rect x="42" y="194.017" width="6" height="5.98261" stroke="black" stroke-width="1" fill="blue" tooltip="enable"><title>(4.3636,437)</title></rect><rect x="48" y="195.852" width="6" height="4.14813" stroke="black" stroke-width="1" fill="blue" tooltip="enable"><title>(4.98698,303)</title></rect><rect x="54" y="197.098" width="6" height="2.90232" stroke="black" stroke-width="1" fill="blue" tooltip="enable"><title>(5.61035,212)</title></rect><rect x="60" y="198.111" width="6" height="1.88925" stroke="black" stroke-width="1" fill="blue" tooltip="enable"><title>(6.23372,138)</title></rect><rect x="66" y="198.946" width="6" height="1.05414" stroke="black" stroke-width="1" fill="blue" tooltip="enable"><title>(6.85709,77)</title></rect><rect x="72" y="199.096" width="6" height="0.903553" stroke="black" stroke-width="1" fill="blue" tooltip="enable"><title>(7.48046,66)</title></rect><rect x="78" y="199.411" width="6" height="0.588678" stroke="black" stroke-width="1" fill="blue" tooltip="enable"><title>(8.10384,43)</title></rect><rect x="84" y="199.493" width="6" height="0.506537" stroke="black" stroke-width="1" fill="blue" tooltip="enable"><title>(8.72721,37)</title></rect><rect x="90" y="199.699" width="6" height="0.301184" stroke="black" stroke-width="1" fill="blue" tooltip="enable"><title>(9.35058,22)</title></rect><rect x="96" y="199.713" width="6" height="0.287494" stroke="black" stroke-width="1" fill="blue" tooltip="enable"><title>(9.97395,21)</title></rect><rect x="102" y="199.849" width="6" height="0.150592" stroke="black" stroke-width="1" fill="blue" tooltip="enable"><title>(10.5973,11)</title></rect><rect x="108" y="199.863" width="6" height="0.136902" stroke="black" stroke-width="1" fill="blue" tooltip="enable"><title>(11.2207,10)</title></rect><rect x="114" y="199.767" width="6" height="0.232733" stroke="black" stroke-width="1" fill="blue" tooltip="enable"><title>(11.8441,17)</title></rect><rect x="120" y="199.877" width="6" height="0.123212" stroke="black" stroke-width="1" fill="blue" tooltip="enable"><title>(12.4674,9)</title></rect><rect x="126" y="199.918" width="6" height="0.0821411" stroke="black" stroke-width="1" fill="blue" tooltip="enable"><title>(13.0908,6)</title></rect><rect x="132" y="199.904" width="6" height="0.0958313" stroke="black" stroke-width="1" fill="blue" tooltip="enable"><title>(13.7142,7)</title></rect><rect x="138" y="199.986" width="6" height="0.0136902" stroke="black" stroke-width="1" fill="blue" tooltip="enable"><title>(14.3376,1)</title></rect><rect x="144" y="199.918" width="6" height="0.0821411" stroke="black" stroke-width="1" fill="blue" tooltip="enable"><title>(14.9609,6)</title></rect><rect x="150" y="199.918" width="6" height="0.0821411" stroke="black" stroke-width="1" fill="blue" tooltip="enable"><title>(15.5843,6)</title></rect><rect x="156" y="199.986" width="6" height="0.0136902" stroke="black" stroke-width="1" fill="blue" tooltip="enable"><title>(16.2077,1)</title></rect><rect x="162" y="199.986" width="6" height="0.0136902" stroke="black" stroke-width="1" fill="blue" tooltip="enable"><title>(16.831,1)</title></rect><rect x="168" y="199.986" width="6" height="0.0136902" stroke="black" stroke-width="1" fill="blue" tooltip="enable"><title>(17.4544,1)</title></rect><rect x="174" y="199.932" width="6" height="0.068451" stroke="black" stroke-width="1" fill="blue" tooltip="enable"><title>(18.0778,5)</title></rect><rect x="180" y="199.973" width="6" height="0.0273804" stroke="black" stroke-width="1" fill="blue" tooltip="enable"><title>(18.7012,2)</title></rect><rect x="186" y="199.945" width="6" height="0.0547608" stroke="black" stroke-width="1" fill="blue" tooltip="enable"><title>(19.3245,4)</title></rect><rect x="192" y="199.959" width="6" height="0.0410706" stroke="black" stroke-width="1" fill="blue" tooltip="enable"><title>(19.9479,3)</title></rect><rect x="198" y="200" width="6" height="0" stroke="black" stroke-width="1" fill="blue" tooltip="enable"><title>(20.5713,0)</title></rect><rect x="204" y="199.932" width="6" height="0.068451" stroke="black" stroke-width="1" fill="blue" tooltip="enable"><title>(21.1946,5)</title></rect><rect x="210" y="199.986" width="6" height="0.0136902" stroke="black" stroke-width="1" fill="blue" tooltip="enable"><title>(21.818,1)</title></rect><rect x="216" y="199.973" width="6" height="0.0273804" stroke="black" stroke-width="1" fill="blue" tooltip="enable"><title>(22.4414,2)</title></rect><rect x="222" y="200" width="6" height="0" stroke="black" stroke-width="1" fill="blue" tooltip="enable"><title>(23.0648,0)</title></rect><rect x="228" y="199.973" width="6" height="0.0273804" stroke="black" stroke-width="1" fill="blue" tooltip="enable"><title>(23.6881,2)</title></rect><rect x="234" y="200" width="6" height="0" stroke="black" stroke-width="1" fill="blue" tooltip="enable"><title>(24.3115,0)</title></rect><rect x="240" y="200" width="6" height="0" stroke="black" stroke-width="1" fill="blue" tooltip="enable"><title>(24.9349,0)</title></rect><rect x="246" y="199.973" width="6" height="0.0273804" stroke="black" stroke-width="1" fill="blue" tooltip="enable"><title>(25.5583,2)</title></rect><rect x="252" y="200" width="6" height="0" stroke="black" stroke-width="1" fill="blue" tooltip="enable"><title>(26.1816,0)</title></rect><rect x="258" y="199.986" width="6" height="0.0136902" stroke="black" stroke-width="1" fill="blue" tooltip="enable"><title>(26.805,1)</title></rect><rect x="264" y="200" width="6" height="0" stroke="black" stroke-width="1" fill="blue" tooltip="enable"><title>(27.4284,0)</title></rect><rect x="270" y="199.973" width="6" height="0.0273804" stroke="black" stroke-width="1" fill="blue" tooltip="enable"><title>(28.0517,2)</title></rect><rect x="276" y="200" width="6" height="0" stroke="black" stroke-width="1" fill="blue" tooltip="enable"><title>(28.6751,0)</title></rect><rect x="282" y="199.973" width="6" height="0.0273804" stroke="black" stroke-width="1" fill="blue" tooltip="enable"><title>(29.2985,2)</title></rect><rect x="288" y="200" width="6" height="0" stroke="black" stroke-width="1" fill="blue" tooltip="enable"><title>(29.9219,0)</title></rect><rect x="294" y="200" width="6" height="0" stroke="black" stroke-width="1" fill="blue" tooltip="enable"><title>(30.5452,0)</title></rect><rect x="300" y="200" width="6" height="0" stroke="black" stroke-width="1" fill="blue" tooltip="enable"><title>(31.1686,0)</title></rect><rect x="306" y="200" width="6" height="0" stroke="black" stroke-width="1" fill="blue" tooltip="enable"><title>(31.792,0)</title></rect><rect x="312" y="199.986" width="6" height="0.0136902" stroke="black" stroke-width="1" fill="blue" tooltip="enable"><title>(32.4153,1)</title></rect><rect x="318" y="199.986" width="6" height="0.0136902" stroke="black" stroke-width="1" fill="blue" tooltip="enable"><title>(33.0387,1)</title></rect><rect x="324" y="200" width="6" height="0" stroke="black" stroke-width="1" fill="blue" tooltip="enable"><title>(33.6621,0)</title></rect><rect x="330" y="200" width="6" height="0" stroke="black" stroke-width="1" fill="blue" tooltip="enable"><title>(34.2855,0)</title></rect><rect x="336" y="200" width="6" height="0" stroke="black" stroke-width="1" fill="blue" tooltip="enable"><title>(34.9088,0)</title></rect><rect x="342" y="200" width="6" height="0" stroke="black" stroke-width="1" fill="blue" tooltip="enable"><title>(35.5322,0)</title></rect><rect x="348" y="200" width="6" height="0" stroke="black" stroke-width="1" fill="blue" tooltip="enable"><title>(36.1556,0)</title></rect><rect x="354" y="199.986" width="6" height="0.0136902" stroke="black" stroke-width="1" fill="blue" tooltip="enable"><title>(36.7789,1)</title></rect><rect x="360" y="199.986" width="6" height="0.0136902" stroke="black" stroke-width="1" fill="blue" tooltip="enable"><title>(37.4023,1)</title></rect><rect x="366" y="200" width="6" height="0" stroke="black" stroke-width="1" fill="blue" tooltip="enable"><title>(38.0257,0)</title></rect><rect x="372" y="200" width="6" height="0" stroke="black" stroke-width="1" fill="blue" tooltip="enable"><title>(38.6491,0)</title></rect><rect x="378" y="199.986" width="6" height="0.0136902" stroke="black" stroke-width="1" fill="blue" tooltip="enable"><title>(39.2724,1)</title></rect><rect x="384" y="200" width="6" height="0" stroke="black" stroke-width="1" fill="blue" tooltip="enable"><title>(39.8958,0)</title></rect><rect x="390" y="199.986" width="6" height="0.0136902" stroke="black" stroke-width="1" fill="blue" tooltip="enable"><title>(40.5192,1)</title></rect><rect x="396" y="200" width="6" height="0" stroke="black" stroke-width="1" fill="blue" tooltip="enable"><title>(41.1426,0)</title></rect><rect x="402" y="200" width="6" height="0" stroke="black" stroke-width="1" fill="blue" tooltip="enable"><title>(41.7659,0)</title></rect><rect x="408" y="200" width="6" height="0" stroke="black" stroke-width="1" fill="blue" tooltip="enable"><title>(42.3893,0)</title></rect><rect x="414" y="200" width="6" height="0" stroke="black" stroke-width="1" fill="blue" tooltip="enable"><title>(43.0127,0)</title></rect><rect x="420" y="200" width="6" height="0" stroke="black" stroke-width="1" fill="blue" tooltip="enable"><title>(43.636,0)</title></rect><rect x="426" y="200" width="6" height="0" stroke="black" stroke-width="1" fill="blue" tooltip="enable"><title>(44.2594,0)</title></rect><rect x="432" y="200" width="6" height="0" stroke="black" stroke-width="1" fill="blue" tooltip="enable"><title>(44.8828,0)</title></rect><rect x="438" y="200" width="6" height="0" stroke="black" stroke-width="1" fill="blue" tooltip="enable"><title>(45.5062,0)</title></rect><rect x="444" y="200" width="6" height="0" stroke="black" stroke-width="1" fill="blue" tooltip="enable"><title>(46.1295,0)</title></rect><rect x="450" y="200" width="6" height="0" stroke="black" stroke-width="1" fill="blue" tooltip="enable"><title>(46.7529,0)</title></rect><rect x="456" y="200" width="6" height="0" stroke="black" stroke-width="1" fill="blue" tooltip="enable"><title>(47.3763,0)</title></rect><rect x="462" y="200" width="6" height="0" stroke="black" stroke-width="1" fill="blue" tooltip="enable"><title>(47.9996,0)</title></rect><rect x="468" y="200" width="6" height="0" stroke="black" stroke-width="1" fill="blue" tooltip="enable"><title>(48.623,0)</title></rect><rect x="474" y="200" width="6" height="0" stroke="black" stroke-width="1" fill="blue" tooltip="enable"><title>(49.2464,0)</title></rect><rect x="480" y="200" width="6" height="0" stroke="black" stroke-width="1" fill="blue" tooltip="enable"><title>(49.8698,0)</title></rect><rect x="486" y="200" width="6" height="0" stroke="black" stroke-width="1" fill="blue" tooltip="enable"><title>(50.4931,0)</title></rect><rect x="492" y="200" width="6" height="0" stroke="black" stroke-width="1" fill="blue" tooltip="enable"><title>(51.1165,0)</title></rect><rect x="498" y="200" width="6" height="0" stroke="black" stroke-width="1" fill="blue" tooltip="enable"><title>(51.7399,0)</title></rect><rect x="504" y="200" width="6" height="0" stroke="black" stroke-width="1" fill="blue" tooltip="enable"><title>(52.3633,0)</title></rect><rect x="510" y="200" width="6" height="0" stroke="black" stroke-width="1" fill="blue" tooltip="enable"><title>(52.9866,0)</title></rect><rect x="516" y="200" width="6" height="0" stroke="black" stroke-width="1" fill="blue" tooltip="enable"><title>(53.61,0)</title></rect><rect x="522" y="200" width="6" height="0" stroke="black" stroke-width="1" fill="blue" tooltip="enable"><title>(54.2334,0)</title></rect><rect x="528" y="200" width="6" height="0" stroke="black" stroke-width="1" fill="blue" tooltip="enable"><title>(54.8567,0)</title></rect><rect x="534" y="200" width="6" height="0" stroke="black" stroke-width="1" fill="blue" tooltip="enable"><title>(55.4801,0)</title></rect><rect x="540" y="200" width="6" height="0" stroke="black" stroke-width="1" fill="blue" tooltip="enable"><title>(56.1035,0)</title></rect><rect x="546" y="200" width="6" height="0" stroke="black" stroke-width="1" fill="blue" tooltip="enable"><title>(56.7269,0)</title></rect><rect x="552" y="200" width="6" height="0" stroke="black" stroke-width="1" fill="blue" tooltip="enable"><title>(57.3502,0)</title></rect><rect x="558" y="200" width="6" height="0" stroke="black" stroke-width="1" fill="blue" tooltip="enable"><title>(57.9736,0)</title></rect><rect x="564" y="200" width="6" height="0" stroke="black" stroke-width="1" fill="blue" tooltip="enable"><title>(58.597,0)</title></rect><rect x="570" y="199.986" width="6" height="0.0136902" stroke="black" stroke-width="1" fill="blue" tooltip="enable"><title>(59.2203,1)</title></rect><rect x="576" y="200" width="6" height="0" stroke="black" stroke-width="1" fill="blue" tooltip="enable"><title>(59.8437,0)</title></rect><rect x="582" y="200" width="6" height="0" stroke="black" stroke-width="1" fill="blue" tooltip="enable"><title>(60.4671,0)</title></rect><rect x="588" y="200" width="6" height="0" stroke="black" stroke-width="1" fill="blue" tooltip="enable"><title>(61.0905,0)</title></rect><rect x="594" y="199.986" width="6" height="0.0136902" stroke="black" stroke-width="1" fill="blue" tooltip="enable"><title>(61.7138,1)</title></rect><text x="30" y="240" font-size="20" fill="black">0</text>
<text x="600" y="240" font-size="20" fill="black">62.3372</text>
<polyline points="0,220,600,220" stroke="black" stroke-width="1" fill="none"/>
<text x="720" y="20" font-size="20" fill="black">14609</text>
<text x="720" y="200" font-size="20" fill="black">0</text>
<polyline points="660,0,660,200" stroke="black" stroke-width="1" fill="none"/>
</svg>