<?xml version="1.0" standalone="yes"?>
<!-- SVG graphic -->
<svg xmlns='http://www.w3.org/2000/svg' xmlns:xlink='http://www.w3.org/1999/xlink'
 version="1.1">
<rect x="0" y="0" width="6" height="200" stroke="black" stroke-width="1" fill="blue" tooltip="enable"><title>(0,76)</title></rect><rect x="6" y="134.211" width="6" height="65.7895" stroke="black" stroke-width="1" fill="blue" tooltip="enable"><title>(0.0614815,25)</title></rect><rect x="12" y="165.789" width="6" height="34.2105" stroke="black" stroke-width="1" fill="blue" tooltip="enable"><title>(0.122963,13)</title></rect><rect x="18" y="155.263" width="6" height="44.7368" stroke="black" stroke-width="1" fill="blue" tooltip="enable"><title>(0.184444,17)</title></rect><rect x="24" y="160.526" width="6" height="39.4737" stroke="black" stroke-width="1" fill="blue" tooltip="enable"><title>(0.245926,15)</title></rect><rect x="30" y="186.842" width="6" height="13.1579" stroke="black" stroke-width="1" fill="blue" tooltip="enable"><title>(0.307407,5)</title></rect><rect x="36" y="189.474" width="6" height="10.5263" stroke="black" stroke-width="1" fill="blue" tooltip="enable"><title>(0.368889,4)</title></rect><rect x="42" y="181.579" width="6" height="18.4211" stroke="black" stroke-width="1" fill="blue" tooltip="enable"><title>(0.43037,7)</title></rect><rect x="48" y="189.474" width="6" height="10.5263" stroke="black" stroke-width="1" fill="blue" tooltip="enable"><title>(0.491852,4)</title></rect><rect x="54" y="181.579" width="6" height="18.4211" stroke="black" stroke-width="1" fill="blue" tooltip="enable"><title>(0.553333,7)</title></rect><rect x="60" y="200" width="6" height="0" stroke="black" stroke-width="1" fill="blue" tooltip="enable"><title>(0.614815,0)</title></rect><rect x="66" y="176.316" width="6" height="23.6842" stroke="black" stroke-width="1" fill="blue" tooltip="enable"><title>(0.676296,9)</title></rect><rect x="72" y="184.211" width="6" height="15.7895" stroke="black" stroke-width="1" fill="blue" tooltip="enable"><title>(0.737778,6)</title></rect><rect x="78" y="184.211" width="6" height="15.7895" stroke="black" stroke-width="1" fill="blue" tooltip="enable"><title>(0.799259,6)</title></rect><rect x="84" y="200" width="6" height="0" stroke="black" stroke-width="1" fill="blue" tooltip="enable"><title>(0.860741,0)</title></rect><rect x="90" y="189.474" width="6" height="10.5263" stroke="black" stroke-width="1" fill="blue" tooltip="enable"><title>(0.922222,4)</title></rect><rect x="96" y="194.737" width="6" height="5.26316" stroke="black" stroke-width="1" fill="blue" tooltip="enable"><title>(0.983704,2)</title></rect><rect x="102" y="189.474" width="6" height="10.5263" stroke="black" stroke-width="1" fill="blue" tooltip="enable"><title>(1.04519,4)</title></rect><rect x="108" y="168.421" width="6" height="31.5789" stroke="black" stroke-width="1" fill="blue" tooltip="enable"><title>(1.10667,12)</title></rect><rect x="114" y="192.105" width="6" height="7.89474" stroke="black" stroke-width="1" fill="blue" tooltip="enable"><title>(1.16815,3)</title></rect><rect x="120" y="184.211" width="6" height="15.7895" stroke="black" stroke-width="1" fill="blue" tooltip="enable"><title>(1.22963,6)</title></rect><rect x="126" y="192.105" width="6" height="7.89474" stroke="black" stroke-width="1" fill="blue" tooltip="enable"><title>(1.29111,3)</title></rect><rect x="132" y="197.368" width="6" height="2.63158" stroke="black" stroke-width="1" fill="blue" tooltip="enable"><title>(1.35259,1)</title></rect><rect x="138" y="192.105" width="6" height="7.89474" stroke="black" stroke-width="1" fill="blue" tooltip="enable"><title>(1.41407,3)</title></rect><rect x="144" y="200" width="6" height="0" stroke="black" stroke-width="1" fill="blue" tooltip="enable"><title>(1.47556,0)</title></rect><rect x="150" y="200" width="6" height="0" stroke="black" stroke-width="1" fill="blue" tooltip="enable"><title>(1.53704,0)</title></rect><rect x="156" y="194.737" width="6" height="5.26316" stroke="black" stroke-width="1" fill="blue" tooltip="enable"><title>(1.59852,2)</title></rect><rect x="162" y="197.368" width="6" height="2.63158" stroke="black" stroke-width="1" fill="blue" tooltip="enable"><title>(1.66,1)</title></rect><rect x="168" y="186.842" width="6" height="13.1579" stroke="black" stroke-width="1" fill="blue" tooltip="enable"><title>(1.72148,5)</title></rect><rect x="174" y="189.474" width="6" height="10.5263" stroke="black" stroke-width="1" fill="blue" tooltip="enable"><title>(1.78296,4)</title></rect><rect x="180" y="200" width="6" height="0" stroke="black" stroke-width="1" fill="blue" tooltip="enable"><title>(1.84444,0)</title></rect><rect x="186" y="194.737" width="6" height="5.26316" stroke="black" stroke-width="1" fill="blue" tooltip="enable"><title>(1.90593,2)</title></rect><rect x="192" y="192.105" width="6" height="7.89474" stroke="black" stroke-width="1" fill="blue" tooltip="enable"><title>(1.96741,3)</title></rect><rect x="198" y="186.842" width="6" height="13.1579" stroke="black" stroke-width="1" fill="blue" tooltip="enable"><title>(2.02889,5)</title></rect><rect x="204" y="192.105" width="6" height="7.89474" stroke="black" stroke-width="1" fill="blue" tooltip="enable"><title>(2.09037,3)</title></rect><rect x="210" y="194.737" width="6" height="5.26316" stroke="black" stroke-width="1" fill="blue" tooltip="enable"><title>(2.15185,2)</title></rect><rect x="216" y="194.737" width="6" height="5.26316" stroke="black" stroke-width="1" fill="blue" tooltip="enable"><title>(2.21333,2)</title></rect><rect x="222" y="181.579" width="6" height="18.4211" stroke="black" stroke-width="1" fill="blue" tooltip="enable"><title>(2.27482,7)</title></rect><rect x="228" y="194.737" width="6" height="5.26316" stroke="black" stroke-width="1" fill="blue" tooltip="enable"><title>(2.3363,2)</title></rect><rect x="234" y="192.105" width="6" height="7.89474" stroke="black" stroke-width="1" fill="blue" tooltip="enable"><title>(2.39778,3)</title></rect><rect x="240" y="200" width="6" height="0" stroke="black" stroke-width="1" fill="blue" tooltip="enable"><title>(2.45926,0)</title></rect><rect x="246" y="194.737" width="6" height="5.26316" stroke="black" stroke-width="1" fill="blue" tooltip="enable"><title>(2.52074,2)</title></rect><rect x="252" y="200" width="6" height="0" stroke="black" stroke-width="1" fill="blue" tooltip="enable"><title>(2.58222,0)</title></rect><rect x="258" y="200" width="6" height="0" stroke="black" stroke-width="1" fill="blue" tooltip="enable"><title>(2.6437,0)</title></rect><rect x="264" y="194.737" width="6" height="5.26316" stroke="black" stroke-width="1" fill="blue" tooltip="enable"><title>(2.70519,2)</title></rect><rect x="270" y="200" width="6" height="0" stroke="black" stroke-width="1" fill="blue" tooltip="enable"><title>(2.76667,0)</title></rect><rect x="276" y="200" width="6" height="0" stroke="black" stroke-width="1" fill="blue" tooltip="enable"><title>(2.82815,0)</title></rect><rect x="282" y="200" width="6" height="0" stroke="black" stroke-width="1" fill="blue" tooltip="enable"><title>(2.88963,0)</title></rect><rect x="288" y="194.737" width="6" height="5.26316" stroke="black" stroke-width="1" fill="blue" tooltip="enable"><title>(2.95111,2)</title></rect><rect x="294" y="200" width="6" height="0" stroke="black" stroke-width="1" fill="blue" tooltip="enable"><title>(3.01259,0)</title></rect><rect x="300" y="200" width="6" height="0" stroke="black" stroke-width="1" fill="blue" tooltip="enable"><title>(3.07407,0)</title></rect><rect x="306" y="200" width="6" height="0" stroke="black" stroke-width="1" fill="blue" tooltip="enable"><title>(3.13556,0)</title></rect><rect x="312" y="200" width="6" height="0" stroke="black" stroke-width="1" fill="blue" tooltip="enable"><title>(3.19704,0)</title></rect><rect x="318" y="200" width="6" height="0" stroke="black" stroke-width="1" fill="blue" tooltip="enable"><title>(3.25852,0)</title></rect><rect x="324" y="200" width="6" height="0" stroke="black" stroke-width="1" fill="blue" tooltip="enable"><title>(3.32,0)</title></rect><rect x="330" y="197.368" width="6" height="2.63158" stroke="black" stroke-width="1" fill="blue" tooltip="enable"><title>(3.38148,1)</title></rect><rect x="336" y="200" width="6" height="0" stroke="black" stroke-width="1" fill="blue" tooltip="enable"><title>(3.44296,0)</title></rect><rect x="342" y="197.368" width="6" height="2.63158" stroke="black" stroke-width="1" fill="blue" tooltip="enable"><title>(3.50445,1)</title></rect><rect x="348" y="200" width="6" height="0" stroke="black" stroke-width="1" fill="blue" tooltip="enable"><title>(3.56593,0)</title></rect><rect x="354" y="200" width="6" height="0" stroke="black" stroke-width="1" fill="blue" tooltip="enable"><title>(3.62741,0)</title></rect><rect x="360" y="200" width="6" height="0" stroke="black" stroke-width="1" fill="blue" tooltip="enable"><title>(3.68889,0)</title></rect><rect x="366" y="200" width="6" height="0" stroke="black" stroke-width="1" fill="blue" tooltip="enable"><title>(3.75037,0)</title></rect><rect x="372" y="200" width="6" height="0" stroke="black" stroke-width="1" fill="blue" tooltip="enable"><title>(3.81185,0)</title></rect><rect x="378" y="200" width="6" height="0" stroke="black" stroke-width="1" fill="blue" tooltip="enable"><title>(3.87333,0)</title></rect><rect x="384" y="197.368" width="6" height="2.63158" stroke="black" stroke-width="1" fill="blue" tooltip="enable"><title>(3.93482,1)</title></rect><rect x="390" y="200" width="6" height="0" stroke="black" stroke-width="1" fill="blue" tooltip="enable"><title>(3.9963,0)</title></rect><rect x="396" y="197.368" width="6" height="2.63158" stroke="black" stroke-width="1" fill="blue" tooltip="enable"><title>(4.05778,1)</title></rect><rect x="402" y="197.368" width="6" height="2.63158" stroke="black" stroke-width="1" fill="blue" tooltip="enable"><title>(4.11926,1)</title></rect><rect x="408" y="200" width="6" height="0" stroke="black" stroke-width="1" fill="blue" tooltip="enable"><title>(4.18074,0)</title></rect><rect x="414" y="200" width="6" height="0" stroke="black" stroke-width="1" fill="blue" tooltip="enable"><title>(4.24222,0)</title></rect><rect x="420" y="197.368" width="6" height="2.63158" stroke="black" stroke-width="1" fill="blue" tooltip="enable"><title>(4.3037,1)</title></rect><rect x="426" y="194.737" width="6" height="5.26316" stroke="black" stroke-width="1" fill="blue" tooltip="enable"><title>(4.36519,2)</title></rect><rect x="432" y="194.737" width="6" height="5.26316" stroke="black" stroke-width="1" fill="blue" tooltip="enable"><title>(4.42667,2)</title></rect><rect x="438" y="200" width="6" height="0" stroke="black" stroke-width="1" fill="blue" tooltip="enable"><title>(4.48815,0)</title></rect><rect x="444" y="200" width="6" height="0" stroke="black" stroke-width="1" fill="blue" tooltip="enable"><title>(4.54963,0)</title></rect><rect x="450" y="200" width="6" height="0" stroke="black" stroke-width="1" fill="blue" tooltip="enable"><title>(4.61111,0)</title></rect><rect x="456" y="200" width="6" height="0" stroke="black" stroke-width="1" fill="blue" tooltip="enable"><title>(4.67259,0)</title></rect><rect x="462" y="200" width="6" height="0" stroke="black" stroke-width="1" fill="blue" tooltip="enable"><title>(4.73408,0)</title></rect><rect x="468" y="200" width="6" height="0" stroke="black" stroke-width="1" fill="blue" tooltip="enable"><title>(4.79556,0)</title></rect><rect x="474" y="200" width="6" height="0" stroke="black" stroke-width="1" fill="blue" tooltip="enable"><title>(4.85704,0)</title></rect><rect x="480" y="200" width="6" height="0" stroke="black" stroke-width="1" fill="blue" tooltip="enable"><title>(4.91852,0)</title></rect><rect x="486" y="200" width="6" height="0" stroke="black" stroke-width="1" fill="blue" tooltip="enable"><title>(4.98,0)</title></rect><rect x="492" y="200" width="6" height="0" stroke="black" stroke-width="1" fill="blue" tooltip="enable"><title>(5.04148,0)</title></rect><rect x="498" y="197.368" width="6" height="2.63158" stroke="black" stroke-width="1" fill="blue" tooltip="enable"><title>(5.10296,1)</title></rect><rect x="504" y="200" width="6" height="0" stroke="black" stroke-width="1" fill="blue" tooltip="enable"><title>(5.16445,0)</title></rect><rect x="510" y="200" width="6" height="0" stroke="black" stroke-width="1" fill="blue" tooltip="enable"><title>(5.22593,0)</title></rect><rect x="516" y="197.368" width="6" height="2.63158" stroke="black" stroke-width="1" fill="blue" tooltip="enable"><title>(5.28741,1)</title></rect><rect x="522" y="200" width="6" height="0" stroke="black" stroke-width="1" fill="blue" tooltip="enable"><title>(5.34889,0)</title></rect><rect x="528" y="197.368" width="6" height="2.63158" stroke="black" stroke-width="1" fill="blue" tooltip="enable"><title>(5.41037,1)</title></rect><rect x="534" y="200" width="6" height="0" stroke="black" stroke-width="1" fill="blue" tooltip="enable"><title>(5.47185,0)</title></rect><rect x="540" y="200" width="6" height="0" stroke="black" stroke-width="1" fill="blue" tooltip="enable"><title>(5.53333,0)</title></rect><rect x="546" y="200" width="6" height="0" stroke="black" stroke-width="1" fill="blue" tooltip="enable"><title>(5.59482,0)</title></rect><rect x="552" y="200" width="6" height="0" stroke="black" stroke-width="1" fill="blue" tooltip="enable"><title>(5.6563,0)</title></rect><rect x="558" y="197.368" width="6" height="2.63158" stroke="black" stroke-width="1" fill="blue" tooltip="enable"><title>(5.71778,1)</title></rect><rect x="564" y="200" width="6" height="0" stroke="black" stroke-width="1" fill="blue" tooltip="enable"><title>(5.77926,0)</title></rect><rect x="570" y="200" width="6" height="0" stroke="black" stroke-width="1" fill="blue" tooltip="enable"><title>(5.84074,0)</title></rect><rect x="576" y="200" width="6" height="0" stroke="black" stroke-width="1" fill="blue" tooltip="enable"><title>(5.90222,0)</title></rect><rect x="582" y="200" width="6" height="0" stroke="black" stroke-width="1" fill="blue" tooltip="enable"><title>(5.96371,0)</title></rect><rect x="588" y="200" width="6" height="0" stroke="black" stroke-width="1" fill="blue" tooltip="enable"><title>(6.02519,0)</title></rect><rect x="594" y="197.368" width="6" height="2.63158" stroke="black" stroke-width="1" fill="blue" tooltip="enable"><title>(6.08667,1)</title></rect><text x="30" y="240" font-size="20" fill="black">0</text>
<text x="600" y="240" font-size="20" fill="black">6.14815</text>
<polyline points="0,220,600,220" stroke="black" stroke-width="1" fill="none"/>
<text x="720" y="20" font-size="20" fill="black">76</text>
<text x="720" y="200" font-size="20" fill="black">0</text>
<polyline points="660,0,660,200" stroke="black" stroke-width="1" fill="none"/>
</svg>