<?xml version="1.0" standalone="yes"?>
<!-- SVG graphic -->
<svg xmlns='http://www.w3.org/2000/svg' xmlns:xlink='http://www.w3.org/1999/xlink'
 version="1.1">
<rect x="0" y="0" width="6" height="200" stroke="black" stroke-width="1" fill="blue" tooltip="enable"><title>(0,36713)</title></rect><rect x="6" y="103.685" width="6" height="96.3147" stroke="black" stroke-width="1" fill="blue" tooltip="enable"><title>(0.113779,17680)</title></rect><rect x="12" y="140.768" width="6" height="59.2324" stroke="black" stroke-width="1" fill="blue" tooltip="enable"><title>(0.227558,10873)</title></rect><rect x="18" y="162.792" width="6" height="37.2075" stroke="black" stroke-width="1" fill="blue" tooltip="enable"><title>(0.341337,6830)</title></rect><rect x="24" y="175.671" width="6" height="24.3293" stroke="black" stroke-width="1" fill="blue" tooltip="enable"><title>(0.455117,4466)</title></rect><rect x="30" y="183.63" width="6" height="16.3702" stroke="black" stroke-width="1" fill="blue" tooltip="enable"><title>(0.568896,3005)</title></rect><rect x="36" y="188.386" width="6" height="11.6144" stroke="black" stroke-width="1" fill="blue" tooltip="enable"><title>(0.682675,2132)</title></rect><rect x="42" y="191.338" width="6" height="8.66178" stroke="black" stroke-width="1" fill="blue" tooltip="enable"><title>(0.796454,1590)</title></rect><rect x="48" y="193.986" width="6" height="6.01422" stroke="black" stroke-width="1" fill="blue" tooltip="enable"><title>(0.910233,1104)</title></rect><rect x="54" y="195.446" width="6" height="4.55424" stroke="black" stroke-width="1" fill="blue" tooltip="enable"><title>(1.02401,836)</title></rect><rect x="60" y="196.432" width="6" height="3.56822" stroke="black" stroke-width="1" fill="blue" tooltip="enable"><title>(1.13779,655)</title></rect><rect x="66" y="197.058" width="6" height="2.94174" stroke="black" stroke-width="1" fill="blue" tooltip="enable"><title>(1.25157,540)</title></rect><rect x="72" y="197.712" width="6" height="2.28802" stroke="black" stroke-width="1" fill="blue" tooltip="enable"><title>(1.36535,420)</title></rect><rect x="78" y="198.219" width="6" height="1.78139" stroke="black" stroke-width="1" fill="blue" tooltip="enable"><title>(1.47913,327)</title></rect><rect x="84" y="198.426" width="6" height="1.57437" stroke="black" stroke-width="1" fill="blue" tooltip="enable"><title>(1.59291,289)</title></rect><rect x="90" y="198.556" width="6" height="1.44363" stroke="black" stroke-width="1" fill="blue" tooltip="enable"><title>(1.70669,265)</title></rect><rect x="96" y="198.916" width="6" height="1.08408" stroke="black" stroke-width="1" fill="blue" tooltip="enable"><title>(1.82047,199)</title></rect><rect x="102" y="198.916" width="6" height="1.08408" stroke="black" stroke-width="1" fill="blue" tooltip="enable"><title>(1.93425,199)</title></rect><rect x="108" y="199.047" width="6" height="0.953341" stroke="black" stroke-width="1" fill="blue" tooltip="enable"><title>(2.04803,175)</title></rect><rect x="114" y="199.183" width="6" height="0.817149" stroke="black" stroke-width="1" fill="blue" tooltip="enable"><title>(2.1618,150)</title></rect><rect x="120" y="199.39" width="6" height="0.610138" stroke="black" stroke-width="1" fill="blue" tooltip="enable"><title>(2.27558,112)</title></rect><rect x="126" y="199.477" width="6" height="0.522976" stroke="black" stroke-width="1" fill="blue" tooltip="enable"><title>(2.38936,96)</title></rect><rect x="132" y="199.374" width="6" height="0.626481" stroke="black" stroke-width="1" fill="blue" tooltip="enable"><title>(2.50314,115)</title></rect><rect x="138" y="199.417" width="6" height="0.5829" stroke="black" stroke-width="1" fill="blue" tooltip="enable"><title>(2.61692,107)</title></rect><rect x="144" y="199.521" width="6" height="0.479394" stroke="black" stroke-width="1" fill="blue" tooltip="enable"><title>(2.7307,88)</title></rect><rect x="150" y="199.57" width="6" height="0.430365" stroke="black" stroke-width="1" fill="blue" tooltip="enable"><title>(2.84448,79)</title></rect><rect x="156" y="199.63" width="6" height="0.370441" stroke="black" stroke-width="1" fill="blue" tooltip="enable"><title>(2.95826,68)</title></rect><rect x="162" y="199.657" width="6" height="0.343203" stroke="black" stroke-width="1" fill="blue" tooltip="enable"><title>(3.07204,63)</title></rect><rect x="168" y="199.673" width="6" height="0.32686" stroke="black" stroke-width="1" fill="blue" tooltip="enable"><title>(3.18582,60)</title></rect><rect x="174" y="199.733" width="6" height="0.266935" stroke="black" stroke-width="1" fill="blue" tooltip="enable"><title>(3.2996,49)</title></rect><rect x="180" y="199.777" width="6" height="0.223354" stroke="black" stroke-width="1" fill="blue" tooltip="enable"><title>(3.41338,41)</title></rect><rect x="186" y="199.771" width="6" height="0.228802" stroke="black" stroke-width="1" fill="blue" tooltip="enable"><title>(3.52715,42)</title></rect><rect x="192" y="199.777" width="6" height="0.223354" stroke="black" stroke-width="1" fill="blue" tooltip="enable"><title>(3.64093,41)</title></rect><rect x="198" y="199.815" width="6" height="0.18522" stroke="black" stroke-width="1" fill="blue" tooltip="enable"><title>(3.75471,34)</title></rect><rect x="204" y="199.88" width="6" height="0.119849" stroke="black" stroke-width="1" fill="blue" tooltip="enable"><title>(3.86849,22)</title></rect><rect x="210" y="199.858" width="6" height="0.141639" stroke="black" stroke-width="1" fill="blue" tooltip="enable"><title>(3.98227,26)</title></rect><rect x="216" y="199.875" width="6" height="0.125296" stroke="black" stroke-width="1" fill="blue" tooltip="enable"><title>(4.09605,23)</title></rect><rect x="222" y="199.902" width="6" height="0.0980579" stroke="black" stroke-width="1" fill="blue" tooltip="enable"><title>(4.20983,18)</title></rect><rect x="228" y="199.896" width="6" height="0.103506" stroke="black" stroke-width="1" fill="blue" tooltip="enable"><title>(4.32361,19)</title></rect><rect x="234" y="199.858" width="6" height="0.141639" stroke="black" stroke-width="1" fill="blue" tooltip="enable"><title>(4.43739,26)</title></rect><rect x="240" y="199.902" width="6" height="0.0980579" stroke="black" stroke-width="1" fill="blue" tooltip="enable"><title>(4.55117,18)</title></rect><rect x="246" y="199.902" width="6" height="0.0980579" stroke="black" stroke-width="1" fill="blue" tooltip="enable"><title>(4.66495,18)</title></rect><rect x="252" y="199.896" width="6" height="0.103506" stroke="black" stroke-width="1" fill="blue" tooltip="enable"><title>(4.77872,19)</title></rect><rect x="258" y="199.907" width="6" height="0.0926102" stroke="black" stroke-width="1" fill="blue" tooltip="enable"><title>(4.8925,17)</title></rect><rect x="264" y="199.913" width="6" height="0.0871626" stroke="black" stroke-width="1" fill="blue" tooltip="enable"><title>(5.00628,16)</title></rect><rect x="270" y="199.956" width="6" height="0.0435813" stroke="black" stroke-width="1" fill="blue" tooltip="enable"><title>(5.12006,8)</title></rect><rect x="276" y="199.956" width="6" height="0.0435813" stroke="black" stroke-width="1" fill="blue" tooltip="enable"><title>(5.23384,8)</title></rect><rect x="282" y="199.967" width="6" height="0.032686" stroke="black" stroke-width="1" fill="blue" tooltip="enable"><title>(5.34762,6)</title></rect><rect x="288" y="199.951" width="6" height="0.049029" stroke="black" stroke-width="1" fill="blue" tooltip="enable"><title>(5.4614,9)</title></rect><rect x="294" y="199.973" width="6" height="0.0272383" stroke="black" stroke-width="1" fill="blue" tooltip="enable"><title>(5.57518,5)</title></rect><rect x="300" y="199.935" width="6" height="0.0653719" stroke="black" stroke-width="1" fill="blue" tooltip="enable"><title>(5.68896,12)</title></rect><rect x="306" y="199.951" width="6" height="0.049029" stroke="black" stroke-width="1" fill="blue" tooltip="enable"><title>(5.80274,9)</title></rect><rect x="312" y="199.978" width="6" height="0.0217906" stroke="black" stroke-width="1" fill="blue" tooltip="enable"><title>(5.91652,4)</title></rect><rect x="318" y="199.951" width="6" height="0.049029" stroke="black" stroke-width="1" fill="blue" tooltip="enable"><title>(6.0303,9)</title></rect><rect x="324" y="199.995" width="6" height="0.00544766" stroke="black" stroke-width="1" fill="blue" tooltip="enable"><title>(6.14407,1)</title></rect><rect x="330" y="199.962" width="6" height="0.0381336" stroke="black" stroke-width="1" fill="blue" tooltip="enable"><title>(6.25785,7)</title></rect><rect x="336" y="199.956" width="6" height="0.0435813" stroke="black" stroke-width="1" fill="blue" tooltip="enable"><title>(6.37163,8)</title></rect><rect x="342" y="199.973" width="6" height="0.0272383" stroke="black" stroke-width="1" fill="blue" tooltip="enable"><title>(6.48541,5)</title></rect><rect x="348" y="199.989" width="6" height="0.0108953" stroke="black" stroke-width="1" fill="blue" tooltip="enable"><title>(6.59919,2)</title></rect><rect x="354" y="199.989" width="6" height="0.0108953" stroke="black" stroke-width="1" fill="blue" tooltip="enable"><title>(6.71297,2)</title></rect><rect x="360" y="199.995" width="6" height="0.00544766" stroke="black" stroke-width="1" fill="blue" tooltip="enable"><title>(6.82675,1)</title></rect><rect x="366" y="199.978" width="6" height="0.0217906" stroke="black" stroke-width="1" fill="blue" tooltip="enable"><title>(6.94053,4)</title></rect><rect x="372" y="199.984" width="6" height="0.016343" stroke="black" stroke-width="1" fill="blue" tooltip="enable"><title>(7.05431,3)</title></rect><rect x="378" y="199.989" width="6" height="0.0108953" stroke="black" stroke-width="1" fill="blue" tooltip="enable"><title>(7.16809,2)</title></rect><rect x="384" y="199.984" width="6" height="0.016343" stroke="black" stroke-width="1" fill="blue" tooltip="enable"><title>(7.28187,3)</title></rect><rect x="390" y="200" width="6" height="0" stroke="black" stroke-width="1" fill="blue" tooltip="enable"><title>(7.39565,0)</title></rect><rect x="396" y="199.995" width="6" height="0.00544766" stroke="black" stroke-width="1" fill="blue" tooltip="enable"><title>(7.50943,1)</title></rect><rect x="402" y="199.989" width="6" height="0.0108953" stroke="black" stroke-width="1" fill="blue" tooltip="enable"><title>(7.6232,2)</title></rect><rect x="408" y="200" width="6" height="0" stroke="black" stroke-width="1" fill="blue" tooltip="enable"><title>(7.73698,0)</title></rect><rect x="414" y="199.978" width="6" height="0.0217906" stroke="black" stroke-width="1" fill="blue" tooltip="enable"><title>(7.85076,4)</title></rect><rect x="420" y="200" width="6" height="0" stroke="black" stroke-width="1" fill="blue" tooltip="enable"><title>(7.96454,0)</title></rect><rect x="426" y="200" width="6" height="0" stroke="black" stroke-width="1" fill="blue" tooltip="enable"><title>(8.07832,0)</title></rect><rect x="432" y="200" width="6" height="0" stroke="black" stroke-width="1" fill="blue" tooltip="enable"><title>(8.1921,0)</title></rect><rect x="438" y="199.995" width="6" height="0.00544766" stroke="black" stroke-width="1" fill="blue" tooltip="enable"><title>(8.30588,1)</title></rect><rect x="444" y="200" width="6" height="0" stroke="black" stroke-width="1" fill="blue" tooltip="enable"><title>(8.41966,0)</title></rect><rect x="450" y="199.995" width="6" height="0.00544766" stroke="black" stroke-width="1" fill="blue" tooltip="enable"><title>(8.53344,1)</title></rect><rect x="456" y="199.995" width="6" height="0.00544766" stroke="black" stroke-width="1" fill="blue" tooltip="enable"><title>(8.64722,1)</title></rect><rect x="462" y="199.995" width="6" height="0.00544766" stroke="black" stroke-width="1" fill="blue" tooltip="enable"><title>(8.76099,1)</title></rect><rect x="468" y="200" width="6" height="0" stroke="black" stroke-width="1" fill="blue" tooltip="enable"><title>(8.87477,0)</title></rect><rect x="474" y="199.989" width="6" height="0.0108953" stroke="black" stroke-width="1" fill="blue" tooltip="enable"><title>(8.98855,2)</title></rect><rect x="480" y="199.995" width="6" height="0.00544766" stroke="black" stroke-width="1" fill="blue" tooltip="enable"><title>(9.10233,1)</title></rect><rect x="486" y="200" width="6" height="0" stroke="black" stroke-width="1" fill="blue" tooltip="enable"><title>(9.21611,0)</title></rect><rect x="492" y="199.995" width="6" height="0.00544766" stroke="black" stroke-width="1" fill="blue" tooltip="enable"><title>(9.32989,1)</title></rect><rect x="498" y="199.995" width="6" height="0.00544766" stroke="black" stroke-width="1" fill="blue" tooltip="enable"><title>(9.44367,1)</title></rect><rect x="504" y="200" width="6" height="0" stroke="black" stroke-width="1" fill="blue" tooltip="enable"><title>(9.55745,0)</title></rect><rect x="510" y="199.995" width="6" height="0.00544766" stroke="black" stroke-width="1" fill="blue" tooltip="enable"><title>(9.67123,1)</title></rect><rect x="516" y="200" width="6" height="0" stroke="black" stroke-width="1" fill="blue" tooltip="enable"><title>(9.78501,0)</title></rect><rect x="522" y="199.995" width="6" height="0.00544766" stroke="black" stroke-width="1" fill="blue" tooltip="enable"><title>(9.89879,1)</title></rect><rect x="528" y="200" width="6" height="0" stroke="black" stroke-width="1" fill="blue" tooltip="enable"><title>(10.0126,0)</title></rect><rect x="534" y="200" width="6" height="0" stroke="black" stroke-width="1" fill="blue" tooltip="enable"><title>(10.1263,0)</title></rect><rect x="540" y="199.995" width="6" height="0.00544766" stroke="black" stroke-width="1" fill="blue" tooltip="enable"><title>(10.2401,1)</title></rect><rect x="546" y="200" width="6" height="0" stroke="black" stroke-width="1" fill="blue" tooltip="enable"><title>(10.3539,0)</title></rect><rect x="552" y="200" width="6" height="0" stroke="black" stroke-width="1" fill="blue" tooltip="enable"><title>(10.4677,0)</title></rect><rect x="558" y="200" width="6" height="0" stroke="black" stroke-width="1" fill="blue" tooltip="enable"><title>(10.5815,0)</title></rect><rect x="564" y="200" width="6" height="0" stroke="black" stroke-width="1" fill="blue" tooltip="enable"><title>(10.6952,0)</title></rect><rect x="570" y="200" width="6" height="0" stroke="black" stroke-width="1" fill="blue" tooltip="enable"><title>(10.809,0)</title></rect><rect x="576" y="200" width="6" height="0" stroke="black" stroke-width="1" fill="blue" tooltip="enable"><title>(10.9228,0)</title></rect><rect x="582" y="200" width="6" height="0" stroke="black" stroke-width="1" fill="blue" tooltip="enable"><title>(11.0366,0)</title></rect><rect x="588" y="200" width="6" height="0" stroke="black" stroke-width="1" fill="blue" tooltip="enable"><title>(11.1504,0)</title></rect><rect x="594" y="199.989" width="6" height="0.0108953" stroke="black" stroke-width="1" fill="blue" tooltip="enable"><title>(11.2641,2)</title></rect><text x="30" y="240" font-size="20" fill="black">0</text>
<text x="600" y="240" font-size="20" fill="black">11.3779</text>
<polyline points="0,220,600,220" stroke="black" stroke-width="1" fill="none"/>
<text x="720" y="20" font-size="20" fill="black">36713</text>
<text x="720" y="200" font-size="20" fill="black">0</text>
<polyline points="660,0,660,200" stroke="black" stroke-width="1" fill="none"/>
</svg>