<?xml version="1.0" standalone="yes"?>
<!-- SVG graphic -->
<svg xmlns='http://www.w3.org/2000/svg' xmlns:xlink='http://www.w3.org/1999/xlink'
 version="1.1">
<rect x="0" y="0" width="6" height="200" stroke="black" stroke-width="1" fill="blue" tooltip="enable"><title>(0,26032)</title></rect><rect x="6" y="96.3737" width="6" height="103.626" stroke="black" stroke-width="1" fill="blue" tooltip="enable"><title>(0.27317,13488)</title></rect><rect x="12" y="136.278" width="6" height="63.7216" stroke="black" stroke-width="1" fill="blue" tooltip="enable"><title>(0.546341,8294)</title></rect><rect x="18" y="159.857" width="6" height="40.1429" stroke="black" stroke-width="1" fill="blue" tooltip="enable"><title>(0.819511,5225)</title></rect><rect x="24" y="172.372" width="6" height="27.6275" stroke="black" stroke-width="1" fill="blue" tooltip="enable"><title>(1.09268,3596)</title></rect><rect x="30" y="180.754" width="6" height="19.2455" stroke="black" stroke-width="1" fill="blue" tooltip="enable"><title>(1.36585,2505)</title></rect><rect x="36" y="186.063" width="6" height="13.9367" stroke="black" stroke-width="1" fill="blue" tooltip="enable"><title>(1.63902,1814)</title></rect><rect x="42" y="189.267" width="6" height="10.7329" stroke="black" stroke-width="1" fill="blue" tooltip="enable"><title>(1.91219,1397)</title></rect><rect x="48" y="191.795" width="6" height="8.20529" stroke="black" stroke-width="1" fill="blue" tooltip="enable"><title>(2.18536,1068)</title></rect><rect x="54" y="193.569" width="6" height="6.43055" stroke="black" stroke-width="1" fill="blue" tooltip="enable"><title>(2.45853,837)</title></rect><rect x="60" y="195.091" width="6" height="4.90934" stroke="black" stroke-width="1" fill="blue" tooltip="enable"><title>(2.7317,639)</title></rect><rect x="66" y="196.466" width="6" height="3.53411" stroke="black" stroke-width="1" fill="blue" tooltip="enable"><title>(3.00487,460)</title></rect><rect x="72" y="196.865" width="6" height="3.1346" stroke="black" stroke-width="1" fill="blue" tooltip="enable"><title>(3.27805,408)</title></rect><rect x="78" y="197.549" width="6" height="2.45083" stroke="black" stroke-width="1" fill="blue" tooltip="enable"><title>(3.55122,319)</title></rect><rect x="84" y="197.933" width="6" height="2.06669" stroke="black" stroke-width="1" fill="blue" tooltip="enable"><title>(3.82439,269)</title></rect><rect x="90" y="198.379" width="6" height="1.62108" stroke="black" stroke-width="1" fill="blue" tooltip="enable"><title>(4.09756,211)</title></rect><rect x="96" y="198.417" width="6" height="1.58267" stroke="black" stroke-width="1" fill="blue" tooltip="enable"><title>(4.37073,206)</title></rect><rect x="102" y="198.894" width="6" height="1.10633" stroke="black" stroke-width="1" fill="blue" tooltip="enable"><title>(4.6439,144)</title></rect><rect x="108" y="199.17" width="6" height="0.829748" stroke="black" stroke-width="1" fill="blue" tooltip="enable"><title>(4.91707,108)</title></rect><rect x="114" y="199.232" width="6" height="0.768285" stroke="black" stroke-width="1" fill="blue" tooltip="enable"><title>(5.19024,100)</title></rect><rect x="120" y="199.401" width="6" height="0.599262" stroke="black" stroke-width="1" fill="blue" tooltip="enable"><title>(5.46341,78)</title></rect><rect x="126" y="199.455" width="6" height="0.545483" stroke="black" stroke-width="1" fill="blue" tooltip="enable"><title>(5.73658,71)</title></rect><rect x="132" y="199.455" width="6" height="0.545483" stroke="black" stroke-width="1" fill="blue" tooltip="enable"><title>(6.00975,71)</title></rect><rect x="138" y="199.677" width="6" height="0.32268" stroke="black" stroke-width="1" fill="blue" tooltip="enable"><title>(6.28292,42)</title></rect><rect x="144" y="199.723" width="6" height="0.276583" stroke="black" stroke-width="1" fill="blue" tooltip="enable"><title>(6.55609,36)</title></rect><rect x="150" y="199.785" width="6" height="0.21512" stroke="black" stroke-width="1" fill="blue" tooltip="enable"><title>(6.82926,28)</title></rect><rect x="156" y="199.823" width="6" height="0.176706" stroke="black" stroke-width="1" fill="blue" tooltip="enable"><title>(7.10243,23)</title></rect><rect x="162" y="199.823" width="6" height="0.176706" stroke="black" stroke-width="1" fill="blue" tooltip="enable"><title>(7.3756,23)</title></rect><rect x="168" y="199.831" width="6" height="0.169023" stroke="black" stroke-width="1" fill="blue" tooltip="enable"><title>(7.64877,22)</title></rect><rect x="174" y="199.9" width="6" height="0.0998771" stroke="black" stroke-width="1" fill="blue" tooltip="enable"><title>(7.92194,13)</title></rect><rect x="180" y="199.931" width="6" height="0.0691457" stroke="black" stroke-width="1" fill="blue" tooltip="enable"><title>(8.19511,9)</title></rect><rect x="186" y="199.939" width="6" height="0.0614628" stroke="black" stroke-width="1" fill="blue" tooltip="enable"><title>(8.46828,8)</title></rect><rect x="192" y="199.946" width="6" height="0.05378" stroke="black" stroke-width="1" fill="blue" tooltip="enable"><title>(8.74145,7)</title></rect><rect x="198" y="199.939" width="6" height="0.0614628" stroke="black" stroke-width="1" fill="blue" tooltip="enable"><title>(9.01462,8)</title></rect><rect x="204" y="199.969" width="6" height="0.0307314" stroke="black" stroke-width="1" fill="blue" tooltip="enable"><title>(9.2878,4)</title></rect><rect x="210" y="199.985" width="6" height="0.0153657" stroke="black" stroke-width="1" fill="blue" tooltip="enable"><title>(9.56096,2)</title></rect><rect x="216" y="199.977" width="6" height="0.0230486" stroke="black" stroke-width="1" fill="blue" tooltip="enable"><title>(9.83414,3)</title></rect><rect x="222" y="199.992" width="6" height="0.00768285" stroke="black" stroke-width="1" fill="blue" tooltip="enable"><title>(10.1073,1)</title></rect><rect x="228" y="199.992" width="6" height="0.00768285" stroke="black" stroke-width="1" fill="blue" tooltip="enable"><title>(10.3805,1)</title></rect><rect x="234" y="199.992" width="6" height="0.00768285" stroke="black" stroke-width="1" fill="blue" tooltip="enable"><title>(10.6536,1)</title></rect><rect x="240" y="199.992" width="6" height="0.00768285" stroke="black" stroke-width="1" fill="blue" tooltip="enable"><title>(10.9268,1)</title></rect><rect x="246" y="200" width="6" height="0" stroke="black" stroke-width="1" fill="blue" tooltip="enable"><title>(11.2,0)</title></rect><rect x="252" y="200" width="6" height="0" stroke="black" stroke-width="1" fill="blue" tooltip="enable"><title>(11.4732,0)</title></rect><rect x="258" y="200" width="6" height="0" stroke="black" stroke-width="1" fill="blue" tooltip="enable"><title>(11.7463,0)</title></rect><rect x="264" y="200" width="6" height="0" stroke="black" stroke-width="1" fill="blue" tooltip="enable"><title>(12.0195,0)</title></rect><rect x="270" y="200" width="6" height="0" stroke="black" stroke-width="1" fill="blue" tooltip="enable"><title>(12.2927,0)</title></rect><rect x="276" y="200" width="6" height="0" stroke="black" stroke-width="1" fill="blue" tooltip="enable"><title>(12.5658,0)</title></rect><rect x="282" y="200" width="6" height="0" stroke="black" stroke-width="1" fill="blue" tooltip="enable"><title>(12.839,0)</title></rect><rect x="288" y="200" width="6" height="0" stroke="black" stroke-width="1" fill="blue" tooltip="enable"><title>(13.1122,0)</title></rect><rect x="294" y="200" width="6" height="0" stroke="black" stroke-width="1" fill="blue" tooltip="enable"><title>(13.3854,0)</title></rect><rect x="300" y="200" width="6" height="0" stroke="black" stroke-width="1" fill="blue" tooltip="enable"><title>(13.6585,0)</title></rect><rect x="306" y="200" width="6" height="0" stroke="black" stroke-width="1" fill="blue" tooltip="enable"><title>(13.9317,0)</title></rect><rect x="312" y="200" width="6" height="0" stroke="black" stroke-width="1" fill="blue" tooltip="enable"><title>(14.2049,0)</title></rect><rect x="318" y="200" width="6" height="0" stroke="black" stroke-width="1" fill="blue" tooltip="enable"><title>(14.478,0)</title></rect><rect x="324" y="200" width="6" height="0" stroke="black" stroke-width="1" fill="blue" tooltip="enable"><title>(14.7512,0)</title></rect><rect x="330" y="200" width="6" height="0" stroke="black" stroke-width="1" fill="blue" tooltip="enable"><title>(15.0244,0)</title></rect><rect x="336" y="200" width="6" height="0" stroke="black" stroke-width="1" fill="blue" tooltip="enable"><title>(15.2975,0)</title></rect><rect x="342" y="200" width="6" height="0" stroke="black" stroke-width="1" fill="blue" tooltip="enable"><title>(15.5707,0)</title></rect><rect x="348" y="200" width="6" height="0" stroke="black" stroke-width="1" fill="blue" tooltip="enable"><title>(15.8439,0)</title></rect><rect x="354" y="200" width="6" height="0" stroke="black" stroke-width="1" fill="blue" tooltip="enable"><title>(16.1171,0)</title></rect><rect x="360" y="200" width="6" height="0" stroke="black" stroke-width="1" fill="blue" tooltip="enable"><title>(16.3902,0)</title></rect><rect x="366" y="200" width="6" height="0" stroke="black" stroke-width="1" fill="blue" tooltip="enable"><title>(16.6634,0)</title></rect><rect x="372" y="200" width="6" height="0" stroke="black" stroke-width="1" fill="blue" tooltip="enable"><title>(16.9366,0)</title></rect><rect x="378" y="199.992" width="6" height="0.00768285" stroke="black" stroke-width="1" fill="blue" tooltip="enable"><title>(17.2097,1)</title></rect><rect x="384" y="200" width="6" height="0" stroke="black" stroke-width="1" fill="blue" tooltip="enable"><title>(17.4829,0)</title></rect><rect x="390" y="200" width="6" height="0" stroke="black" stroke-width="1" fill="blue" tooltip="enable"><title>(17.7561,0)</title></rect><rect x="396" y="200" width="6" height="0" stroke="black" stroke-width="1" fill="blue" tooltip="enable"><title>(18.0292,0)</title></rect><rect x="402" y="200" width="6" height="0" stroke="black" stroke-width="1" fill="blue" tooltip="enable"><title>(18.3024,0)</title></rect><rect x="408" y="200" width="6" height="0" stroke="black" stroke-width="1" fill="blue" tooltip="enable"><title>(18.5756,0)</title></rect><rect x="414" y="200" width="6" height="0" stroke="black" stroke-width="1" fill="blue" tooltip="enable"><title>(18.8488,0)</title></rect><rect x="420" y="200" width="6" height="0" stroke="black" stroke-width="1" fill="blue" tooltip="enable"><title>(19.1219,0)</title></rect><rect x="426" y="200" width="6" height="0" stroke="black" stroke-width="1" fill="blue" tooltip="enable"><title>(19.3951,0)</title></rect><rect x="432" y="200" width="6" height="0" stroke="black" stroke-width="1" fill="blue" tooltip="enable"><title>(19.6683,0)</title></rect><rect x="438" y="200" width="6" height="0" stroke="black" stroke-width="1" fill="blue" tooltip="enable"><title>(19.9414,0)</title></rect><rect x="444" y="200" width="6" height="0" stroke="black" stroke-width="1" fill="blue" tooltip="enable"><title>(20.2146,0)</title></rect><rect x="450" y="200" width="6" height="0" stroke="black" stroke-width="1" fill="blue" tooltip="enable"><title>(20.4878,0)</title></rect><rect x="456" y="200" width="6" height="0" stroke="black" stroke-width="1" fill="blue" tooltip="enable"><title>(20.761,0)</title></rect><rect x="462" y="200" width="6" height="0" stroke="black" stroke-width="1" fill="blue" tooltip="enable"><title>(21.0341,0)</title></rect><rect x="468" y="200" width="6" height="0" stroke="black" stroke-width="1" fill="blue" tooltip="enable"><title>(21.3073,0)</title></rect><rect x="474" y="200" width="6" height="0" stroke="black" stroke-width="1" fill="blue" tooltip="enable"><title>(21.5805,0)</title></rect><rect x="480" y="200" width="6" height="0" stroke="black" stroke-width="1" fill="blue" tooltip="enable"><title>(21.8536,0)</title></rect><rect x="486" y="200" width="6" height="0" stroke="black" stroke-width="1" fill="blue" tooltip="enable"><title>(22.1268,0)</title></rect><rect x="492" y="200" width="6" height="0" stroke="black" stroke-width="1" fill="blue" tooltip="enable"><title>(22.4,0)</title></rect><rect x="498" y="200" width="6" height="0" stroke="black" stroke-width="1" fill="blue" tooltip="enable"><title>(22.6731,0)</title></rect><rect x="504" y="200" width="6" height="0" stroke="black" stroke-width="1" fill="blue" tooltip="enable"><title>(22.9463,0)</title></rect><rect x="510" y="200" width="6" height="0" stroke="black" stroke-width="1" fill="blue" tooltip="enable"><title>(23.2195,0)</title></rect><rect x="516" y="200" width="6" height="0" stroke="black" stroke-width="1" fill="blue" tooltip="enable"><title>(23.4927,0)</title></rect><rect x="522" y="200" width="6" height="0" stroke="black" stroke-width="1" fill="blue" tooltip="enable"><title>(23.7658,0)</title></rect><rect x="528" y="200" width="6" height="0" stroke="black" stroke-width="1" fill="blue" tooltip="enable"><title>(24.039,0)</title></rect><rect x="534" y="200" width="6" height="0" stroke="black" stroke-width="1" fill="blue" tooltip="enable"><title>(24.3122,0)</title></rect><rect x="540" y="200" width="6" height="0" stroke="black" stroke-width="1" fill="blue" tooltip="enable"><title>(24.5853,0)</title></rect><rect x="546" y="200" width="6" height="0" stroke="black" stroke-width="1" fill="blue" tooltip="enable"><title>(24.8585,0)</title></rect><rect x="552" y="200" width="6" height="0" stroke="black" stroke-width="1" fill="blue" tooltip="enable"><title>(25.1317,0)</title></rect><rect x="558" y="200" width="6" height="0" stroke="black" stroke-width="1" fill="blue" tooltip="enable"><title>(25.4049,0)</title></rect><rect x="564" y="200" width="6" height="0" stroke="black" stroke-width="1" fill="blue" tooltip="enable"><title>(25.678,0)</title></rect><rect x="570" y="200" width="6" height="0" stroke="black" stroke-width="1" fill="blue" tooltip="enable"><title>(25.9512,0)</title></rect><rect x="576" y="200" width="6" height="0" stroke="black" stroke-width="1" fill="blue" tooltip="enable"><title>(26.2244,0)</title></rect><rect x="582" y="200" width="6" height="0" stroke="black" stroke-width="1" fill="blue" tooltip="enable"><title>(26.4975,0)</title></rect><rect x="588" y="200" width="6" height="0" stroke="black" stroke-width="1" fill="blue" tooltip="enable"><title>(26.7707,0)</title></rect><rect x="594" y="199.992" width="6" height="0.00768285" stroke="black" stroke-width="1" fill="blue" tooltip="enable"><title>(27.0439,1)</title></rect><text x="30" y="240" font-size="20" fill="black">0</text>
<text x="600" y="240" font-size="20" fill="black">27.317</text>
<polyline points="0,220,600,220" stroke="black" stroke-width="1" fill="none"/>
<text x="720" y="20" font-size="20" fill="black">26032</text>
<text x="720" y="200" font-size="20" fill="black">0</text>
<polyline points="660,0,660,200" stroke="black" stroke-width="1" fill="none"/>
</svg>