<?xml version="1.0" standalone="yes"?>
<!-- SVG graphic -->
<svg xmlns='http://www.w3.org/2000/svg' xmlns:xlink='http://www.w3.org/1999/xlink'
 version="1.1">
<rect x="0" y="-1.52588e-05" width="6" height="200" stroke="black" stroke-width="1" fill="blue" tooltip="enable"><title>(0,179589)</title></rect><rect x="6" y="172.344" width="6" height="27.6565" stroke="black" stroke-width="1" fill="blue" tooltip="enable"><title>(1.01687,24834)</title></rect><rect x="12" y="188.924" width="6" height="11.0764" stroke="black" stroke-width="1" fill="blue" tooltip="enable"><title>(2.03375,9946)</title></rect><rect x="18" y="194.892" width="6" height="5.10833" stroke="black" stroke-width="1" fill="blue" tooltip="enable"><title>(3.05062,4587)</title></rect><rect x="24" y="197.698" width="6" height="2.30192" stroke="black" stroke-width="1" fill="blue" tooltip="enable"><title>(4.0675,2067)</title></rect><rect x="30" y="198.883" width="6" height="1.11699" stroke="black" stroke-width="1" fill="blue" tooltip="enable"><title>(5.08437,1003)</title></rect><rect x="36" y="199.447" width="6" height="0.553486" stroke="black" stroke-width="1" fill="blue" tooltip="enable"><title>(6.10124,497)</title></rect><rect x="42" y="199.738" width="6" height="0.261709" stroke="black" stroke-width="1" fill="blue" tooltip="enable"><title>(7.11812,235)</title></rect><rect x="48" y="199.886" width="6" height="0.113593" stroke="black" stroke-width="1" fill="blue" tooltip="enable"><title>(8.13499,102)</title></rect><rect x="54" y="199.939" width="6" height="0.061251" stroke="black" stroke-width="1" fill="blue" tooltip="enable"><title>(9.15187,55)</title></rect><rect x="60" y="199.95" width="6" height="0.0501144" stroke="black" stroke-width="1" fill="blue" tooltip="enable"><title>(10.1687,45)</title></rect><rect x="66" y="199.982" width="6" height="0.0178185" stroke="black" stroke-width="1" fill="blue" tooltip="enable"><title>(11.1856,16)</title></rect><rect x="72" y="199.989" width="6" height="0.0111365" stroke="black" stroke-width="1" fill="blue" tooltip="enable"><title>(12.2025,10)</title></rect><rect x="78" y="199.99" width="6" height="0.0100229" stroke="black" stroke-width="1" fill="blue" tooltip="enable"><title>(13.2194,9)</title></rect><rect x="84" y="199.998" width="6" height="0.00222731" stroke="black" stroke-width="1" fill="blue" tooltip="enable"><title>(14.2362,2)</title></rect><rect x="90" y="199.993" width="6" height="0.00668192" stroke="black" stroke-width="1" fill="blue" tooltip="enable"><title>(15.2531,6)</title></rect><rect x="96" y="199.998" width="6" height="0.00222731" stroke="black" stroke-width="1" fill="blue" tooltip="enable"><title>(16.27,2)</title></rect><rect x="102" y="199.998" width="6" height="0.00222731" stroke="black" stroke-width="1" fill="blue" tooltip="enable"><title>(17.2869,2)</title></rect><rect x="108" y="199.998" width="6" height="0.00222731" stroke="black" stroke-width="1" fill="blue" tooltip="enable"><title>(18.3037,2)</title></rect><rect x="114" y="199.998" width="6" height="0.00222731" stroke="black" stroke-width="1" fill="blue" tooltip="enable"><title>(19.3206,2)</title></rect><rect x="120" y="199.998" width="6" height="0.00222731" stroke="black" stroke-width="1" fill="blue" tooltip="enable"><title>(20.3375,2)</title></rect><rect x="126" y="199.998" width="6" height="0.00222731" stroke="black" stroke-width="1" fill="blue" tooltip="enable"><title>(21.3544,2)</title></rect><rect x="132" y="199.999" width="6" height="0.00111365" stroke="black" stroke-width="1" fill="blue" tooltip="enable"><title>(22.3712,1)</title></rect><rect x="138" y="200" width="6" height="0" stroke="black" stroke-width="1" fill="blue" tooltip="enable"><title>(23.3881,0)</title></rect><rect x="144" y="200" width="6" height="0" stroke="black" stroke-width="1" fill="blue" tooltip="enable"><title>(24.405,0)</title></rect><rect x="150" y="200" width="6" height="0" stroke="black" stroke-width="1" fill="blue" tooltip="enable"><title>(25.4219,0)</title></rect><rect x="156" y="200" width="6" height="0" stroke="black" stroke-width="1" fill="blue" tooltip="enable"><title>(26.4387,0)</title></rect><rect x="162" y="200" width="6" height="0" stroke="black" stroke-width="1" fill="blue" tooltip="enable"><title>(27.4556,0)</title></rect><rect x="168" y="200" width="6" height="0" stroke="black" stroke-width="1" fill="blue" tooltip="enable"><title>(28.4725,0)</title></rect><rect x="174" y="199.999" width="6" height="0.00111365" stroke="black" stroke-width="1" fill="blue" tooltip="enable"><title>(29.4893,1)</title></rect><rect x="180" y="200" width="6" height="0" stroke="black" stroke-width="1" fill="blue" tooltip="enable"><title>(30.5062,0)</title></rect><rect x="186" y="200" width="6" height="0" stroke="black" stroke-width="1" fill="blue" tooltip="enable"><title>(31.5231,0)</title></rect><rect x="192" y="200" width="6" height="0" stroke="black" stroke-width="1" fill="blue" tooltip="enable"><title>(32.54,0)</title></rect><rect x="198" y="200" width="6" height="0" stroke="black" stroke-width="1" fill="blue" tooltip="enable"><title>(33.5568,0)</title></rect><rect x="204" y="200" width="6" height="0" stroke="black" stroke-width="1" fill="blue" tooltip="enable"><title>(34.5737,0)</title></rect><rect x="210" y="199.999" width="6" height="0.00111365" stroke="black" stroke-width="1" fill="blue" tooltip="enable"><title>(35.5906,1)</title></rect><rect x="216" y="200" width="6" height="0" stroke="black" stroke-width="1" fill="blue" tooltip="enable"><title>(36.6075,0)</title></rect><rect x="222" y="200" width="6" height="0" stroke="black" stroke-width="1" fill="blue" tooltip="enable"><title>(37.6243,0)</title></rect><rect x="228" y="200" width="6" height="0" stroke="black" stroke-width="1" fill="blue" tooltip="enable"><title>(38.6412,0)</title></rect><rect x="234" y="199.999" width="6" height="0.00111365" stroke="black" stroke-width="1" fill="blue" tooltip="enable"><title>(39.6581,1)</title></rect><rect x="240" y="200" width="6" height="0" stroke="black" stroke-width="1" fill="blue" tooltip="enable"><title>(40.675,0)</title></rect><rect x="246" y="200" width="6" height="0" stroke="black" stroke-width="1" fill="blue" tooltip="enable"><title>(41.6918,0)</title></rect><rect x="252" y="200" width="6" height="0" stroke="black" stroke-width="1" fill="blue" tooltip="enable"><title>(42.7087,0)</title></rect><rect x="258" y="200" width="6" height="0" stroke="black" stroke-width="1" fill="blue" tooltip="enable"><title>(43.7256,0)</title></rect><rect x="264" y="200" width="6" height="0" stroke="black" stroke-width="1" fill="blue" tooltip="enable"><title>(44.7425,0)</title></rect><rect x="270" y="200" width="6" height="0" stroke="black" stroke-width="1" fill="blue" tooltip="enable"><title>(45.7593,0)</title></rect><rect x="276" y="200" width="6" height="0" stroke="black" stroke-width="1" fill="blue" tooltip="enable"><title>(46.7762,0)</title></rect><rect x="282" y="200" width="6" height="0" stroke="black" stroke-width="1" fill="blue" tooltip="enable"><title>(47.7931,0)</title></rect><rect x="288" y="200" width="6" height="0" stroke="black" stroke-width="1" fill="blue" tooltip="enable"><title>(48.81,0)</title></rect><rect x="294" y="200" width="6" height="0" stroke="black" stroke-width="1" fill="blue" tooltip="enable"><title>(49.8268,0)</title></rect><rect x="300" y="200" width="6" height="0" stroke="black" stroke-width="1" fill="blue" tooltip="enable"><title>(50.8437,0)</title></rect><rect x="306" y="200" width="6" height="0" stroke="black" stroke-width="1" fill="blue" tooltip="enable"><title>(51.8606,0)</title></rect><rect x="312" y="200" width="6" height="0" stroke="black" stroke-width="1" fill="blue" tooltip="enable"><title>(52.8774,0)</title></rect><rect x="318" y="200" width="6" height="0" stroke="black" stroke-width="1" fill="blue" tooltip="enable"><title>(53.8943,0)</title></rect><rect x="324" y="200" width="6" height="0" stroke="black" stroke-width="1" fill="blue" tooltip="enable"><title>(54.9112,0)</title></rect><rect x="330" y="200" width="6" height="0" stroke="black" stroke-width="1" fill="blue" tooltip="enable"><title>(55.9281,0)</title></rect><rect x="336" y="200" width="6" height="0" stroke="black" stroke-width="1" fill="blue" tooltip="enable"><title>(56.945,0)</title></rect><rect x="342" y="200" width="6" height="0" stroke="black" stroke-width="1" fill="blue" tooltip="enable"><title>(57.9618,0)</title></rect><rect x="348" y="200" width="6" height="0" stroke="black" stroke-width="1" fill="blue" tooltip="enable"><title>(58.9787,0)</title></rect><rect x="354" y="200" width="6" height="0" stroke="black" stroke-width="1" fill="blue" tooltip="enable"><title>(59.9956,0)</title></rect><rect x="360" y="200" width="6" height="0" stroke="black" stroke-width="1" fill="blue" tooltip="enable"><title>(61.0124,0)</title></rect><rect x="366" y="200" width="6" height="0" stroke="black" stroke-width="1" fill="blue" tooltip="enable"><title>(62.0293,0)</title></rect><rect x="372" y="200" width="6" height="0" stroke="black" stroke-width="1" fill="blue" tooltip="enable"><title>(63.0462,0)</title></rect><rect x="378" y="200" width="6" height="0" stroke="black" stroke-width="1" fill="blue" tooltip="enable"><title>(64.0631,0)</title></rect><rect x="384" y="200" width="6" height="0" stroke="black" stroke-width="1" fill="blue" tooltip="enable"><title>(65.0799,0)</title></rect><rect x="390" y="200" width="6" height="0" stroke="black" stroke-width="1" fill="blue" tooltip="enable"><title>(66.0968,0)</title></rect><rect x="396" y="200" width="6" height="0" stroke="black" stroke-width="1" fill="blue" tooltip="enable"><title>(67.1137,0)</title></rect><rect x="402" y="200" width="6" height="0" stroke="black" stroke-width="1" fill="blue" tooltip="enable"><title>(68.1306,0)</title></rect><rect x="408" y="200" width="6" height="0" stroke="black" stroke-width="1" fill="blue" tooltip="enable"><title>(69.1474,0)</title></rect><rect x="414" y="200" width="6" height="0" stroke="black" stroke-width="1" fill="blue" tooltip="enable"><title>(70.1643,0)</title></rect><rect x="420" y="200" width="6" height="0" stroke="black" stroke-width="1" fill="blue" tooltip="enable"><title>(71.1812,0)</title></rect><rect x="426" y="200" width="6" height="0" stroke="black" stroke-width="1" fill="blue" tooltip="enable"><title>(72.1981,0)</title></rect><rect x="432" y="200" width="6" height="0" stroke="black" stroke-width="1" fill="blue" tooltip="enable"><title>(73.2149,0)</title></rect><rect x="438" y="200" width="6" height="0" stroke="black" stroke-width="1" fill="blue" tooltip="enable"><title>(74.2318,0)</title></rect><rect x="444" y="200" width="6" height="0" stroke="black" stroke-width="1" fill="blue" tooltip="enable"><title>(75.2487,0)</title></rect><rect x="450" y="200" width="6" height="0" stroke="black" stroke-width="1" fill="blue" tooltip="enable"><title>(76.2656,0)</title></rect><rect x="456" y="200" width="6" height="0" stroke="black" stroke-width="1" fill="blue" tooltip="enable"><title>(77.2824,0)</title></rect><rect x="462" y="200" width="6" height="0" stroke="black" stroke-width="1" fill="blue" tooltip="enable"><title>(78.2993,0)</title></rect><rect x="468" y="200" width="6" height="0" stroke="black" stroke-width="1" fill="blue" tooltip="enable"><title>(79.3162,0)</title></rect><rect x="474" y="200" width="6" height="0" stroke="black" stroke-width="1" fill="blue" tooltip="enable"><title>(80.3331,0)</title></rect><rect x="480" y="200" width="6" height="0" stroke="black" stroke-width="1" fill="blue" tooltip="enable"><title>(81.3499,0)</title></rect><rect x="486" y="200" width="6" height="0" stroke="black" stroke-width="1" fill="blue" tooltip="enable"><title>(82.3668,0)</title></rect><rect x="492" y="200" width="6" height="0" stroke="black" stroke-width="1" fill="blue" tooltip="enable"><title>(83.3837,0)</title></rect><rect x="498" y="200" width="6" height="0" stroke="black" stroke-width="1" fill="blue" tooltip="enable"><title>(84.4006,0)</title></rect><rect x="504" y="200" width="6" height="0" stroke="black" stroke-width="1" fill="blue" tooltip="enable"><title>(85.4174,0)</title></rect><rect x="510" y="200" width="6" height="0" stroke="black" stroke-width="1" fill="blue" tooltip="enable"><title>(86.4343,0)</title></rect><rect x="516" y="200" width="6" height="0" stroke="black" stroke-width="1" fill="blue" tooltip="enable"><title>(87.4512,0)</title></rect><rect x="522" y="200" width="6" height="0" stroke="black" stroke-width="1" fill="blue" tooltip="enable"><title>(88.468,0)</title></rect><rect x="528" y="200" width="6" height="0" stroke="black" stroke-width="1" fill="blue" tooltip="enable"><title>(89.4849,0)</title></rect><rect x="534" y="200" width="6" height="0" stroke="black" stroke-width="1" fill="blue" tooltip="enable"><title>(90.5018,0)</title></rect><rect x="540" y="200" width="6" height="0" stroke="black" stroke-width="1" fill="blue" tooltip="enable"><title>(91.5187,0)</title></rect><rect x="546" y="200" width="6" height="0" stroke="black" stroke-width="1" fill="blue" tooltip="enable"><title>(92.5355,0)</title></rect><rect x="552" y="200" width="6" height="0" stroke="black" stroke-width="1" fill="blue" tooltip="enable"><title>(93.5524,0)</title></rect><rect x="558" y="200" width="6" height="0" stroke="black" stroke-width="1" fill="blue" tooltip="enable"><title>(94.5693,0)</title></rect><rect x="564" y="200" width="6" height="0" stroke="black" stroke-width="1" fill="blue" tooltip="enable"><title>(95.5862,0)</title></rect><rect x="570" y="200" width="6" height="0" stroke="black" stroke-width="1" fill="blue" tooltip="enable"><title>(96.603,0)</title></rect><rect x="576" y="200" width="6" height="0" stroke="black" stroke-width="1" fill="blue" tooltip="enable"><title>(97.6199,0)</title></rect><rect x="582" y="200" width="6" height="0" stroke="black" stroke-width="1" fill="blue" tooltip="enable"><title>(98.6368,0)</title></rect><rect x="588" y="200" width="6" height="0" stroke="black" stroke-width="1" fill="blue" tooltip="enable"><title>(99.6537,0)</title></rect><rect x="594" y="199.999" width="6" height="0.00111365" stroke="black" stroke-width="1" fill="blue" tooltip="enable"><title>(100.671,1)</title></rect><text x="30" y="240" font-size="20" fill="black">0</text>
<text x="600" y="240" font-size="20" fill="black">101.687</text>
<polyline points="0,220,600,220" stroke="black" stroke-width="1" fill="none"/>
<text x="720" y="20" font-size="20" fill="black">179589</text>
<text x="720" y="200" font-size="20" fill="black">0</text>
<polyline points="660,0,660,200" stroke="black" stroke-width="1" fill="none"/>
</svg>