<?xml version="1.0" standalone="yes"?>
<!-- SVG graphic -->
<svg xmlns='http://www.w3.org/2000/svg' xmlns:xlink='http://www.w3.org/1999/xlink'
 version="1.1">
<rect x="0" y="0" width="6" height="200" stroke="black" stroke-width="1" fill="blue" tooltip="enable"><title>(0,51)</title></rect><rect x="6" y="160.784" width="6" height="39.2157" stroke="black" stroke-width="1" fill="blue" tooltip="enable"><title>(0.0338658,10)</title></rect><rect x="12" y="168.627" width="6" height="31.3725" stroke="black" stroke-width="1" fill="blue" tooltip="enable"><title>(0.0677315,8)</title></rect><rect x="18" y="176.471" width="6" height="23.5294" stroke="black" stroke-width="1" fill="blue" tooltip="enable"><title>(0.101597,6)</title></rect><rect x="24" y="184.314" width="6" height="15.6863" stroke="black" stroke-width="1" fill="blue" tooltip="enable"><title>(0.135463,4)</title></rect><rect x="30" y="192.157" width="6" height="7.84314" stroke="black" stroke-width="1" fill="blue" tooltip="enable"><title>(0.169329,2)</title></rect><rect x="36" y="196.078" width="6" height="3.92157" stroke="black" stroke-width="1" fill="blue" tooltip="enable"><title>(0.203195,1)</title></rect><rect x="42" y="196.078" width="6" height="3.92157" stroke="black" stroke-width="1" fill="blue" tooltip="enable"><title>(0.23706,1)</title></rect><rect x="48" y="188.235" width="6" height="11.7647" stroke="black" stroke-width="1" fill="blue" tooltip="enable"><title>(0.270926,3)</title></rect><rect x="54" y="188.235" width="6" height="11.7647" stroke="black" stroke-width="1" fill="blue" tooltip="enable"><title>(0.304792,3)</title></rect><rect x="60" y="192.157" width="6" height="7.84314" stroke="black" stroke-width="1" fill="blue" tooltip="enable"><title>(0.338658,2)</title></rect><rect x="66" y="196.078" width="6" height="3.92157" stroke="black" stroke-width="1" fill="blue" tooltip="enable"><title>(0.372523,1)</title></rect><rect x="72" y="200" width="6" height="0" stroke="black" stroke-width="1" fill="blue" tooltip="enable"><title>(0.406389,0)</title></rect><rect x="78" y="200" width="6" height="0" stroke="black" stroke-width="1" fill="blue" tooltip="enable"><title>(0.440255,0)</title></rect><rect x="84" y="196.078" width="6" height="3.92157" stroke="black" stroke-width="1" fill="blue" tooltip="enable"><title>(0.474121,1)</title></rect><rect x="90" y="200" width="6" height="0" stroke="black" stroke-width="1" fill="blue" tooltip="enable"><title>(0.507986,0)</title></rect><rect x="96" y="200" width="6" height="0" stroke="black" stroke-width="1" fill="blue" tooltip="enable"><title>(0.541852,0)</title></rect><rect x="102" y="200" width="6" height="0" stroke="black" stroke-width="1" fill="blue" tooltip="enable"><title>(0.575718,0)</title></rect><rect x="108" y="200" width="6" height="0" stroke="black" stroke-width="1" fill="blue" tooltip="enable"><title>(0.609584,0)</title></rect><rect x="114" y="200" width="6" height="0" stroke="black" stroke-width="1" fill="blue" tooltip="enable"><title>(0.643449,0)</title></rect><rect x="120" y="196.078" width="6" height="3.92157" stroke="black" stroke-width="1" fill="blue" tooltip="enable"><title>(0.677315,1)</title></rect><rect x="126" y="192.157" width="6" height="7.84314" stroke="black" stroke-width="1" fill="blue" tooltip="enable"><title>(0.711181,2)</title></rect><rect x="132" y="196.078" width="6" height="3.92157" stroke="black" stroke-width="1" fill="blue" tooltip="enable"><title>(0.745047,1)</title></rect><rect x="138" y="184.314" width="6" height="15.6863" stroke="black" stroke-width="1" fill="blue" tooltip="enable"><title>(0.778912,4)</title></rect><rect x="144" y="196.078" width="6" height="3.92157" stroke="black" stroke-width="1" fill="blue" tooltip="enable"><title>(0.812778,1)</title></rect><rect x="150" y="184.314" width="6" height="15.6863" stroke="black" stroke-width="1" fill="blue" tooltip="enable"><title>(0.846644,4)</title></rect><rect x="156" y="196.078" width="6" height="3.92157" stroke="black" stroke-width="1" fill="blue" tooltip="enable"><title>(0.88051,1)</title></rect><rect x="162" y="200" width="6" height="0" stroke="black" stroke-width="1" fill="blue" tooltip="enable"><title>(0.914376,0)</title></rect><rect x="168" y="196.078" width="6" height="3.92157" stroke="black" stroke-width="1" fill="blue" tooltip="enable"><title>(0.948241,1)</title></rect><rect x="174" y="196.078" width="6" height="3.92157" stroke="black" stroke-width="1" fill="blue" tooltip="enable"><title>(0.982107,1)</title></rect><rect x="180" y="200" width="6" height="0" stroke="black" stroke-width="1" fill="blue" tooltip="enable"><title>(1.01597,0)</title></rect><rect x="186" y="188.235" width="6" height="11.7647" stroke="black" stroke-width="1" fill="blue" tooltip="enable"><title>(1.04984,3)</title></rect><rect x="192" y="196.078" width="6" height="3.92157" stroke="black" stroke-width="1" fill="blue" tooltip="enable"><title>(1.0837,1)</title></rect><rect x="198" y="196.078" width="6" height="3.92157" stroke="black" stroke-width="1" fill="blue" tooltip="enable"><title>(1.11757,1)</title></rect><rect x="204" y="200" width="6" height="0" stroke="black" stroke-width="1" fill="blue" tooltip="enable"><title>(1.15144,0)</title></rect><rect x="210" y="196.078" width="6" height="3.92157" stroke="black" stroke-width="1" fill="blue" tooltip="enable"><title>(1.1853,1)</title></rect><rect x="216" y="188.235" width="6" height="11.7647" stroke="black" stroke-width="1" fill="blue" tooltip="enable"><title>(1.21917,3)</title></rect><rect x="222" y="196.078" width="6" height="3.92157" stroke="black" stroke-width="1" fill="blue" tooltip="enable"><title>(1.25303,1)</title></rect><rect x="228" y="200" width="6" height="0" stroke="black" stroke-width="1" fill="blue" tooltip="enable"><title>(1.2869,0)</title></rect><rect x="234" y="196.078" width="6" height="3.92157" stroke="black" stroke-width="1" fill="blue" tooltip="enable"><title>(1.32076,1)</title></rect><rect x="240" y="196.078" width="6" height="3.92157" stroke="black" stroke-width="1" fill="blue" tooltip="enable"><title>(1.35463,1)</title></rect><rect x="246" y="200" width="6" height="0" stroke="black" stroke-width="1" fill="blue" tooltip="enable"><title>(1.3885,0)</title></rect><rect x="252" y="188.235" width="6" height="11.7647" stroke="black" stroke-width="1" fill="blue" tooltip="enable"><title>(1.42236,3)</title></rect><rect x="258" y="188.235" width="6" height="11.7647" stroke="black" stroke-width="1" fill="blue" tooltip="enable"><title>(1.45623,3)</title></rect><rect x="264" y="200" width="6" height="0" stroke="black" stroke-width="1" fill="blue" tooltip="enable"><title>(1.49009,0)</title></rect><rect x="270" y="200" width="6" height="0" stroke="black" stroke-width="1" fill="blue" tooltip="enable"><title>(1.52396,0)</title></rect><rect x="276" y="196.078" width="6" height="3.92157" stroke="black" stroke-width="1" fill="blue" tooltip="enable"><title>(1.55782,1)</title></rect><rect x="282" y="200" width="6" height="0" stroke="black" stroke-width="1" fill="blue" tooltip="enable"><title>(1.59169,0)</title></rect><rect x="288" y="196.078" width="6" height="3.92157" stroke="black" stroke-width="1" fill="blue" tooltip="enable"><title>(1.62556,1)</title></rect><rect x="294" y="196.078" width="6" height="3.92157" stroke="black" stroke-width="1" fill="blue" tooltip="enable"><title>(1.65942,1)</title></rect><rect x="300" y="196.078" width="6" height="3.92157" stroke="black" stroke-width="1" fill="blue" tooltip="enable"><title>(1.69329,1)</title></rect><rect x="306" y="200" width="6" height="0" stroke="black" stroke-width="1" fill="blue" tooltip="enable"><title>(1.72715,0)</title></rect><rect x="312" y="196.078" width="6" height="3.92157" stroke="black" stroke-width="1" fill="blue" tooltip="enable"><title>(1.76102,1)</title></rect><rect x="318" y="196.078" width="6" height="3.92157" stroke="black" stroke-width="1" fill="blue" tooltip="enable"><title>(1.79489,1)</title></rect><rect x="324" y="192.157" width="6" height="7.84314" stroke="black" stroke-width="1" fill="blue" tooltip="enable"><title>(1.82875,2)</title></rect><rect x="330" y="192.157" width="6" height="7.84314" stroke="black" stroke-width="1" fill="blue" tooltip="enable"><title>(1.86262,2)</title></rect><rect x="336" y="200" width="6" height="0" stroke="black" stroke-width="1" fill="blue" tooltip="enable"><title>(1.89648,0)</title></rect><rect x="342" y="200" width="6" height="0" stroke="black" stroke-width="1" fill="blue" tooltip="enable"><title>(1.93035,0)</title></rect><rect x="348" y="200" width="6" height="0" stroke="black" stroke-width="1" fill="blue" tooltip="enable"><title>(1.96421,0)</title></rect><rect x="354" y="196.078" width="6" height="3.92157" stroke="black" stroke-width="1" fill="blue" tooltip="enable"><title>(1.99808,1)</title></rect><rect x="360" y="196.078" width="6" height="3.92157" stroke="black" stroke-width="1" fill="blue" tooltip="enable"><title>(2.03195,1)</title></rect><rect x="366" y="200" width="6" height="0" stroke="black" stroke-width="1" fill="blue" tooltip="enable"><title>(2.06581,0)</title></rect><rect x="372" y="200" width="6" height="0" stroke="black" stroke-width="1" fill="blue" tooltip="enable"><title>(2.09968,0)</title></rect><rect x="378" y="196.078" width="6" height="3.92157" stroke="black" stroke-width="1" fill="blue" tooltip="enable"><title>(2.13354,1)</title></rect><rect x="384" y="200" width="6" height="0" stroke="black" stroke-width="1" fill="blue" tooltip="enable"><title>(2.16741,0)</title></rect><rect x="390" y="200" width="6" height="0" stroke="black" stroke-width="1" fill="blue" tooltip="enable"><title>(2.20127,0)</title></rect><rect x="396" y="196.078" width="6" height="3.92157" stroke="black" stroke-width="1" fill="blue" tooltip="enable"><title>(2.23514,1)</title></rect><rect x="402" y="200" width="6" height="0" stroke="black" stroke-width="1" fill="blue" tooltip="enable"><title>(2.26901,0)</title></rect><rect x="408" y="192.157" width="6" height="7.84314" stroke="black" stroke-width="1" fill="blue" tooltip="enable"><title>(2.30287,2)</title></rect><rect x="414" y="200" width="6" height="0" stroke="black" stroke-width="1" fill="blue" tooltip="enable"><title>(2.33674,0)</title></rect><rect x="420" y="200" width="6" height="0" stroke="black" stroke-width="1" fill="blue" tooltip="enable"><title>(2.3706,0)</title></rect><rect x="426" y="196.078" width="6" height="3.92157" stroke="black" stroke-width="1" fill="blue" tooltip="enable"><title>(2.40447,1)</title></rect><rect x="432" y="200" width="6" height="0" stroke="black" stroke-width="1" fill="blue" tooltip="enable"><title>(2.43833,0)</title></rect><rect x="438" y="196.078" width="6" height="3.92157" stroke="black" stroke-width="1" fill="blue" tooltip="enable"><title>(2.4722,1)</title></rect><rect x="444" y="200" width="6" height="0" stroke="black" stroke-width="1" fill="blue" tooltip="enable"><title>(2.50607,0)</title></rect><rect x="450" y="200" width="6" height="0" stroke="black" stroke-width="1" fill="blue" tooltip="enable"><title>(2.53993,0)</title></rect><rect x="456" y="200" width="6" height="0" stroke="black" stroke-width="1" fill="blue" tooltip="enable"><title>(2.5738,0)</title></rect><rect x="462" y="200" width="6" height="0" stroke="black" stroke-width="1" fill="blue" tooltip="enable"><title>(2.60766,0)</title></rect><rect x="468" y="200" width="6" height="0" stroke="black" stroke-width="1" fill="blue" tooltip="enable"><title>(2.64153,0)</title></rect><rect x="474" y="200" width="6" height="0" stroke="black" stroke-width="1" fill="blue" tooltip="enable"><title>(2.6754,0)</title></rect><rect x="480" y="200" width="6" height="0" stroke="black" stroke-width="1" fill="blue" tooltip="enable"><title>(2.70926,0)</title></rect><rect x="486" y="200" width="6" height="0" stroke="black" stroke-width="1" fill="blue" tooltip="enable"><title>(2.74313,0)</title></rect><rect x="492" y="196.078" width="6" height="3.92157" stroke="black" stroke-width="1" fill="blue" tooltip="enable"><title>(2.77699,1)</title></rect><rect x="498" y="200" width="6" height="0" stroke="black" stroke-width="1" fill="blue" tooltip="enable"><title>(2.81086,0)</title></rect><rect x="504" y="200" width="6" height="0" stroke="black" stroke-width="1" fill="blue" tooltip="enable"><title>(2.84472,0)</title></rect><rect x="510" y="200" width="6" height="0" stroke="black" stroke-width="1" fill="blue" tooltip="enable"><title>(2.87859,0)</title></rect><rect x="516" y="200" width="6" height="0" stroke="black" stroke-width="1" fill="blue" tooltip="enable"><title>(2.91246,0)</title></rect><rect x="522" y="200" width="6" height="0" stroke="black" stroke-width="1" fill="blue" tooltip="enable"><title>(2.94632,0)</title></rect><rect x="528" y="200" width="6" height="0" stroke="black" stroke-width="1" fill="blue" tooltip="enable"><title>(2.98019,0)</title></rect><rect x="534" y="200" width="6" height="0" stroke="black" stroke-width="1" fill="blue" tooltip="enable"><title>(3.01405,0)</title></rect><rect x="540" y="200" width="6" height="0" stroke="black" stroke-width="1" fill="blue" tooltip="enable"><title>(3.04792,0)</title></rect><rect x="546" y="200" width="6" height="0" stroke="black" stroke-width="1" fill="blue" tooltip="enable"><title>(3.08178,0)</title></rect><rect x="552" y="196.078" width="6" height="3.92157" stroke="black" stroke-width="1" fill="blue" tooltip="enable"><title>(3.11565,1)</title></rect><rect x="558" y="200" width="6" height="0" stroke="black" stroke-width="1" fill="blue" tooltip="enable"><title>(3.14952,0)</title></rect><rect x="564" y="200" width="6" height="0" stroke="black" stroke-width="1" fill="blue" tooltip="enable"><title>(3.18338,0)</title></rect><rect x="570" y="200" width="6" height="0" stroke="black" stroke-width="1" fill="blue" tooltip="enable"><title>(3.21725,0)</title></rect><rect x="576" y="200" width="6" height="0" stroke="black" stroke-width="1" fill="blue" tooltip="enable"><title>(3.25111,0)</title></rect><rect x="582" y="200" width="6" height="0" stroke="black" stroke-width="1" fill="blue" tooltip="enable"><title>(3.28498,0)</title></rect><rect x="588" y="200" width="6" height="0" stroke="black" stroke-width="1" fill="blue" tooltip="enable"><title>(3.31884,0)</title></rect><rect x="594" y="196.078" width="6" height="3.92157" stroke="black" stroke-width="1" fill="blue" tooltip="enable"><title>(3.35271,1)</title></rect><text x="30" y="240" font-size="20" fill="black">0</text>
<text x="600" y="240" font-size="20" fill="black">3.38658</text>
<polyline points="0,220,600,220" stroke="black" stroke-width="1" fill="none"/>
<text x="720" y="20" font-size="20" fill="black">51</text>
<text x="720" y="200" font-size="20" fill="black">0</text>
<polyline points="660,0,660,200" stroke="black" stroke-width="1" fill="none"/>
</svg>